<svg width="156" height="116" viewBox="0 0 156 116" fill="none" xmlns="http://www.w3.org/2000/svg">
<g id="&#208;&#160;&#208;&#149;&#208;&#154; main logo" clip-path="url(#clip0_169_1793)">
<g id="Group">
<g id="Group_2">
<path id="Vector" d="M41.9889 0.000290833C39.6296 9.6865 30.6641 17.3978 20.8492 18.1502L21.4154 14.3885C29.2485 13.9183 36.4209 7.71164 38.214 0.000290833H35.3828C33.684 6.11294 28.116 10.909 21.8873 11.6614L22.4536 7.89972C26.7004 7.42952 30.4753 4.13809 31.7022 0.000290833H28.871C27.9272 2.53939 25.5679 4.51425 22.9254 5.0785L23.6804 0.000290833H20.8492L20.0942 5.0785C18.9617 4.79637 18.018 4.23213 17.263 3.38576C16.4136 2.44535 16.0361 1.22282 16.0361 -0.09375H13.2049C13.2049 1.88111 13.8655 3.66788 15.0924 5.17254C16.2249 6.48911 17.8292 7.42952 19.6223 7.71164L19.0561 11.5673C16.2249 11.2852 13.6768 10.0627 11.8837 7.99376C9.99621 5.83082 9.14684 3.0096 9.42997 -0.09375H6.59875C6.31563 3.66788 7.44812 7.05335 9.71309 9.78054C11.8837 12.3196 14.998 13.9183 18.5842 14.2945L18.018 18.0561C13.3937 17.868 9.33559 15.9872 6.50438 12.6958C3.57879 9.31033 2.35193 4.79637 2.8238 0.000290833H0.0869544C-0.479289 5.45466 1.12507 10.5329 4.42815 14.4826C7.63686 18.2442 12.3556 20.5012 17.5461 20.9714L16.9799 24.5449H19.8111L20.3773 20.8774C31.8909 20.4072 42.3664 11.2852 44.7258 0.000290833H41.9889Z" fill="#FAF6F1"/>
</g>
<g id="Group_3">
<path id="Vector_2" d="M10.4726 31.3162C14.0588 31.3162 16.2294 33.197 16.2294 36.1122C16.2294 37.899 15.5688 39.3096 14.2475 40.5322C12.9263 41.6607 11.3219 42.2249 9.34008 42.2249H4.81014L3.67765 49.372H-0.00292969L2.82829 31.4102H10.4726V31.3162ZM9.34008 39.0275C11.0388 39.0275 12.36 38.1811 12.36 36.4884C12.36 35.2659 11.5107 34.5136 10.0007 34.5136H6.037L5.28201 39.0275H9.34008Z" fill="#FAF6F1"/>
<path id="Vector_3" d="M28.8761 37.9924C30.103 39.2149 30.7636 40.7195 30.7636 42.6004C30.7636 44.4812 30.103 46.1739 28.6874 47.5845C27.2718 48.9951 25.6674 49.6534 23.5912 49.6534C21.6093 49.6534 20.005 49.0892 18.7781 47.8667C17.5512 46.6441 16.8906 45.0454 16.8906 43.2586C16.8906 41.3778 17.5512 39.6851 18.9669 38.3685C20.3825 36.9579 22.0812 36.2996 24.063 36.2996C25.9505 36.2056 27.5549 36.7698 28.8761 37.9924ZM26.2336 45.3275C26.9886 44.5752 27.3661 43.6348 27.3661 42.5063C27.3661 40.6255 25.9505 39.3089 24.063 39.3089C23.0249 39.3089 22.1756 39.6851 21.4206 40.4374C20.6656 41.1898 20.3825 42.1302 20.3825 43.2586C20.3825 45.2335 21.7981 46.456 23.5912 46.456C24.6293 46.5501 25.4786 46.0799 26.2336 45.3275Z" fill="#FAF6F1"/>
<path id="Vector_4" d="M43.8781 40.2493C42.7456 39.685 41.6131 39.3089 40.4806 39.3089C39.2538 39.3089 38.2157 39.685 37.3663 40.4374C36.5169 41.1897 36.1394 42.1301 36.1394 43.2586C36.1394 44.293 36.5169 45.1394 37.2719 45.7036C38.0269 46.2679 38.9706 46.55 40.1031 46.55C41.1412 46.55 42.1794 46.3619 43.2175 45.7977L42.7456 48.9951C41.7075 49.4653 40.4806 49.7474 39.2538 49.7474C37.3663 49.7474 35.6676 49.1832 34.4407 48.0547C33.2138 46.9262 32.5532 45.4215 32.5532 43.5407C32.5532 41.4718 33.3082 39.7791 34.7238 38.3685C36.2338 36.9578 38.0269 36.2996 40.1975 36.2996C41.8019 36.2996 43.1231 36.5817 44.35 37.334L43.8781 40.2493Z" fill="#FAF6F1"/>
<path id="Vector_5" d="M57.0905 40.2493C55.958 39.685 54.8255 39.3089 53.693 39.3089C52.4662 39.3089 51.4281 39.685 50.5787 40.4374C49.7293 41.1897 49.3518 42.1301 49.3518 43.2586C49.3518 44.293 49.7293 45.1394 50.4843 45.7036C51.2393 46.2679 52.183 46.55 53.3155 46.55C54.3536 46.55 55.3918 46.3619 56.4299 45.7977L55.958 48.9951C54.9199 49.4653 53.693 49.7474 52.4662 49.7474C50.5787 49.7474 48.88 49.1832 47.6531 48.0547C46.4262 46.9262 45.7656 45.4215 45.7656 43.5407C45.7656 41.4718 46.5206 39.7791 47.9362 38.3685C49.4462 36.9578 51.2393 36.2996 53.4099 36.2996C55.0143 36.2996 56.3355 36.5817 57.5624 37.334L57.0905 40.2493Z" fill="#FAF6F1"/>
<path id="Vector_6" d="M70.1159 36.488H73.5133L71.5315 49.2776H67.9453L69.0778 41.9424L62.1885 49.2776H58.791L60.8672 36.488H64.4535L63.2266 43.9173L70.1159 36.488Z" fill="#FAF6F1"/>
<path id="Vector_7" d="M86.2537 36.488H89.6512L87.6693 49.2776H83.9887L85.1212 41.9424L78.2319 49.2776H74.8345L76.9107 36.488H80.4969L79.3644 43.8232L86.2537 36.488ZM82.0069 30.7515C82.0069 30.8456 82.0069 30.9396 82.0069 31.0336C82.0069 31.974 82.6675 32.6323 83.8 32.6323C85.0268 32.6323 85.9706 31.88 86.1593 30.7515H88.7074C88.2356 33.3847 86.2537 34.9833 83.6112 34.9833C81.2519 34.9833 79.4588 33.5727 79.4588 31.4098C79.4588 31.2217 79.4588 31.0336 79.5532 30.6575H82.0069V30.7515Z" fill="#FAF6F1"/>
<path id="Vector_8" d="M102.391 40.2493C101.258 39.685 100.126 39.3089 98.9933 39.3089C97.7665 39.3089 96.7283 39.685 95.879 40.4374C95.0296 41.1897 94.6521 42.1301 94.6521 43.2586C94.6521 44.293 95.0296 45.1394 95.7846 45.7036C96.5396 46.2679 97.4833 46.55 98.6158 46.55C99.6539 46.55 100.692 46.3619 101.73 45.7977L101.258 48.9951C100.22 49.4653 98.9933 49.7474 97.7665 49.7474C95.879 49.7474 94.1803 49.1832 92.9534 48.0547C91.7265 46.9262 91.0659 45.4215 91.0659 43.5407C91.0659 41.4718 91.8209 39.7791 93.2365 38.3685C94.7465 36.9578 96.5396 36.2996 98.7102 36.2996C100.315 36.2996 101.636 36.5817 102.863 37.334L102.391 40.2493Z" fill="#FAF6F1"/>
<path id="Vector_9" d="M104.185 49.3713L106.261 36.5818H109.941L109.186 41.0957L114.283 36.5818H118.907L112.301 42.6004L117.774 49.3713H113.528L108.809 43.6348L107.96 49.3713C107.865 49.2773 104.185 49.2773 104.185 49.3713Z" fill="#FAF6F1"/>
<path id="Vector_10" d="M130.891 36.488H134.289L132.307 49.2776H128.626L129.759 41.9424L122.87 49.2776H119.472L121.548 36.488H125.229L124.096 43.8232L130.891 36.488Z" fill="#FAF6F1"/>
<path id="Vector_11" d="M147.316 36.488H150.714L148.732 49.2776H145.051L146.184 41.9424L139.294 49.2776H135.897L137.973 36.488H141.654L140.521 43.8232L147.316 36.488ZM143.069 30.7515C143.069 30.8456 143.069 30.9396 143.069 31.0336C143.069 31.974 143.73 32.6323 144.862 32.6323C146.089 32.6323 147.033 31.88 147.222 30.7515H149.77C149.298 33.3847 147.316 34.9833 144.674 34.9833C142.314 34.9833 140.521 33.5727 140.521 31.4098C140.521 31.2217 140.521 31.0336 140.616 30.6575H143.069V30.7515Z" fill="#FAF6F1"/>
</g>
<g id="Group_4">
<path id="Vector_12" d="M-0.00292969 78.713L2.82829 60.7512H16.0406L15.5688 64.0426H6.037L5.47076 67.5222H13.115L12.5488 70.8136H4.99889L4.24389 75.4216H14.0588L13.4925 78.713H-0.00292969Z" fill="#FAF6F1"/>
<path id="Vector_13" d="M29.1571 74.8567C29.1571 77.4898 27.0809 78.8064 23.8722 78.8064H16.3223L18.3041 66.0168H25.5709C27.9303 66.0168 29.2515 67.3334 29.2515 69.0262C29.2515 70.6249 28.3077 71.7533 27.1753 72.2235C28.4965 72.5997 29.1571 73.5401 29.1571 74.8567ZM23.5891 76.1733C24.7215 76.1733 25.4765 75.515 25.4765 74.4805C25.4765 73.7282 24.9103 73.352 23.5891 73.352H20.7578L20.286 76.1733H23.5891ZM23.7778 71.001C24.8159 71.001 25.5709 70.4368 25.5709 69.4964C25.5709 68.65 25.0047 68.3679 23.7778 68.3679H21.5128L21.041 71.001H23.7778Z" fill="#FAF6F1"/>
<path id="Vector_14" d="M34.1585 83.8848H30.5723L33.4035 65.923H36.9897L36.8009 67.4276C37.9334 66.2051 39.349 65.6409 41.0478 65.6409C42.6521 65.6409 43.9734 66.2051 44.9171 67.3336C45.8608 68.4621 46.3327 69.8727 46.3327 71.5654C46.3327 73.5403 45.6721 75.3271 44.4452 76.8317C43.3127 78.2423 41.614 78.9947 39.6322 78.9947C37.6503 78.9947 36.0459 78.0543 35.291 76.9258L34.1585 83.8848ZM36.2347 70.625L35.6685 74.0105C36.1403 75.0449 37.4616 75.8913 38.8772 75.8913C39.9153 75.8913 40.7646 75.5152 41.5196 74.7628C42.2746 74.0105 42.6521 73.0701 42.6521 71.9416C42.6521 69.9667 41.4253 68.7442 39.5378 68.7442C38.3109 68.7442 36.9897 69.4965 36.2347 70.625Z" fill="#FAF6F1"/>
<path id="Vector_15" d="M59.7364 74.9512L59.2645 77.9605C58.132 78.7128 56.6221 79.089 54.7346 79.089C52.8471 79.089 51.2428 78.5248 50.0159 77.3963C48.789 76.2678 48.1284 74.7631 48.1284 72.8823C48.1284 70.8134 48.789 69.1207 50.2046 67.7101C51.6203 66.2994 53.319 65.5471 55.3952 65.5471C57.1883 65.5471 58.6039 66.1114 59.642 67.1458C60.6801 68.1803 61.2464 69.4968 61.2464 71.0955C61.2464 71.7538 61.152 72.5061 61.0576 73.3525H51.809C51.9034 75.0452 53.6021 75.9857 55.8671 75.9857C57.0939 75.9857 58.5095 75.6095 59.7364 74.9512ZM57.6602 71.0015V70.8134C57.6602 69.4028 56.7164 68.4624 55.2065 68.4624C53.6021 68.4624 52.2809 69.4028 51.9034 71.0015H57.6602Z" fill="#FAF6F1"/>
<path id="Vector_16" d="M73.8908 65.9231H77.2882L75.3064 78.7126H71.7202L72.8527 71.3774L65.9634 78.7126H62.5659L64.6421 65.9231H68.2283L67.0015 73.2582L73.8908 65.9231ZM69.644 60.1866C69.644 60.2806 69.644 60.3747 69.644 60.4687C69.644 61.4091 70.3046 62.0674 71.4371 62.0674C72.6639 62.0674 73.6077 61.3151 73.7964 60.1866H76.4389C75.967 62.8197 73.9851 64.4184 71.3427 64.4184C68.9833 64.4184 67.1902 63.0078 67.1902 60.8449C67.1902 60.6568 67.1902 60.4687 67.2846 60.0925C67.1902 60.1866 69.644 60.1866 69.644 60.1866Z" fill="#FAF6F1"/>
<path id="Vector_17" d="M90.1217 69.5906C88.9893 69.0263 87.8568 68.7442 86.7243 68.7442C85.4974 68.7442 84.4593 69.1204 83.6099 69.8727C82.7606 70.625 82.3831 71.5654 82.3831 72.5999C82.3831 73.6343 82.7606 74.4807 83.5156 75.045C84.2706 75.6092 85.2143 75.8913 86.3468 75.8913C87.3849 75.8913 88.423 75.7032 89.4611 75.139L88.9893 78.3364C87.9511 78.8066 86.7243 79.0887 85.4974 79.0887C83.6099 79.0887 81.9112 78.5245 80.6844 77.396C79.4575 76.2675 78.7969 74.7628 78.7969 72.882C78.7969 70.8131 79.5519 69.1204 80.9675 67.7098C82.4775 66.2992 84.2706 65.6409 86.4412 65.6409C88.0455 65.6409 89.3667 65.923 90.5936 66.6753L90.1217 69.5906Z" fill="#FAF6F1"/>
<path id="Vector_18" d="M91.8223 78.7126L93.8985 65.9231H97.5791L96.8241 70.4371L101.92 65.9231H106.545L99.9384 71.9417L105.412 78.7126H101.165L96.4466 72.9762L95.5972 78.7126H91.8223Z" fill="#FAF6F1"/>
<path id="Vector_19" d="M118.622 65.9231H122.019L120.037 78.7126H116.451L117.584 71.3775L110.694 78.7126H107.297L109.373 65.9231H112.959L111.827 73.2583L118.622 65.9231Z" fill="#FAF6F1"/>
<path id="Vector_20" d="M134.954 65.9231H138.351L136.37 78.7126H132.689L133.821 71.3774L126.932 78.7126H123.535L125.611 65.9231H129.291L128.159 73.2582L134.954 65.9231ZM130.707 60.1866C130.707 60.2806 130.707 60.3747 130.707 60.4687C130.707 61.4091 131.368 62.0674 132.5 62.0674C133.727 62.0674 134.671 61.3151 134.86 60.1866H137.408C136.936 62.8197 134.954 64.4184 132.311 64.4184C129.952 64.4184 128.159 63.0078 128.159 60.8449C128.159 60.6568 128.159 60.4687 128.253 60.0925C128.253 60.1866 130.707 60.1866 130.707 60.1866Z" fill="#FAF6F1"/>
</g>
<g id="Group_5">
<path id="Vector_21" d="M-0.00292969 108.617L2.82829 90.6555H6.50887L5.37638 97.8026L13.0207 90.6555H17.645L8.67947 99.2132L16.135 108.617H11.6994L4.90451 100.342L3.58328 108.617H-0.00292969Z" fill="#FAF6F1"/>
<path id="Vector_22" d="M30.0075 97.3327C31.2343 98.5552 31.8949 100.06 31.8949 101.941C31.8949 103.916 31.2343 105.514 29.8187 106.925C28.4031 108.335 26.7987 108.994 24.7225 108.994C22.7407 108.994 21.1363 108.43 19.9094 107.207C18.6826 105.984 18.022 104.48 18.022 102.599C18.022 100.718 18.6826 99.0254 20.0982 97.7089C21.5138 96.2982 23.2125 95.64 25.1944 95.64C27.0819 95.5459 28.6862 96.1102 30.0075 97.3327ZM27.365 104.668C28.12 103.916 28.4975 102.975 28.4975 101.847C28.4975 99.8718 27.0819 98.6493 25.1944 98.6493C24.1563 98.6493 23.3069 99.0254 22.5519 99.7778C21.7969 100.53 21.5138 101.47 21.5138 102.599C21.5138 104.574 22.9294 105.796 24.7225 105.796C25.6663 105.796 26.61 105.42 27.365 104.668Z" fill="#FAF6F1"/>
<path id="Vector_23" d="M33.4971 108.617L35.5733 95.8276H39.1595L38.4045 100.624H43.6894L44.4444 95.8276H48.125L46.0488 108.617H42.4626L43.2176 103.633H37.9326L37.1777 108.617H33.4971Z" fill="#FAF6F1"/>
<path id="Vector_24" d="M49.4473 108.617L51.5235 95.8276H61.7159L61.244 98.8369H54.6378L53.1278 108.617H49.4473Z" fill="#FAF6F1"/>
<path id="Vector_25" d="M64.6458 115.2H61.0596L63.8908 95.8278H67.477L67.1939 97.3324C68.3264 96.1099 69.742 95.5457 71.4407 95.5457C73.0451 95.5457 74.3663 96.1099 75.31 97.2384C76.2538 98.3669 76.82 99.7775 76.82 101.47C76.82 103.445 76.1594 105.232 74.9325 106.737C73.7057 108.241 72.0069 108.993 70.0251 108.993C68.0432 108.993 66.4389 108.053 65.6839 106.925L64.6458 115.2ZM66.722 100.53L66.1558 103.915C66.722 104.95 67.9489 105.796 69.3645 105.796C70.4026 105.796 71.252 105.42 72.0069 104.668C72.7619 103.915 73.1394 102.975 73.1394 101.846C73.1394 99.8715 71.9126 98.649 70.0251 98.649C68.7039 98.649 67.477 99.4954 66.722 100.53Z" fill="#FAF6F1"/>
<path id="Vector_26" d="M90.218 104.856L89.7461 107.865C88.6136 108.618 87.1037 108.994 85.2162 108.994C83.3287 108.994 81.7243 108.43 80.4031 107.301C79.1762 106.173 78.5156 104.668 78.5156 102.787C78.5156 100.718 79.1762 99.0255 80.5919 97.6148C81.9131 96.2042 83.7062 95.4519 85.7824 95.4519C87.5755 95.4519 88.8968 96.0161 90.0292 97.0506C91.0674 98.085 91.6336 99.4016 91.6336 101C91.6336 101.659 91.5392 102.411 91.4448 103.257H82.1018C82.1962 104.95 83.8949 105.89 86.1599 105.89C87.5755 105.89 88.8968 105.514 90.218 104.856ZM88.1418 100.906V100.718C88.1418 99.3076 87.198 98.3672 85.688 98.3672C84.1781 98.3672 82.7625 99.3076 82.385 100.906H88.1418Z" fill="#FAF6F1"/>
<path id="Vector_27" d="M104.659 99.5894C103.527 99.0252 102.394 98.743 101.262 98.743C100.035 98.743 98.9969 99.1192 98.1475 99.8715C97.2982 100.624 96.9207 101.564 96.9207 102.599C96.9207 103.633 97.2982 104.48 98.0532 105.044C98.8082 105.608 99.7519 105.89 100.884 105.89C101.922 105.89 102.961 105.702 103.999 105.138L103.527 108.241C102.489 108.711 101.262 108.993 100.035 108.993C98.1475 108.993 96.4488 108.429 95.2219 107.301C93.9951 106.172 93.3345 104.668 93.3345 102.787C93.3345 100.718 94.0895 99.0252 95.5051 97.6146C97.015 96.2039 98.8082 95.5457 100.979 95.5457C102.583 95.5457 103.904 95.8278 105.131 96.5801L104.659 99.5894Z" fill="#FAF6F1"/>
<path id="Vector_28" d="M117.872 99.5894C116.739 99.0252 115.607 98.743 114.474 98.743C113.247 98.743 112.209 99.1192 111.36 99.8715C110.511 100.624 110.133 101.564 110.133 102.599C110.133 103.633 110.511 104.48 111.266 105.044C112.021 105.608 112.964 105.89 114.097 105.89C115.135 105.89 116.173 105.702 117.211 105.138L116.739 108.241C115.701 108.711 114.474 108.993 113.247 108.993C111.266 108.993 109.661 108.429 108.434 107.301C107.207 106.172 106.547 104.668 106.547 102.787C106.547 100.718 107.302 99.0252 108.717 97.6146C110.227 96.2039 112.021 95.5457 114.191 95.5457C115.796 95.5457 117.117 95.8278 118.344 96.5801L117.872 99.5894Z" fill="#FAF6F1"/>
</g>
<g id="Group_6">
<path id="Vector_29" d="M58.5076 7.33567C59.1682 7.99396 59.4514 8.74628 59.4514 9.78073C59.4514 10.9092 59.0739 11.7556 58.3189 12.602C57.5639 13.4483 56.7145 13.7304 55.582 13.7304C54.5439 13.7304 53.6946 13.4483 53.1283 12.79C52.4677 12.1318 52.1846 11.3794 52.1846 10.345C52.1846 9.21649 52.5621 8.37012 53.3171 7.52375C54.072 6.77143 54.9214 6.39526 56.0539 6.39526C57.092 6.39526 57.9414 6.77143 58.5076 7.33567ZM57.5639 11.8496C58.0357 11.2854 58.3189 10.6271 58.3189 9.78073C58.3189 9.12245 58.1301 8.5582 57.6583 8.088C57.1864 7.61779 56.7145 7.42971 55.9595 7.42971C55.2045 7.42971 54.5439 7.71184 54.072 8.27608C53.6002 8.84032 53.3171 9.49861 53.3171 10.345C53.3171 11.0033 53.5058 11.5675 53.9777 12.0377C54.4495 12.5079 54.9214 12.696 55.6764 12.696C56.4314 12.696 57.092 12.4139 57.5639 11.8496Z" fill="#FAF6F1"/>
<path id="Vector_30" d="M61.0576 13.0719C60.5857 12.6017 60.397 12.0374 60.397 11.2851C60.397 10.5328 60.6801 9.78044 61.2463 9.31023C61.8126 8.74599 62.4732 8.46387 63.3226 8.46387C63.8888 8.46387 64.4551 8.55791 64.9269 8.84003L64.7382 9.78044C64.3607 9.49832 63.8888 9.40428 63.3226 9.40428C62.7563 9.40428 62.2844 9.59236 62.0013 9.87448C61.6238 10.2506 61.4351 10.6268 61.4351 11.1911C61.4351 11.6613 61.6238 12.0374 61.907 12.3195C62.1901 12.6017 62.6619 12.6957 63.1338 12.6957C63.6057 12.6957 63.9832 12.6017 64.4551 12.4136L64.2663 13.354C63.8888 13.5421 63.4169 13.6361 62.8507 13.6361C62.1901 13.7302 61.5295 13.448 61.0576 13.0719Z" fill="#FAF6F1"/>
<path id="Vector_31" d="M65.4907 13.5422L66.2457 8.6521H67.3782L67.0951 10.627H69.6432L69.9263 8.6521H71.0588L70.3038 13.5422H69.1713L69.4544 11.4733H66.9063L66.6232 13.5422H65.4907Z" fill="#FAF6F1"/>
<path id="Vector_32" d="M76.3459 9.21664C76.8177 9.68684 77.1009 10.2511 77.1009 11.0034C77.1009 11.7557 76.8177 12.414 76.3459 12.9783C75.7796 13.5425 75.119 13.8246 74.364 13.8246C73.609 13.8246 73.0428 13.6366 72.5709 13.0723C72.099 12.5081 71.8159 12.0379 71.8159 11.2855C71.8159 10.5332 72.099 9.87492 72.5709 9.40472C73.1372 8.84047 73.7978 8.55835 74.5528 8.55835C75.3078 8.55835 75.874 8.74643 76.3459 9.21664ZM75.4965 12.2259C75.7796 11.8498 75.9684 11.4736 75.9684 10.9094C75.9684 10.063 75.4021 9.40472 74.4584 9.40472C73.9865 9.40472 73.609 9.5928 73.2315 9.96896C72.9484 10.3451 72.7597 10.7213 72.7597 11.2855C72.7597 12.1319 73.4203 12.7902 74.2696 12.7902C74.8359 12.7902 75.2134 12.6021 75.4965 12.2259Z" fill="#FAF6F1"/>
<path id="Vector_33" d="M82.6666 12.1313C82.6666 13.1658 81.9116 13.636 80.6847 13.636H77.8535L78.6085 8.74585H81.3453C82.1947 8.74585 82.6666 9.21605 82.6666 9.87434C82.6666 10.4386 82.2891 10.9088 81.8172 11.0969C82.4778 11.1909 82.6666 11.5671 82.6666 12.1313ZM80.7791 12.6956C81.251 12.6956 81.6285 12.4134 81.6285 11.9432C81.6285 11.6611 81.3454 11.473 80.9679 11.473H79.2691L79.0804 12.6956H80.7791ZM80.8735 10.6267C81.3453 10.6267 81.6285 10.4386 81.6285 9.96838C81.6285 9.68626 81.4397 9.49818 81.0622 9.49818H79.6466L79.4579 10.6267H80.8735Z" fill="#FAF6F1"/>
<path id="Vector_34" d="M88.8937 12.6957L88.7993 13.5421C88.6106 13.6361 88.4218 13.6361 88.2331 13.6361C87.6668 13.6361 87.3837 13.448 87.2893 12.9778C86.7231 13.448 86.1568 13.7302 85.4962 13.7302C84.93 13.7302 84.5525 13.6361 84.175 13.2599C83.7975 12.8838 83.7031 12.6017 83.7031 12.1315C83.7031 11.5672 83.8919 11.097 84.2694 10.8149C84.6469 10.5328 85.1187 10.3447 85.7794 10.3447C86.44 10.3447 87.0062 10.4387 87.4781 10.8149C87.4781 10.6268 87.5725 10.4387 87.5725 10.3447C87.5725 9.78044 87.1006 9.40428 86.2512 9.40428C85.685 9.40428 85.1187 9.49832 84.6469 9.78044L84.8356 8.84003C85.3075 8.65195 85.8737 8.46387 86.6287 8.46387C87.2893 8.46387 87.7612 8.55791 88.1387 8.84003C88.5162 9.12215 88.7049 9.49832 88.7049 10.0626C88.7049 10.1566 88.7049 10.3447 88.6106 10.6268L88.4218 11.9434C88.4218 12.0374 88.4218 12.1315 88.4218 12.2255C88.4218 12.5076 88.6106 12.6017 88.7993 12.6017C88.7049 12.6957 88.7993 12.6957 88.8937 12.6957ZM87.2893 11.6613C86.9118 11.3791 86.44 11.2851 85.8737 11.2851C85.1187 11.2851 84.6469 11.5672 84.6469 12.1315C84.6469 12.6017 85.1187 12.8838 85.685 12.8838C86.3456 12.8838 86.9118 12.6017 87.195 12.3195L87.2893 11.6613Z" fill="#FAF6F1"/>
<path id="Vector_35" d="M89.7471 13.5422L90.5021 8.6521H91.6345L91.3514 10.627H93.8995L94.1826 8.6521H95.3151L94.5601 13.5422H93.4277L93.7108 11.4733H91.1627L90.8796 13.5422H89.7471Z" fill="#FAF6F1"/>
<path id="Vector_36" d="M103.429 12.1313C103.429 13.1658 102.674 13.636 101.447 13.636H98.6157L99.3707 8.74585H102.108C102.957 8.74585 103.429 9.21605 103.429 9.87434C103.429 10.4386 103.051 10.9088 102.579 11.0969C103.146 11.1909 103.429 11.5671 103.429 12.1313ZM101.541 12.6956C102.013 12.6956 102.391 12.4134 102.391 11.9432C102.391 11.6611 102.108 11.473 101.73 11.473H100.031L99.8426 12.6956H101.541ZM101.636 10.6267C102.108 10.6267 102.391 10.4386 102.391 9.96838C102.391 9.68626 102.202 9.49818 101.824 9.49818H100.409L100.22 10.6267H101.636Z" fill="#FAF6F1"/>
<path id="Vector_37" d="M108.146 13.5423L109.089 7.71174L107.391 8.55811L107.579 7.52366L109.372 6.58325H110.316L109.184 13.6363C109.278 13.5423 108.146 13.5423 108.146 13.5423Z" fill="#FAF6F1"/>
<path id="Vector_38" d="M112.114 10.5328C111.737 10.1567 111.548 9.68645 111.548 9.02816C111.548 8.27584 111.831 7.71159 112.303 7.14735C112.775 6.67714 113.436 6.39502 114.191 6.39502C114.946 6.39502 115.606 6.67714 115.984 7.14735C116.456 7.61755 116.644 8.27584 116.644 9.1222C116.644 9.96857 116.456 10.7209 116.172 11.3792C115.889 12.0375 115.417 12.6017 114.946 13.0719C114.379 13.4481 113.813 13.7302 113.058 13.7302C112.303 13.7302 111.831 13.5421 111.359 13.26L111.548 12.2255C111.926 12.6017 112.492 12.6958 113.058 12.6958C113.624 12.6958 114.191 12.5077 114.662 11.9434C115.134 11.4732 115.417 10.909 115.417 10.2507C114.946 10.8149 114.379 11.0971 113.53 11.0971C112.964 11.0971 112.492 10.909 112.114 10.5328ZM113.058 7.89967C112.775 8.18179 112.586 8.55796 112.586 9.02816C112.586 9.78049 113.152 10.2507 113.907 10.2507C114.191 10.2507 114.568 10.1567 114.851 9.96857C115.134 9.78049 115.417 9.49837 115.512 9.1222V9.02816C115.512 8.55796 115.417 8.18179 115.134 7.89967C114.851 7.61755 114.568 7.42947 114.096 7.42947C113.719 7.42947 113.341 7.52351 113.058 7.89967Z" fill="#FAF6F1"/>
<path id="Vector_39" d="M118.528 10.5328C118.15 10.1567 117.961 9.68645 117.961 9.02816C117.961 8.27584 118.244 7.71159 118.716 7.14735C119.188 6.67714 119.849 6.39502 120.604 6.39502C121.359 6.39502 122.019 6.67714 122.397 7.14735C122.869 7.61755 123.058 8.27584 123.058 9.1222C123.058 9.96857 122.869 10.7209 122.586 11.3792C122.303 12.0375 121.831 12.6017 121.264 13.0719C120.698 13.4481 120.132 13.7302 119.377 13.7302C118.622 13.7302 118.15 13.5421 117.678 13.26L117.961 12.2255C118.339 12.6017 118.905 12.6958 119.471 12.6958C120.038 12.6958 120.604 12.5077 121.076 11.9434C121.548 11.4732 121.831 10.909 121.831 10.2507C121.359 10.8149 120.793 11.0971 119.943 11.0971C119.377 11.0971 118.905 10.909 118.528 10.5328ZM119.471 7.89967C119.188 8.18179 118.999 8.55796 118.999 9.02816C118.999 9.78049 119.566 10.2507 120.321 10.2507C120.604 10.2507 120.981 10.1567 121.264 9.96857C121.548 9.78049 121.831 9.49837 121.925 9.1222V9.02816C121.925 8.55796 121.831 8.18179 121.548 7.89967C121.264 7.61755 120.981 7.42947 120.509 7.42947C120.132 7.42947 119.754 7.52351 119.471 7.89967Z" fill="#FAF6F1"/>
<path id="Vector_40" d="M128.815 9.59241C129.192 9.96857 129.381 10.4388 129.381 11.0971C129.381 11.8494 129.098 12.4136 128.626 12.9779C128.154 13.4481 127.493 13.7302 126.738 13.7302C125.983 13.7302 125.323 13.4481 124.945 12.9779C124.473 12.5077 124.285 11.8494 124.285 11.003C124.285 10.1567 124.379 9.49837 124.757 8.74604C125.04 8.08775 125.512 7.52351 126.078 7.05331C126.644 6.5831 127.305 6.39502 127.965 6.39502C128.72 6.39502 129.286 6.5831 129.664 6.86522L129.475 7.89967C129.098 7.52351 128.532 7.42947 127.965 7.42947C127.399 7.42947 126.833 7.71159 126.361 8.18179C125.889 8.652 125.606 9.21624 125.606 9.87453C126.078 9.31028 126.644 9.02816 127.493 9.02816C127.965 9.02816 128.437 9.21624 128.815 9.59241ZM127.871 12.3196C128.154 12.0375 128.343 11.6613 128.343 11.1911C128.343 10.4388 127.777 9.96857 127.022 9.96857C126.644 9.96857 126.361 10.0626 126.078 10.3447C125.795 10.5328 125.512 10.8149 125.417 11.1911V11.2851C125.417 11.7553 125.512 12.1315 125.795 12.4136C126.078 12.6958 126.361 12.8838 126.833 12.8838C127.21 12.6958 127.588 12.6017 127.871 12.3196Z" fill="#FAF6F1"/>
<path id="Vector_41" d="M132.966 13.5422L133.721 8.6521H137.59L137.401 9.59251H134.665L134.004 13.5422C134.098 13.5422 132.966 13.5422 132.966 13.5422Z" fill="#FAF6F1"/>
<path id="Vector_42" d="M142.409 9.21664C142.881 9.68684 143.164 10.2511 143.164 11.0034C143.164 11.7557 142.881 12.414 142.409 12.9783C141.843 13.5425 141.182 13.8246 140.427 13.8246C139.672 13.8246 139.106 13.6366 138.634 13.0723C138.162 12.5081 137.785 11.9438 137.785 11.2855C137.785 10.5332 138.068 9.87492 138.54 9.40472C139.106 8.84047 139.767 8.55835 140.522 8.55835C141.276 8.55835 141.937 8.74643 142.409 9.21664ZM141.56 12.2259C141.937 11.8498 142.031 11.4736 142.031 10.9094C142.031 10.063 141.465 9.40472 140.522 9.40472C140.05 9.40472 139.672 9.5928 139.295 9.96896C138.917 10.3451 138.823 10.7213 138.823 11.2855C138.823 12.1319 139.389 12.7902 140.333 12.7902C140.805 12.7902 141.277 12.6021 141.56 12.2259Z" fill="#FAF6F1"/>
<path id="Vector_43" d="M143.066 14.9528L143.443 12.6959H144.104C144.67 12.0376 145.048 11.0031 145.331 9.49847L145.52 8.6521H149.483L148.823 12.6018H149.672L149.295 14.8588H148.162L148.351 13.5422H144.293L144.104 14.8588L143.066 14.9528ZM147.596 12.6018L148.068 9.59251H146.18C145.991 10.9091 145.614 11.8495 145.142 12.6018H147.596Z" fill="#FAF6F1"/>
<path id="Vector_44" d="M155.994 8.65239L152.879 14.2008C152.313 15.2352 151.652 15.6114 150.709 15.6114C150.331 15.6114 150.142 15.5174 149.859 15.4233L150.048 14.4829C150.237 14.577 150.52 14.671 150.709 14.671C151.275 14.671 151.747 14.2948 152.219 13.3544L150.709 8.55835H151.841L152.879 12.2259L154.861 8.65239H155.994Z" fill="#FAF6F1"/>
</g>
</g>
</g>
<defs>
<clipPath id="clip0_169_1793">
<rect width="156" height="115.2" fill="white"/>
</clipPath>
</defs>
</svg>
