<svg width="127" height="37" viewBox="0 0 127 37" fill="none" xmlns="http://www.w3.org/2000/svg">
<g id="&#209;&#134;&#208;&#181;&#208;&#189;&#209;&#130;&#209;&#128; &#209;&#133;&#208;&#190;&#208;&#187;&#208;&#190;&#208;&#186;&#208;&#190;&#209;&#129;&#209;&#130; 1" clip-path="url(#clip0_295_6772)">
<g id="Layer 1">
<g id="Group">
<g id="Group_2">
<path id="Vector" d="M1.74561 13.3605V8.41479H3.22101V12.1934H4.286V8.41479H5.76141V12.1934H6.34152V14.3995H5.38563L5.26268 13.3588H1.74561V13.3605Z" fill="white"/>
<path id="Vector_2" d="M10.4665 12.1795V13.3605H6.74512V8.41479H10.4665V9.55598H8.23437V10.2729H10.0388V11.3708H8.23437V12.1795H10.4665Z" fill="white"/>
<path id="Vector_3" d="M15.3343 8.41479V13.3605H13.8157V11.4366H12.6554V13.3605H11.1367V8.41479H12.6554V10.2331H13.8157V8.41479H15.3343Z" fill="white"/>
<path id="Vector_4" d="M18.2845 9.59927V13.3605H16.8455V9.59927H15.8203V8.41479H19.3097V9.59927H18.2845Z" fill="white"/>
<path id="Vector_5" d="M21.3578 11.563V13.3605H19.8184V8.41479H21.931C22.4575 8.41479 22.8575 8.4754 23.1328 8.59662C23.4064 8.71784 23.6246 8.90313 23.7857 9.15077C23.9467 9.40013 24.0264 9.67893 24.0264 9.98717C24.0264 10.4582 23.8619 10.8392 23.5328 11.1284C23.2038 11.4176 22.7657 11.563 22.2168 11.563H21.3578ZM21.3353 10.5015H21.8427C22.2895 10.5015 22.5129 10.337 22.5129 10.008C22.5129 9.69798 22.3068 9.54386 21.8929 9.54386H21.3353V10.4998V10.5015Z" fill="white"/>
</g>
<g id="Group_3">
<path id="Vector_6" d="M73.9751 8.22279C71.6771 8.12408 69.3687 8.12235 67.0812 7.89723C65.4153 7.73272 63.7373 7.41063 62.1407 6.91709C60.0401 6.26598 57.7664 7.34655 57.3698 9.76227C57.1724 10.9641 57.1326 12.1936 57.0754 13.4144C57.0425 14.1331 56.8953 14.4101 56.3291 14.4898C55.9273 14.5452 55.6762 14.4101 55.5827 14.0049C55.1308 12.0343 54.6597 10.0619 54.8104 8.01845C54.8433 7.57167 54.9247 7.10238 55.103 6.6937C56.5784 3.32556 59.7111 0.329725 64.4005 0.340115C68.0925 0.348773 71.7169 0.85616 75.3379 1.45533C79.7035 2.17744 84.0743 2.85107 88.4936 3.12988C92.7293 3.39656 96.9702 3.76714 101.208 3.77407C106.727 3.78273 112.225 3.29785 117.619 1.99735C117.894 1.93154 118.185 1.93327 118.467 1.90384C118.493 1.96271 118.518 2.01986 118.544 2.07874C118.315 2.23805 118.106 2.44066 117.854 2.54976C115.929 3.38963 114.021 4.28145 112.057 5.02262C105.61 7.45565 99.0535 9.54061 92.2947 10.9416C88.9681 11.6325 85.6034 12.081 82.2093 12.1953C79.2966 12.294 76.3769 12.3563 73.4642 12.2853C70.9896 12.2247 68.5185 11.9442 66.0456 11.771C64.9581 11.6948 63.8672 11.6412 62.7779 11.5875C61.9363 11.5459 61.2177 11.8524 60.6306 12.4412C60.1267 12.9451 59.6695 13.4958 59.1552 13.9911C59.0305 14.1106 58.7344 14.1764 58.5768 14.114C58.2963 14.0032 57.969 13.8162 58.1595 13.4006C58.5734 12.5001 58.937 11.5702 59.4357 10.7199C59.9068 9.91812 60.7692 9.68088 61.6489 9.65837C62.8195 9.62893 63.9936 9.71378 65.1625 9.66183C67.0431 9.57698 68.9306 9.50598 70.7939 9.26354C71.8936 9.12154 72.9516 8.65918 74.0287 8.34228L73.9699 8.22279H73.9751Z" fill="white"/>
<path id="Vector_7" d="M22.3639 35.3361C19.0893 35.2218 16.5402 34.2659 14.4327 32.2485C13.3019 31.1645 12.443 29.8674 12.0568 28.3557C11.8179 27.4223 11.7954 26.4144 11.8023 25.4412C11.8109 24.229 11.8213 22.9874 12.0759 21.8133C12.2647 20.944 12.7824 20.118 13.2742 19.3491C13.6916 18.6963 14.2267 18.0919 14.8068 17.5759C15.3904 17.0563 16.0986 16.6788 16.7411 16.2234C16.9749 16.0572 17.1498 15.7957 17.3991 15.6675C17.9446 15.387 18.4988 15.0718 19.0875 14.9471C19.6018 14.838 20.1664 14.9852 20.7084 14.9904C21.5812 14.9974 22.4557 14.9506 23.3267 14.9835C23.7129 14.9974 24.1043 15.1203 24.4766 15.2467C26.1147 15.8026 27.7114 16.4676 28.9305 17.7404C30.4786 19.356 31.3808 21.2574 31.8138 23.5034C32.1999 25.5105 31.7653 27.3132 31.1557 29.1089C30.7245 30.3783 29.7253 31.3411 28.8422 32.3541C27.6802 33.6858 26.1269 34.3473 24.5614 34.9534C23.7718 35.2599 22.8626 35.2582 22.3674 35.3361H22.3639ZM29.4223 25.0862C29.4223 25.0862 29.4223 25.0862 29.424 25.0845C29.424 24.2983 29.4413 23.5104 29.4154 22.7242C29.405 22.4385 29.3322 22.1406 29.2197 21.8757C28.8491 21.0029 28.7694 19.976 27.9053 19.3595C27.8776 19.3405 27.8828 19.2798 27.8568 19.2521C27.2663 18.6027 26.7676 17.8148 26.0576 17.3455C25.1883 16.7689 24.1493 16.4399 23.1622 16.0554C22.9856 15.9862 22.6981 16.1437 22.4834 16.2424C21.9708 16.478 21.4946 16.8607 20.9612 16.9663C19.7802 17.1983 18.7793 17.7802 17.7645 18.3551C17.6641 18.4123 17.5723 18.4919 17.4892 18.575C16.7099 19.3491 15.8787 20.0816 15.1739 20.918C14.6994 21.4791 14.1712 22.1562 14.0743 22.8402C13.8717 24.2689 13.534 25.7287 13.9721 27.1885C14.1106 27.6491 14.128 28.16 14.3288 28.586C14.7185 29.4085 15.1358 30.2328 15.664 30.9705C16.1194 31.606 16.6649 32.2502 17.316 32.6555C18.1559 33.1784 19.1533 33.4434 20.0625 33.8642C20.53 34.0824 20.814 33.9421 21.1517 33.6114C21.4322 33.336 21.7924 33.0849 22.1613 32.9689C23.1605 32.6572 24.1856 32.4321 25.1935 32.1463C25.3667 32.0961 25.5069 31.9178 25.6541 31.7879C26.1667 31.3324 26.6862 30.8822 27.1797 30.4077C27.585 30.0181 27.9798 29.6129 28.3365 29.1799C28.5599 28.9098 28.7365 28.5894 28.8803 28.2673C29.0863 27.8084 29.3253 27.3392 29.4015 26.8508C29.4916 26.2742 29.4223 25.6733 29.4223 25.0845V25.0862Z" fill="white"/>
<path id="Vector_8" d="M87.4185 14.9731C88.4056 14.7324 89.6351 15.1687 90.7867 15.6484C92.4837 16.3532 94.0215 17.3507 94.9704 19.0304C95.2666 19.5569 95.6839 20.0313 95.89 20.5889C96.309 21.7249 96.6952 22.8852 96.9532 24.0645C97.1628 25.0255 97.1264 26.0178 96.7385 26.9772C96.4839 27.6092 96.3627 28.2933 96.167 28.9496C95.8432 30.0353 95.1072 30.8527 94.4475 31.7445C93.6093 32.8771 92.5357 33.613 91.3062 34.1914C90.8784 34.3923 90.4265 34.5412 89.9935 34.7317C88.6255 35.3326 87.2038 35.414 85.7457 35.2062C85.3353 35.1473 84.8885 35.2148 84.511 35.078C83.5326 34.723 82.5611 34.3351 81.6295 33.871C80.6805 33.3983 79.7921 32.7974 79.1739 31.9073C78.6648 31.1748 78.2336 30.3903 77.7331 29.6526C77.1184 28.7435 76.8032 27.7131 76.727 26.6585C76.5365 24.0229 76.7357 21.4773 78.3947 19.2071C79.5532 17.6226 80.9835 16.5593 82.7689 15.7419C84.1976 15.0891 85.6141 15.0233 87.4202 14.9748L87.4185 14.9731ZM86.1024 34.0771C86.215 33.3031 86.7795 32.974 87.5519 32.839C88.2047 32.7247 88.8749 32.6 89.4758 32.3402C90.0628 32.0857 90.5494 31.6077 91.1226 31.3099C92.8526 30.4059 93.7427 28.8734 94.3505 27.1244C94.7765 25.8966 94.6934 24.6325 94.463 23.3908C94.1219 21.5483 93.7842 19.7006 92.198 18.3845C91.8032 18.0572 91.5677 17.5429 90.9997 17.4078C90.901 17.3836 90.8351 17.2416 90.7399 17.174C90.4905 16.9991 90.2498 16.8017 89.9762 16.6719C89.5 16.445 89.0117 16.2355 88.5112 16.071C88.3017 16.0017 87.9917 15.9757 87.8237 16.0813C86.7951 16.7255 85.673 17.1117 84.5214 17.4684C83.0269 17.9291 81.9793 19.0962 80.8502 20.0816C79.9445 20.8712 79.4094 21.9778 79.0198 23.1415C78.5626 24.5112 78.6007 25.8654 78.9003 27.2542C79.1653 28.4872 79.6155 29.6336 80.3965 30.6137C81.1636 31.5731 81.8823 32.6034 83.1637 33.0069C83.73 33.1853 84.2374 33.5438 84.795 33.7637C85.169 33.9109 85.5829 33.9576 86.1042 34.0771H86.1024Z" fill="white"/>
<path id="Vector_9" d="M58.6038 14.7773C58.3285 15.0803 58.0514 15.3817 57.731 15.7332C57.873 15.8319 57.9821 15.96 58.1137 15.9929C59.0454 16.2233 59.8385 16.7462 60.5346 17.3454C61.5615 18.232 62.507 19.2208 63.4335 20.2148C63.998 20.8209 63.6032 22.3015 62.8395 22.6565C62.7599 22.6946 62.6439 22.6877 62.5538 22.6652C62.2075 22.5769 61.4767 21.6088 61.475 21.2504C61.475 21.0322 61.4905 20.814 61.4819 20.5975C61.4767 20.4625 61.4819 20.2824 61.4022 20.201C60.9156 19.7144 60.41 19.2468 59.9043 18.7792C59.674 18.5662 59.4419 18.3498 59.1874 18.168C59.0402 18.0641 58.8012 17.9307 58.6852 17.9844C58.557 18.045 58.4358 18.3186 58.4618 18.4727C58.5259 18.8502 58.6332 19.2347 58.8064 19.5758C59.0229 20.0053 59.2428 20.3793 59.08 20.9092C58.9432 21.3577 59.1302 21.7041 59.6827 21.7855C60.1727 21.8582 60.5537 22.369 60.5295 22.8574C60.5052 23.3475 60.1294 23.5085 59.7311 23.6072C58.7129 23.86 57.6947 24.1111 56.6695 24.3345C56.3058 24.4142 55.9249 24.4557 55.5543 24.4402C54.9655 24.4159 54.6607 23.7787 55.0954 23.3942C55.7985 22.7725 55.7725 22.1768 55.3153 21.4634C55.2166 21.311 55.2218 21.0928 55.1439 20.7499C55.5872 20.9006 55.9093 21.0149 56.2348 21.1205C56.8305 21.3144 56.8738 21.1014 57.1094 20.575C57.5734 19.536 56.9899 18.8156 56.602 18.0086C56.5587 17.9203 56.5206 17.8285 56.4877 17.735C56.1292 16.7307 55.892 16.58 54.8374 16.6406C54.0945 16.6839 53.336 16.6233 52.6104 16.7532C51.7896 16.9021 50.9826 17.1774 50.1982 17.4718C49.8743 17.593 49.7808 17.9186 50.0665 18.2511C50.2276 18.4381 50.328 18.6753 50.548 19.0477C50.0042 19.0477 49.5973 19.1031 49.2094 19.0355C48.4578 18.9057 47.7963 19.0096 47.301 19.6226C46.7884 20.2564 46.2395 20.8746 45.8274 21.5707C45.1122 22.7795 44.9875 24.1839 44.8074 25.5363C44.7399 26.0454 45.0897 26.61 45.2594 27.1468C45.4031 27.604 45.6109 28.0473 45.7009 28.5131C45.8412 29.2421 46.0282 29.9227 46.6326 30.4266C46.7919 30.56 46.9391 30.7626 46.9911 30.9583C47.2577 31.9834 47.9643 32.4873 48.9288 32.8164C49.6665 33.0692 50.3332 33.5177 51.0501 33.8363C51.3272 33.9593 51.658 33.9627 51.9645 34.0199C52.1758 34.0597 52.439 34.0337 52.5862 34.1515C53.2477 34.6814 53.9836 34.574 54.7352 34.5013C55.1127 34.4649 55.208 34.3195 55.1231 33.9593C54.9292 33.1402 55.0036 33.0242 55.8106 32.7765C56.9258 32.4354 58.0445 32.0977 59.1614 31.7635C59.8472 31.5592 60.3355 31.7219 60.545 32.2085C60.7598 32.7038 60.545 33.154 59.9026 33.4883C59.506 33.6961 59.0818 33.8485 58.6956 34.0718C58.5397 34.1619 58.4514 34.3714 58.3389 34.5325C58.1761 34.7645 58.0739 35.1161 57.8522 35.2182C56.3855 35.9057 54.8426 36.2711 53.2096 36.0875C52.9983 36.0633 52.7957 35.9109 52.5879 35.904C52.1307 35.8901 51.6285 35.8209 51.2268 35.9802C50.7835 36.1551 50.5012 36.1049 50.2518 35.7654C49.9644 35.3741 49.6631 35.2217 49.1436 35.3533C48.5219 35.5126 48.231 35.2823 48.0768 34.5636C48.0024 34.219 47.7998 34.1221 47.5573 33.942C46.9599 33.5004 46.4352 32.9618 45.8585 32.4873C45.5815 32.2605 45.2369 32.1168 44.9598 31.8899C44.7225 31.6942 44.3571 31.4293 44.3641 31.2042C44.3866 30.4924 44.0022 30.0457 43.545 29.6352C42.996 29.1417 42.8835 28.6205 43.1986 27.9399C43.3476 27.6161 43.3614 27.2109 43.3597 26.842C43.3597 25.8775 43.2835 24.9129 43.3043 23.9501C43.3129 23.5899 43.4913 23.2297 43.6177 22.8782C43.758 22.492 43.9623 22.1283 44.0801 21.737C44.3831 20.7222 45.0204 19.9256 45.7044 19.1533C45.8343 19.0061 45.9347 18.8329 46.0698 18.6927C46.5322 18.2216 46.9495 17.6831 47.4846 17.3177C48.1132 16.8882 48.4734 16.3237 48.7834 15.6691C49.1886 14.8154 49.2475 14.8085 49.8968 15.4475C50.3332 15.8769 50.8094 15.5895 51.251 15.5444C52.2087 15.4475 53.1559 15.2397 54.1135 15.1427C54.5135 15.1029 54.9309 15.276 55.3378 15.2639C55.7119 15.2535 56.1171 15.1946 56.4461 15.0319C57.1215 14.6959 57.8228 14.6647 58.5224 14.5574C58.5501 14.6266 58.5761 14.6959 58.6038 14.7652V14.7773Z" fill="white"/>
<path id="Vector_10" d="M108.601 35.386C106.568 35.5695 104.911 34.7504 103.257 33.8655C101.584 32.9703 100.564 31.5191 99.5755 29.9692C98.7962 28.7484 98.4966 27.4167 98.3546 26.0591C98.2525 25.0772 98.4654 24.059 98.5763 23.0598C98.7598 21.4216 99.6569 20.128 100.571 18.8085C101.562 17.3798 102.873 16.462 104.435 15.8161C107.037 14.7407 109.654 14.6939 112.288 15.6931C112.761 15.8732 113.116 15.681 113.469 15.3849C114.099 14.8567 115.069 15.0974 115.306 15.8836C115.393 16.1745 115.33 16.6161 115.154 16.8586C114.6 17.624 114 18.3669 113.339 19.0388C112.935 19.4474 112.395 19.728 111.896 20.0345C111.616 20.2059 111.422 20.0605 111.429 19.7488C111.436 19.3799 111.434 18.9903 111.552 18.6491C111.68 18.2751 111.585 18.0933 111.256 17.9495C109.098 17.011 106.92 17.0456 104.823 18.0275C103.752 18.5279 102.852 19.3158 102.107 20.3168C101.501 21.1307 101.049 22.0017 100.765 22.9212C100.462 23.9014 100.377 24.9629 100.31 25.995C100.268 26.634 100.422 27.2903 100.518 27.9328C100.585 28.3899 100.705 28.8125 101.279 28.9198C101.494 28.9596 101.711 29.1259 101.875 29.2869C102.398 29.7943 102.959 30.2792 103.39 30.8593C104.251 32.0144 105.333 32.6828 106.736 33.1001C108.132 33.5157 109.503 33.5608 110.814 33.2006C112.064 32.8577 113.306 32.2603 114.368 31.5139C115.225 30.9113 115.812 29.9259 116.511 29.1034C116.794 28.7726 116.965 28.2358 117.561 28.4938C117.945 28.6618 118.008 29.3146 117.677 29.8203C117.116 30.6792 116.524 31.5174 115.943 32.3624C115.898 32.4265 115.841 32.4871 115.775 32.5304C114.721 33.2075 113.734 34.0595 112.589 34.5063C111.309 35.0033 110 35.6769 108.601 35.3825V35.386Z" fill="white"/>
<path id="Vector_11" d="M5.73085 27.7633C5.38624 28.4144 5.11783 28.9581 4.81478 29.4794C4.66066 29.7426 4.44073 29.9677 4.25717 30.2136C4.13249 30.3816 3.90391 30.5617 3.91257 30.7262C3.96452 31.6388 3.32899 32.2553 2.99304 32.9964C2.8545 33.3012 2.64497 33.5714 2.49258 33.8709C2.25014 34.3454 1.7999 34.4511 1.34793 34.4944C0.96349 34.5307 0.677761 34.1411 0.821491 33.774C1.15744 32.9133 1.53495 32.07 1.90207 31.2232C2.09948 30.7695 2.30209 30.3192 2.51855 29.8759C3.16621 28.5598 3.86754 27.268 4.44766 25.9242C4.64334 25.474 4.67624 24.8557 4.5481 24.3795C4.07535 22.6305 3.49003 20.9109 2.97745 19.1723C2.87528 18.8294 2.90472 18.4467 2.86489 17.9653C3.48311 18.2424 3.79654 18.4848 3.92815 18.9957C4.03379 19.3992 4.32471 19.7524 4.52732 20.1317C4.72127 20.4953 4.8979 20.8694 5.09531 21.2313C5.26502 21.5413 5.45378 21.8391 5.6356 22.1422C5.69448 22.1266 5.75509 22.111 5.81397 22.0954C5.93865 21.7092 6.05641 21.3214 6.18975 20.9386C6.62094 19.7161 7.06598 18.4987 7.48679 17.2726C7.5751 17.0164 7.59761 16.7341 7.62359 16.4622C7.67381 15.9496 7.9301 15.6085 8.43056 15.4838C8.9466 15.3557 9.78301 15.5946 9.83323 15.9791C9.89731 16.4778 9.87652 17.0908 9.63409 17.5047C8.71109 19.084 8.30588 20.8607 7.58376 22.5128C7.37249 22.9976 7.23569 23.5171 7.00711 23.9916C6.63652 24.7622 6.69021 25.4705 7.03308 26.2567C7.63052 27.6265 8.11193 29.0464 8.66088 30.4387C8.94314 31.1522 9.29294 31.8414 9.56655 32.5583C9.71028 32.9376 9.80552 33.3514 9.83323 33.7549C9.86613 34.2519 9.43841 34.6727 8.86695 34.7766C8.38727 34.8632 8.03054 34.6485 7.87988 34.2086C7.44349 32.9445 7.04347 31.6665 6.6244 30.3972C6.35253 29.5763 6.07026 28.759 5.73085 27.7598V27.7633Z" fill="white"/>
<path id="Vector_12" d="M67.3033 32.5117C67.2323 31.9576 67.1302 31.4052 67.0955 30.8476C66.9951 29.2492 66.9051 27.6508 66.841 26.0525C66.7994 25.0152 66.8323 23.9762 66.7908 22.9389C66.7457 21.8012 66.6488 20.6652 66.5864 19.5292C66.5431 18.7205 66.5206 17.9118 66.486 17.1031C66.4721 16.7706 66.3942 16.4277 66.4513 16.1074C66.5501 15.548 67.1891 15.1411 67.693 15.2519C68.2939 15.3835 68.6021 15.974 68.5605 16.6026C68.4307 18.6079 68.3545 20.6167 68.2592 22.6237C68.3493 22.6618 68.4376 22.6982 68.5277 22.7363C68.8809 22.2809 69.2584 21.8393 69.584 21.3648C70.1156 20.5925 70.6213 19.7993 71.1269 19.0097C71.3711 18.627 71.5443 18.1871 71.8421 17.8564C72.0326 17.6451 72.3911 17.5862 72.6751 17.4581C72.7166 17.7888 72.8985 18.1871 72.7755 18.4382C72.0863 19.8548 71.3226 21.2332 70.5901 22.6289C70.2819 23.216 69.8784 23.7857 69.7346 24.4126C69.6515 24.778 69.939 25.2802 70.1658 25.6542C70.6784 26.4975 71.2031 27.3443 71.8231 28.108C72.8534 29.3773 73.5253 30.8579 74.3946 32.2208C74.4985 32.3836 74.6579 32.5083 74.7929 32.652C75.2155 33.1022 75.2189 33.8849 74.7999 34.2728C74.3358 34.7023 73.6483 34.6902 73.2292 34.1863C72.985 33.8919 72.8275 33.5248 72.6456 33.1819C72.5071 32.9221 72.3911 32.652 72.2664 32.3853C71.8802 31.5576 71.5044 30.7263 71.1079 29.9038C70.7252 29.1141 70.3078 28.3418 69.9303 27.5521C69.752 27.1798 69.6429 26.7763 69.4697 26.4023C69.3848 26.2205 69.2255 26.0733 69.0991 25.9105C68.9415 26.0698 68.7337 26.2031 68.6333 26.3936C68.1363 27.3409 68.0064 28.3695 67.9562 29.4293C67.9112 30.3661 67.7363 31.2961 67.6047 32.2277C67.5908 32.3299 67.4938 32.4199 67.4349 32.5152C67.3899 32.5152 67.3449 32.5134 67.2999 32.5117H67.3033Z" fill="white"/>
<path id="Vector_13" d="M123.024 18.251C123.14 18.7515 123.292 19.2468 123.363 19.7541C123.474 20.5542 123.564 21.3612 123.604 22.1681C123.709 24.3206 123.779 26.4731 123.872 28.6256C123.936 30.1253 124.085 31.6232 124.066 33.1211C124.049 34.4943 123.619 35.0744 122.428 34.6831C121.986 34.5376 121.827 34.2103 121.827 33.7722C121.825 32.6276 121.784 31.4829 121.82 30.34C121.886 28.3468 121.997 26.3554 122.097 24.3656C122.128 23.7544 122.206 23.1448 122.237 22.5352C122.289 21.5101 122.286 20.4815 122.381 19.4615C122.421 19.0407 122.655 18.6389 122.802 18.2285C122.876 18.2372 122.951 18.2458 123.025 18.2528L123.024 18.251Z" fill="white"/>
<path id="Vector_14" d="M34.1763 30.2309C34.436 28.6446 34.6958 27.0567 34.9555 25.4704C34.9832 25.2955 35.0352 25.1172 35.0231 24.944C34.9053 23.3837 35.2846 21.8841 35.5426 20.3671C35.6482 19.7472 35.6638 19.1134 35.7469 18.4882C35.8525 17.6795 35.9218 16.8587 36.1227 16.0742C36.2907 15.4197 37.0855 15.1461 37.7366 15.4075C38.3531 15.6552 38.6492 16.3478 38.4709 16.9643C37.87 19.0424 37.1998 21.0979 36.8465 23.2487C36.5435 25.0894 36.0067 26.8921 35.5997 28.7156C35.4664 29.3096 35.4629 29.933 35.3071 30.52C35.2205 30.8473 34.9469 31.1244 34.7581 31.4223C34.6023 31.0898 34.4429 30.7607 34.294 30.4248C34.2732 30.3763 34.2975 30.3088 34.3009 30.2482C34.2594 30.2412 34.2178 30.2343 34.178 30.2291L34.1763 30.2309Z" fill="white"/>
<path id="Vector_15" d="M42.3783 33.4485C42.3316 33.6441 42.3402 33.9004 42.219 34.0563C42.0025 34.3351 41.7289 34.7143 41.438 34.7542C41.1453 34.794 40.6414 34.5515 40.5133 34.2935C40.2223 33.7065 40.0319 33.045 39.9349 32.3939C39.7011 30.8163 39.5349 29.2266 39.36 27.6403C39.2665 26.797 39.2509 25.9433 39.1297 25.1034C38.9859 24.1112 38.7192 23.1362 38.5946 22.1439C38.4751 21.1915 38.4526 20.2235 38.4249 19.2624C38.4214 19.1169 38.6153 18.9663 38.7175 18.8191C38.856 18.9403 39.076 19.0373 39.1193 19.1862C39.4258 20.2218 39.734 21.2608 39.9695 22.3154C40.1964 23.3319 40.3072 24.3726 40.5219 25.3909C40.728 26.371 41.0155 27.3321 41.2423 28.3088C41.606 29.8777 41.9506 31.4501 42.3004 33.0225C42.3298 33.1575 42.3489 33.2943 42.3783 33.4519V33.4485Z" fill="white"/>
<path id="Vector_16" d="M126.782 15.6707C126.165 15.8248 125.557 16.043 124.932 16.1174C123.564 16.2819 122.189 16.3841 120.814 16.488C120.31 16.5261 119.794 16.5417 119.295 16.4776C118.792 16.4118 118.565 15.9945 118.57 15.5304C118.573 15.0975 118.835 14.7615 119.304 14.7494C120.087 14.7303 120.873 14.7286 121.654 14.7788C122.991 14.8654 124.324 14.9866 125.658 15.12C126.034 15.1581 126.401 15.2862 126.773 15.3745C126.776 15.4732 126.78 15.5719 126.783 15.6707H126.782Z" fill="white"/>
<path id="Vector_17" d="M55.0444 26.2913C54.9994 25.9034 55.1777 25.6003 55.5899 25.4583C56.7259 25.0687 57.8532 24.6445 59.0082 24.3154C59.8845 24.0661 60.4854 24.5371 60.4854 25.3423C60.4854 25.796 60.2949 26.0783 59.836 26.2012C58.5753 26.5407 57.3198 26.9043 56.0609 27.2541C55.5379 27.3996 55.0531 26.958 55.0444 26.2896V26.2913Z" fill="white"/>
<path id="Vector_18" d="M59.5591 29.2941C60.1185 29.1885 60.4181 29.4431 60.5531 29.9349C60.6674 30.3505 60.3003 30.96 59.8327 31.0968C58.7175 31.4207 57.5954 31.7272 56.4715 32.0181C56.2516 32.0752 55.9936 32.0683 55.7702 32.0181C55.4169 31.9367 54.8818 31.8744 54.9701 31.412C55.0481 31.0016 55.3511 30.4249 55.6871 30.3124C56.9495 29.8864 58.2638 29.6214 59.5609 29.2959L59.5591 29.2941Z" fill="white"/>
<path id="Vector_19" d="M60.4794 27.6386C60.4794 28.2517 60.0794 28.7123 59.4629 28.8422C58.4395 29.0604 57.4178 29.2838 56.4013 29.5227C55.4593 29.7444 54.9917 29.5019 55.0627 28.7331C55.0869 28.4699 55.3051 28.075 55.5233 28.004C56.8706 27.5573 58.2369 27.1607 59.6101 26.7988C60.1331 26.662 60.4777 27.0447 60.4794 27.6369V27.6386Z" fill="white"/>
</g>
</g>
</g>
</g>
<defs>
<clipPath id="clip0_295_6772">
<rect width="125.996" height="35.8063" fill="white" transform="translate(0.796875 0.339844)"/>
</clipPath>
</defs>
</svg>
