<svg width="159" height="145" viewBox="0 0 159 145" fill="none" xmlns="http://www.w3.org/2000/svg">
<g id="&#209;&#128;&#209;&#131;&#208;&#186;&#208;&#184; &#209;&#132;&#208;&#184;&#208;&#189;&#208;&#176;&#208;&#187;">
<g id="&#209;&#128;&#209;&#131;&#208;&#186;&#208;&#184;">
<path id="Vector" d="M46.9813 79.7339C46.8869 79.6911 46.7925 79.6484 46.696 79.5936C46.7643 79.6293 46.8185 79.6554 46.8869 79.6911C46.915 79.7102 46.9531 79.7148 46.9813 79.7339Z" stroke="white" stroke-width="0.938535" stroke-miterlimit="10"/>
<path id="Vector_2" d="M61.426 91.6508L61.4091 91.6644C60.2224 90.9041 59.4504 90.1834 59.0997 89.4843C58.9153 89.117 58.851 88.7629 58.8969 88.4032C58.9435 88.0381 59.1098 87.6212 59.4596 87.142C60.1112 86.2497 61.1218 85.8341 62.2083 85.7338C63.3004 85.6329 64.3814 85.8623 65.0367 86.1613L65.0377 86.1617C65.3139 86.2871 65.7642 86.5468 66.385 86.9047C66.5227 86.9841 66.6688 87.0684 66.8232 87.157C67.6536 87.6338 68.6837 88.2137 69.8326 88.7812C72.117 89.9094 74.9296 91.0187 77.6327 91.1459L77.6329 91.1459C79.0137 91.2104 79.9231 91.2111 80.4804 91.1656C80.7438 91.1442 80.9927 91.1084 81.1817 91.0321C81.2624 90.9996 81.4543 90.9135 81.5784 90.7075C81.6504 90.588 81.6883 90.4451 81.6763 90.2963C81.6651 90.157 81.6133 90.0499 81.5672 89.9794C81.5583 89.9657 81.5429 89.9364 81.5031 89.8558L81.4995 89.8486C81.4675 89.7837 81.4203 89.688 81.3644 89.5976C81.309 89.508 81.2173 89.3767 81.0778 89.2741C80.9209 89.1587 80.6966 89.077 80.4322 89.1324C80.2354 89.1737 78.2666 89.5614 75.4015 88.6858L75.4 88.6853C73.8148 88.2055 72.0747 87.5384 70.5808 86.8544C69.0664 86.1611 67.8725 85.4806 67.3266 84.9881L61.426 91.6508ZM61.426 91.6508L61.7829 91.8673M61.426 91.6508L61.7829 91.8673M61.7829 91.8673C62.5023 92.3037 63.2006 92.8549 63.8915 93.4002L63.9488 93.4455C64.6686 94.0135 65.3905 94.5798 66.1789 95.0682C67.7363 96.0327 69.5334 96.6807 71.9476 96.3097L72.0079 96.3004M61.7829 91.8673L72.0079 96.3004M72.0079 96.3004L72.0684 96.3034M72.0079 96.3004L72.0684 96.3034M72.0684 96.3034C74.6552 96.4315 76.4535 96.6036 77.6097 96.7447C78.1879 96.8152 78.6056 96.878 78.8812 96.9236C79.019 96.9464 79.1213 96.965 79.1904 96.9781C79.2143 96.9826 79.2341 96.9865 79.2502 96.9897C79.2754 96.9908 79.3131 96.9921 79.3622 96.993C79.4653 96.9949 79.618 96.9951 79.8091 96.9877C80.1922 96.9729 80.7243 96.9278 81.3174 96.8073C82.5176 96.5634 83.8884 96.0276 84.8266 94.8965C85.2358 94.4032 85.4633 93.9801 85.7014 93.5373C85.7461 93.4543 85.7912 93.3705 85.8379 93.2854C86.1384 92.7381 86.4868 92.1844 87.1875 91.636C87.869 91.1026 88.851 90.5989 90.3831 90.0618C91.9186 89.5235 94.0418 88.9398 97.0308 88.2625C102.718 86.9738 105.963 82.9045 108.228 77.5269C109.363 74.8339 110.241 71.8363 111.053 68.7315C111.358 67.5623 111.656 66.3727 111.954 65.1798C112.442 63.2256 112.933 61.2625 113.465 59.3655L113.466 59.3643C115.61 51.7854 118.196 48.3106 120.116 46.0422L120.636 45.4277L121.074 46.0754C121.674 46.9644 122.159 47.7307 122.541 48.3833M72.0684 96.3034L122.541 48.3833M122.541 48.3833C123.012 49.1493 124.052 49.0906 124.483 48.3171C124.483 48.3169 124.483 48.3168 124.483 48.3166L125.008 48.6042C126.14 46.5636 127.947 43.7255 130.501 40.9075M122.541 48.3833L138.936 31.8511M130.501 40.9075L130.061 40.5011C130.061 40.501 130.061 40.501 130.061 40.5009L130.501 40.9075ZM130.501 40.9075C133.97 37.0781 137.826 33.6212 139.698 31.9803M139.698 31.9803L139.175 32.3066C139.09 32.1612 139.01 32.0092 138.936 31.8511M139.698 31.9803C138.183 29.4049 138.673 24.2583 139.167 19.0695C139.727 13.1985 140.291 7.27329 137.962 4.95675C135.647 2.65422 130.474 3.91685 125.327 5.17322C120.719 6.29801 116.131 7.41779 113.633 5.96982L138.936 31.8511M139.698 31.9803L139.31 31.5223C139.193 31.6249 139.068 31.7346 138.936 31.8511M89.5621 79.5328C89.594 79.5709 89.626 79.6091 89.6581 79.6476C90.0952 80.1711 90.5472 80.7216 90.9151 81.1903C91.266 81.6373 91.5851 82.0648 91.7124 82.3153C91.9457 82.7746 92.1642 83.5554 92.0459 84.346C91.9851 84.7521 91.8325 85.1762 91.5316 85.5518C91.2287 85.93 90.8029 86.2245 90.2506 86.4095C89.2518 86.7441 88.3586 86.7913 87.5111 86.4761C86.6827 86.1679 85.9746 85.5409 85.2781 84.6892L85.277 84.6879C84.9217 84.2509 84.5886 83.8814 84.2774 83.5467C84.3481 84.0903 84.325 84.5031 84.2349 84.8257C84.1498 85.1303 84.0066 85.3488 83.8431 85.5053C83.7656 85.5795 83.6932 85.6304 83.6441 85.6628C83.6189 85.6794 83.6056 85.6883 83.5999 85.6919C83.5047 85.7638 83.3582 85.8403 83.2072 85.9059C83.0401 85.9784 82.8238 86.0566 82.5716 86.1178C82.0695 86.2397 81.3993 86.3002 80.6908 86.0876L80.6882 86.0868C80.6004 86.06 80.5146 86.0349 80.4304 86.0102C80.0197 85.89 79.6495 85.7816 79.2993 85.553C78.873 85.2747 78.4872 84.8357 77.915 84.0828L77.912 84.0787C77.5179 83.5506 77.1992 83.0552 76.9851 82.6042C76.8125 82.2405 76.6844 81.8576 76.6734 81.4827C76.5663 81.4932 76.4218 81.5119 76.231 81.5389C76.191 81.5445 76.1496 81.5504 76.107 81.5565C75.8101 81.599 75.4525 81.6501 75.0709 81.6865C74.208 81.7688 73.1346 81.7867 72.1788 81.426L72.177 81.4253C70.9684 80.9645 70.2596 80.6987 69.621 80.6671C69.0448 80.6385 68.4781 80.804 67.5896 81.4073L67.5885 81.408C66.797 81.9433 66.5169 82.6091 66.5169 83.2285C66.5169 83.8766 66.8254 84.5344 67.3261 84.9876L89.5621 79.5328Z" fill="white" stroke="white" stroke-width="1.21888"/>
<path id="Vector_3" d="M95.9463 76.871L96.2631 76.8046C96.745 76.7036 97.2174 76.5265 97.6695 76.2448L97.6695 76.2447L97.6775 76.2399C98.7673 75.5833 99.9902 74.0299 101.421 71.1717C102.839 68.34 104.413 64.3315 106.254 58.9023L106.254 58.902C107.579 54.9986 107.9 51.6785 108.178 48.7114L108.178 48.7102L108.182 48.6668C108.531 45.0066 108.826 41.9109 111.025 39.0524L111.026 39.052C111.727 38.1413 112.426 37.3469 113.074 36.6787L113.076 36.6768C113.102 36.65 113.122 36.6089 113.123 36.5565C113.124 36.5038 113.106 36.4548 113.073 36.4191L113.06 36.4049L113.048 36.3898C107.545 29.509 102.111 24.9432 98.5272 22.3332L98.5271 22.3333L98.52 22.3279C98.4962 22.31 98.4727 22.3046 98.4501 22.3063C98.4269 22.308 98.3955 22.3182 98.3628 22.3481L97.9653 21.8989M95.9463 76.871L97.1254 77.1844C97.4126 77.0757 97.6966 76.9374 97.9745 76.7642C100.488 75.2501 103.138 69.9598 106.825 59.0845C108.177 55.1046 108.503 51.7195 108.78 48.7496C109.134 45.0422 109.42 42.1211 111.498 39.4194C112.185 38.5286 112.867 37.7526 113.499 37.1011C113.795 36.7986 113.805 36.3028 113.523 35.9947C107.982 29.0664 102.509 24.466 98.8909 21.8315C98.6145 21.6235 98.2349 21.6525 97.9653 21.8989M95.9463 76.871C94.2071 77.1038 92.3923 76.3421 91.0728 75.2862L91.0715 75.2852C90.7076 74.9956 90.3704 74.6751 90.0782 74.3563C88.4414 72.5375 86.595 71.9613 81.143 70.3484L81.1422 70.3481C80.2103 70.0739 79.3239 69.791 78.4813 69.522C77.897 69.3355 77.3337 69.1556 76.7909 68.9901C75.7606 68.6759 74.8054 68.4134 74.0274 68.309C74.0278 68.2987 74.0291 68.289 74.0311 68.2802C74.0364 68.2697 74.0463 68.2511 74.0622 68.2232C74.0988 68.1591 74.1583 68.0628 74.2453 67.9397C74.4189 67.6938 74.7 67.3443 75.1233 66.9346C75.9684 66.1167 77.3862 65.0531 79.6584 64.0976C80.8111 63.6134 82.0806 62.668 83.3324 61.5099C84.593 60.3436 85.8729 58.9265 87.0463 57.456C88.2201 55.9849 89.2951 54.4505 90.1438 53.0453C90.9854 51.6519 91.6281 50.3469 91.9065 49.3417C92.4731 47.3331 92.7117 45.3124 92.8066 43.7473L91.681 43.4349C90.7109 45.1309 89.2416 47.0274 87.4494 48.086C87.4487 48.0864 87.4479 48.0869 87.4471 48.0873L86.5252 48.6199L86.5238 48.6208L86.5173 48.6245C83.566 50.3194 79.375 52.7264 76.7233 57.8846L76.7233 57.8847L75.7173 59.8426L75.7163 59.8447L75.6639 59.9475C74.5896 62.0574 73.955 63.3037 73.4179 64.0606C73.1527 64.4343 72.9384 64.6477 72.7416 64.7791C72.5533 64.9048 72.3462 64.979 72.0568 65.0169C71.6003 65.0761 71.2215 64.9473 70.9157 64.6394L70.9114 64.635L70.9114 64.635C70.4216 64.152 70.1071 63.1548 70.2214 61.8006L70.2216 61.7981C70.3458 60.256 70.3478 58.796 70.2568 57.5772C70.1672 56.3784 69.9836 55.3513 69.7026 54.7144L69.2489 53.6863C69.2525 53.688 69.256 53.6898 69.2596 53.6915L69.2649 53.6942L69.2649 53.6941C69.5534 53.8322 69.8397 54.1987 70.0724 54.8724C70.2985 55.5268 70.436 56.3619 70.5102 57.2574C70.6583 59.044 70.5451 60.9465 70.4741 61.8375L71.0775 61.8672M95.9463 76.871L71.4961 63.9316C71.2481 63.6798 70.9838 62.9882 71.0775 61.8672M97.9653 21.8989C96.0682 23.6384 92.3971 26.7878 89.2283 28.2621C87.9268 28.8641 86.4586 29.3363 84.8977 29.8281C80.6934 31.1523 75.922 32.6713 71.7088 37.6814M97.9653 21.8989L98.3636 22.3474C96.4681 24.0855 92.7329 27.298 89.4662 28.8179L89.4649 28.8185C88.1216 29.4398 86.6158 29.9231 85.0604 30.413L85.0603 30.4131C80.8622 31.7354 76.2499 33.2121 72.1646 38.0699M71.7088 37.6814L72.1646 38.0699M71.7088 37.6814C69.8683 39.8725 68.2647 41.479 66.848 42.8983C66.7547 42.9919 66.6621 43.0846 66.5704 43.1766L71.7088 37.6814ZM72.1646 38.0699C70.3059 40.2826 68.6851 41.9063 67.2685 43.3255C67.1745 43.4196 67.0815 43.5129 66.9893 43.6053L66.9884 43.6062L66.9534 43.6412C64.1709 46.4213 62.2255 48.365 60.6329 52.3344M72.1646 38.0699L60.6329 52.3344M60.6329 52.3344C60.6326 52.3351 60.6323 52.3358 60.6321 52.3365L59.801 54.4561L59.8006 54.4572L59.7714 54.5312C58.5182 57.7093 56.9407 61.7096 55.1671 65.2651C54.273 67.0575 53.3224 68.7506 52.33 70.1766C51.3423 71.5957 50.2876 72.7878 49.1747 73.5395L48.8502 73.0327L49.1747 73.5395C47.7189 74.5226 46.6983 75.493 46.106 76.3937C46.0743 76.4436 46.0678 76.4954 46.0732 76.5265L46.0841 76.589L46.0819 76.6528C46.0745 76.8714 46.1576 77.1842 46.3738 77.5324C46.5855 77.8734 46.9019 78.2096 47.2964 78.4728L47.2982 78.474C47.9431 78.9079 49.4191 79.5483 51.681 78.3851L51.6828 78.3842C54.7243 76.8327 59.9327 71.8999 65.1422 62.6602C67.5355 58.4079 68.2795 56.0494 68.5598 54.8559L68.8744 53.5164C68.841 53.5045 68.8105 53.4954 68.7813 53.4888C68.7048 53.4715 68.6757 53.4795 68.6356 53.5021L68.6266 53.5072L68.6173 53.512C68.56 53.5418 68.5317 53.5736 68.5023 53.6399C68.4609 53.7335 68.4343 53.8592 68.3967 54.0809L68.3953 54.0889L68.3938 54.0968L68.3924 54.1038C68.2125 55.0213 67.7576 57.3404 64.8867 62.4505L64.8861 62.4515C59.7976 71.4699 54.7077 76.4322 51.5456 78.0553L51.5418 78.0572C49.4933 79.0909 48.1069 78.6285 47.4069 78.1579C46.8434 77.7817 46.5114 77.2872 46.3979 76.8517L46.3228 76.5638L46.5035 76.3198C47.1179 75.4901 48.0659 74.6499 49.3041 73.8182C50.333 73.1251 51.3641 72.0083 52.3793 70.5805C53.3908 69.158 54.3641 67.4588 55.2867 65.6342C57.1182 62.0123 58.7235 57.9501 60.0184 54.6734L60.0495 54.5948L60.0495 54.5947L60.8845 52.4827L60.886 52.479C62.4696 48.5458 64.4832 46.5414 67.1458 43.891L67.1748 43.8621C67.1751 43.8619 67.1753 43.8617 67.1755 43.8615C67.2474 43.7896 67.3198 43.7172 67.3927 43.6444C68.8452 42.1924 70.4807 40.5575 72.3675 38.3127C76.4019 33.5099 81.0858 32.0255 85.0838 30.7584L85.1367 30.7417C85.1369 30.7416 85.1372 30.7415 85.1374 30.7414C85.2358 30.7099 85.3337 30.6786 85.4311 30.6475C86.9348 30.1672 88.3094 29.7281 89.5697 29.1305L89.5726 29.1292C92.4723 27.7724 95.7098 25.1492 98.0954 23.0072L98.4675 22.6731L98.8564 22.9614C102.339 25.5429 107.325 29.8189 112.376 36.0417L112.877 36.3989L112.406 36.9176C111.892 37.4847 111.354 38.1186 110.816 38.8146C108.581 41.713 108.268 44.8224 107.894 48.6589C107.615 51.5537 107.291 54.9008 105.989 58.7636L105.988 58.7643C105.361 60.6164 104.087 64.3786 102.578 67.9145C101.824 69.6815 101.005 71.4078 100.172 72.8176C99.3554 74.1983 98.467 75.3792 97.5433 75.9348L97.5416 75.9358C96.1462 76.7691 94.7202 76.6551 93.5968 76.288C92.4793 75.923 91.6002 75.2909 91.2106 74.9785L91.2075 74.976C90.8755 74.706 90.5503 74.4175 90.2664 74.096C88.6134 72.2734 87.0414 71.7253 81.1886 69.9954C80.2292 69.7122 79.3368 69.4092 78.5336 69.1365C78.2762 69.0491 78.0279 68.9648 77.7895 68.8853C76.7888 68.5514 75.9803 68.3079 75.3325 68.2251L74.3168 68.0952L74.9506 67.2546C75.3475 66.7282 75.9773 66.2655 76.7575 65.8211C77.5478 65.371 78.5513 64.9076 79.7502 64.4017L79.7505 64.4016C80.8506 63.938 82.115 63.0325 83.4265 61.8336C84.731 60.6411 86.0513 59.1871 87.2641 57.663C89.709 54.5908 91.6412 51.3305 92.1666 49.43L92.1668 49.4291C92.6885 47.5525 92.9968 45.3591 93.0907 43.5512C93.1377 42.6472 93.1301 41.8562 93.0732 41.26C93.0446 40.9609 93.0051 40.7261 92.9597 40.5571C92.9189 40.4054 92.8857 40.3542 92.8862 40.3522C92.8757 40.3431 92.8516 40.3274 92.8121 40.3178C92.7682 40.3072 92.7362 40.3117 92.7267 40.3142C92.6876 40.3273 92.6579 40.351 92.6249 40.4106C92.5855 40.4818 92.5655 40.5636 92.5514 40.6328L92.5507 40.636C92.419 41.2622 91.8394 42.5958 90.9616 43.9606C90.0771 45.3359 88.8246 46.8468 87.2851 47.7539L87.2823 47.7555L86.3656 48.2894L86.3622 48.2914C83.2422 50.0828 79.123 52.4696 76.4413 57.6932C76.4413 57.6932 76.4413 57.6933 76.4412 57.6934L75.4384 59.6616C74.4991 61.506 73.9042 62.6619 73.4589 63.3746C73.0171 64.0815 72.6313 64.5098 72.0532 64.664L72.0167 64.6737L71.9794 64.6788C71.8316 64.6992 71.6609 64.7 71.4845 64.6431C71.3072 64.5859 71.1668 64.4845 71.0548 64.3656C70.8342 64.1385 70.6707 63.794 70.5712 63.3925C70.4677 62.975 70.4226 62.4537 70.4743 61.8351L71.0775 61.8672M60.6329 52.3344L46.9835 76.6775C47.0555 76.9536 47.29 77.3349 47.7521 77.6431C48.2827 78.0003 49.4408 78.4412 51.286 77.5102C54.2871 75.9697 59.2997 71.1339 64.3629 62.1604C67.1843 57.1384 67.627 54.8798 67.7958 54.0181L67.8001 53.9961C67.8714 53.5761 67.9469 53.1804 68.3547 52.9684C68.745 52.7487 69.0975 52.9218 69.5253 53.1321L69.5378 53.1382C71.5431 54.0978 71.2212 60.0647 71.0775 61.8672M74.0356 68.2639C74.0354 68.2644 74.0352 68.2649 74.0351 68.2655C74.0355 68.2641 74.036 68.2627 74.0365 68.2613L74.0356 68.2639ZM92.8933 40.3593L92.8898 40.3557L92.8933 40.3593Z" fill="white" stroke="white" stroke-width="1.21888"/>
<path id="Vector_4" d="M46.5843 80.1794C46.5843 80.1794 46.6944 80.2581 46.7611 80.2951C46.8162 80.3344 46.8691 80.3615 46.9358 80.3985C46.9358 80.3985 46.9496 80.4083 46.9633 80.4181C47.03 80.4551 47.0829 80.4822 47.1496 80.5191C47.1772 80.5388 47.2142 80.5438 47.2417 80.5635C48.2663 81.0488 49.5261 81.1541 50.4288 80.7998C53.2784 79.7198 54.7161 76.1359 59.5483 74.1192C64.1564 72.2003 66.8797 72.1265 67.1208 72.127L67.1441 72.1221C67.2262 71.9013 68.1216 69.7035 70.7687 68.9839C71.977 68.6547 73.0185 68.4748 74.2539 68.5089L74.2771 68.504C74.3571 68.271 75.3662 65.7567 79.5779 63.9843C83.9926 62.1314 90.829 53.0658 91.9392 49.0543C93.3018 44.1374 92.8724 39.0358 92.6027 40.3265C92.3331 41.6172 90.2977 45.7842 87.2589 47.5782C84.2201 49.3722 79.4085 51.7154 76.4472 57.4886C73.4975 63.2594 73.0721 64.4173 71.8709 64.5797C70.6697 64.742 70.0645 63.3418 70.2075 61.5305C70.3504 59.7191 70.5137 54.2135 69.0933 53.5311C67.6728 52.8486 69.8081 53.4832 64.8634 62.2674C59.9187 71.0515 54.802 76.2834 51.4374 78.0056C48.1498 79.6863 46.0884 77.6747 46.0175 76.3662C46.0132 76.3417 45.974 76.3244 45.9667 76.3514C45.5511 77.011 45.3913 77.617 45.3996 78.1497C45.4769 78.8715 45.8018 79.6306 46.5886 80.2039L46.5843 80.1794Z" fill="white" stroke="white" stroke-width="0.938535" stroke-linecap="round" stroke-linejoin="round"/>
<path id="Vector_5" d="M89.9744 85.6786C88.1736 86.2817 87.0018 85.7751 85.6713 84.1486C85.6713 84.1486 81.1965 77.3221 77.1104 74.218C76.9326 74.0829 77.1015 73.6181 77.3889 73.6958C78.5344 73.9822 82.827 75.6566 84.5182 76.3426C85.761 76.8468 86.6539 77.462 87.4066 77.9561C87.4066 77.9561 90.6825 81.7321 91.0624 82.4798C91.4424 83.2275 91.7753 85.0756 89.9744 85.6786Z" stroke="white" stroke-width="0.938535" stroke-miterlimit="10"/>
<path id="Vector_6" d="M29.2533 104.742L29.2526 104.743C25.9545 110.134 23.4271 114.047 21.2665 117.026C20.722 117.776 20.4762 118.693 20.593 119.579C22.9603 116.456 25.5328 112.428 28.0645 108.463L28.1965 108.256C30.1883 105.131 32.2343 101.932 34.1355 99.2465C36.0222 96.5814 37.816 94.3477 39.3085 93.2105C44.3414 89.3544 48.4365 85.4059 52.9865 79.9507L52.9867 79.9504C54.9172 77.6389 56.724 76.2456 58.6861 75.2754C60.6253 74.3165 62.6962 73.7831 65.1009 73.1661L65.6139 73.0091L65.6244 73.0059L65.635 73.0031C69.5282 71.9625 73.385 72.4884 77.3938 74.4376C77.4147 74.404 77.4377 74.3715 77.4626 74.3402L77.47 74.331L77.4778 74.322L77.5186 74.2745L77.4782 74.1975L77.4073 74.0621L77.4096 73.9068C77.41 73.8782 77.4117 73.8505 77.4144 73.8236C77.2884 73.7721 77.1267 73.7078 76.9203 73.627C76.6776 73.532 76.3892 73.4204 76.0407 73.2855C75.58 73.1071 75.0143 72.8882 74.3102 72.6132C72.8275 72.0419 70.4209 71.912 67.6826 72.221C64.9632 72.5279 62.001 73.2581 59.4497 74.333L59.2324 73.7682L59.4497 74.333C56.2887 75.6647 54.5496 77.562 52.2264 80.1004L52.2249 80.1021L52.1524 80.1807C50.9636 81.4702 49.578 82.9732 47.789 84.5856C46.553 85.739 45.3938 86.5692 44.2094 87.4174C44.1495 87.4603 44.0894 87.5033 44.0293 87.5464L44.0277 87.5475C42.1361 88.8945 40.2492 90.242 37.9357 92.7168C35.6161 95.1982 32.8537 98.8289 29.2533 104.742Z" fill="white" stroke="white" stroke-width="1.21888"/>
<path id="Vector_7" d="M48.4615 102.424L48.1716 101.895L48.174 101.894L48.4615 102.424ZM55.3309 101.177L55.321 101.79L55.3309 101.177ZM64.4921 99.6597L64.4169 99.0541L64.4921 99.6597ZM23.6365 142.394C23.492 142.704 23.1304 142.845 22.8288 142.708C22.5273 142.571 22.3999 142.209 22.5444 141.9L23.6365 142.394ZM48.174 101.894C49.7914 100.959 50.9244 100.62 52.0259 100.53C52.5625 100.485 53.0781 100.501 53.6053 100.523C54.1384 100.545 54.6897 100.573 55.3409 100.564L55.321 101.79C54.6284 101.8 54.0384 101.77 53.5181 101.748C52.9918 101.726 52.5418 101.714 52.0863 101.752C51.2034 101.824 50.2455 102.089 48.749 102.954L48.174 101.894ZM55.3409 100.564C57.1239 100.536 58.57 100.292 59.9784 99.9882C61.3736 99.6871 62.7922 99.3115 64.4169 99.0541L64.5672 100.265C62.9852 100.516 61.6602 100.871 60.195 101.187C58.743 101.5 57.2119 101.761 55.321 101.79L55.3409 100.564ZM64.4169 99.0541C65.4674 98.8878 66.7499 98.7945 68.1002 98.7109C69.4611 98.6267 70.8972 98.5519 72.2935 98.4245C73.69 98.297 75.0198 98.1191 76.1585 97.8349C77.3089 97.5478 78.1981 97.1677 78.7664 96.6788L79.5335 97.6027C78.7431 98.2826 77.6297 98.7212 76.4133 99.0248C75.1851 99.3313 73.7838 99.5161 72.3645 99.6456C70.9451 99.7751 69.4807 99.8515 68.1362 99.9347C66.7809 100.019 65.5528 100.109 64.5672 100.265L64.4169 99.0541ZM22.5444 141.9C25.9517 134.594 31.2967 125.229 36.2944 117.397C38.7939 113.48 41.2125 109.937 43.2647 107.22C44.2904 105.863 45.23 104.704 46.0463 103.806C46.8498 102.922 47.5754 102.243 48.1716 101.895L48.7514 102.952C48.3344 103.196 47.7192 103.747 46.9255 104.621C46.1447 105.48 45.2309 106.605 44.218 107.946C42.193 110.627 39.7941 114.139 37.3054 118.04C32.3268 125.842 27.0127 135.156 23.6365 142.394L22.5444 141.9Z" fill="white"/>
<path id="Vector_8" d="M37.6568 100.343L37.674 100.316L37.6568 100.343ZM37.6568 100.343L37.6374 100.374L37.6568 100.343Z" fill="white" stroke="white" stroke-width="1.21888"/>
<path id="Vector_9" d="M40.4967 103.924C40.4967 103.924 40.4967 103.924 40.4968 103.924C40.4967 103.924 40.4966 103.924 40.4965 103.924M40.4967 103.924L40.4965 103.924M40.4967 103.924L40.4966 103.924M40.4967 103.924L40.4966 103.924M40.4965 103.924C40.4497 103.934 40.394 103.947 40.3277 103.961M40.4965 103.924L40.3277 103.961M40.3277 103.961L40.3277 103.961L40.4966 103.924M40.3277 103.961L40.4966 103.924M40.1864 103.992L40.3148 103.964L40.3148 103.964C40.2757 103.973 40.233 103.982 40.1864 103.992ZM40.1864 103.992L40.1809 103.994M40.1864 103.992C40.1846 103.993 40.1827 103.993 40.1809 103.994M40.1809 103.994C40.1726 103.996 40.1642 103.997 40.1557 103.999M40.1809 103.994L40.1557 103.999M40.1809 103.994L40.1557 103.999M40.1809 103.994L40.1557 103.999M40.3695 104.125L40.3726 104.12L40.3695 104.125ZM40.3606 104.139L40.3695 104.125L40.3606 104.139Z" fill="white" stroke="white" stroke-width="1.21888"/>
<g id="Vector_10">
<mask id="path-10-inside-1_295_6797" fill="white">
<path d="M36.363 110.603C36.363 110.603 36.4091 110.581 36.4169 110.555L36.6413 110.275C36.7248 110.184 36.7963 110.096 36.8557 110.01C36.9845 109.824 37.0827 109.609 37.1724 109.347C37.2499 109.088 37.2913 108.836 37.2944 108.582C37.2975 108.327 37.2645 108.08 37.1853 107.855C37.1062 107.631 36.9633 107.469 36.7765 107.341C36.6487 107.26 36.5153 107.217 36.3577 107.179C36.2023 107.153 36.0512 107.15 35.8923 107.173C35.7356 107.208 35.591 107.24 35.4429 107.321C35.2947 107.402 35.1729 107.489 35.0695 107.609C35.0778 107.45 35.0838 107.279 35.0779 107.111C35.0697 106.931 35.0496 106.754 35.0173 106.58C34.9851 106.406 34.9189 106.251 34.8285 106.101C34.7502 105.949 34.628 105.831 34.4718 105.732C34.3297 105.643 34.1842 105.602 34.031 105.588C33.8799 105.585 33.721 105.608 33.5686 105.666C33.4162 105.724 33.2801 105.802 33.1484 105.904C33.0166 106.006 32.9132 106.125 32.8241 106.254C32.725 106.397 32.6402 106.549 32.5837 106.719C32.5273 106.888 32.4708 107.058 32.4527 107.232C32.4345 107.405 32.4285 107.576 32.4366 107.756C32.4425 107.924 32.4748 108.098 32.5268 108.244C32.5354 108.29 32.5703 108.343 32.6129 108.37C32.6697 108.406 32.7222 108.419 32.7945 108.403C32.8548 108.389 32.9108 108.353 32.9625 108.293C33.0141 108.233 33.0254 108.158 32.9983 108.079C32.9269 107.829 32.9037 107.568 32.9387 107.282C32.9637 107.01 33.0676 106.757 33.2261 106.528C33.2756 106.457 33.3372 106.383 33.4108 106.306C33.4866 106.241 33.5646 106.187 33.6545 106.131C33.7346 106.089 33.8289 106.056 33.9155 106.049C34.014 106.039 34.095 106.07 34.1802 106.124C34.2228 106.15 34.2654 106.177 34.2818 106.198C34.4126 106.363 34.5094 106.547 34.5601 106.754C34.5966 106.951 34.6353 107.161 34.6258 107.381C34.6162 107.6 34.6045 107.809 34.5709 108.034C34.5372 108.259 34.5113 108.459 34.4854 108.658L34.4622 108.736C34.4622 108.736 34.4453 108.848 34.466 108.892C34.4866 108.936 34.5314 108.975 34.574 109.002C34.6308 109.037 34.6812 109.038 34.7557 109.034C34.8159 109.021 34.8599 108.987 34.9016 108.941L34.9214 108.913L34.9964 108.775C35.0735 108.649 35.1364 108.514 35.1872 108.382C35.2381 108.25 35.3152 108.124 35.3944 108.009C35.456 107.935 35.5176 107.861 35.6054 107.793C35.6812 107.728 35.7734 107.683 35.8797 107.648C35.974 107.615 36.0726 107.605 36.169 107.584C36.2577 107.588 36.3507 107.616 36.4359 107.67C36.6205 107.787 36.7471 107.928 36.8176 108.106C36.8881 108.284 36.9126 108.484 36.9009 108.693C36.875 108.892 36.8272 109.108 36.7389 109.31C36.6527 109.522 36.5381 109.717 36.4192 109.888C36.3895 109.931 36.3477 109.977 36.318 110.02C36.2763 110.065 36.2465 110.108 36.2168 110.151C36.1544 110.153 36.1019 110.14 36.0494 110.128C35.9968 110.115 35.9465 110.114 35.8961 110.113C35.8457 110.112 35.8096 110.12 35.7734 110.128C35.7373 110.136 35.7054 110.167 35.6735 110.199C35.6438 110.241 35.6184 110.308 35.6192 110.38C35.6321 110.45 35.6428 110.508 35.7117 110.541C35.7401 110.559 35.7948 110.583 35.8572 110.582C35.9097 110.594 35.9601 110.595 36.0126 110.608L36.3729 110.589C36.3729 110.589 36.4212 110.578 36.4431 110.561L36.363 110.603Z"/>
</mask>
<path d="M36.363 110.603C36.363 110.603 36.4091 110.581 36.4169 110.555L36.6413 110.275C36.7248 110.184 36.7963 110.096 36.8557 110.01C36.9845 109.824 37.0827 109.609 37.1724 109.347C37.2499 109.088 37.2913 108.836 37.2944 108.582C37.2975 108.327 37.2645 108.08 37.1853 107.855C37.1062 107.631 36.9633 107.469 36.7765 107.341C36.6487 107.26 36.5153 107.217 36.3577 107.179C36.2023 107.153 36.0512 107.15 35.8923 107.173C35.7356 107.208 35.591 107.24 35.4429 107.321C35.2947 107.402 35.1729 107.489 35.0695 107.609C35.0778 107.45 35.0838 107.279 35.0779 107.111C35.0697 106.931 35.0496 106.754 35.0173 106.58C34.9851 106.406 34.9189 106.251 34.8285 106.101C34.7502 105.949 34.628 105.831 34.4718 105.732C34.3297 105.643 34.1842 105.602 34.031 105.588C33.8799 105.585 33.721 105.608 33.5686 105.666C33.4162 105.724 33.2801 105.802 33.1484 105.904C33.0166 106.006 32.9132 106.125 32.8241 106.254C32.725 106.397 32.6402 106.549 32.5837 106.719C32.5273 106.888 32.4708 107.058 32.4527 107.232C32.4345 107.405 32.4285 107.576 32.4366 107.756C32.4425 107.924 32.4748 108.098 32.5268 108.244C32.5354 108.29 32.5703 108.343 32.6129 108.37C32.6697 108.406 32.7222 108.419 32.7945 108.403C32.8548 108.389 32.9108 108.353 32.9625 108.293C33.0141 108.233 33.0254 108.158 32.9983 108.079C32.9269 107.829 32.9037 107.568 32.9387 107.282C32.9637 107.01 33.0676 106.757 33.2261 106.528C33.2756 106.457 33.3372 106.383 33.4108 106.306C33.4866 106.241 33.5646 106.187 33.6545 106.131C33.7346 106.089 33.8289 106.056 33.9155 106.049C34.014 106.039 34.095 106.07 34.1802 106.124C34.2228 106.15 34.2654 106.177 34.2818 106.198C34.4126 106.363 34.5094 106.547 34.5601 106.754C34.5966 106.951 34.6353 107.161 34.6258 107.381C34.6162 107.6 34.6045 107.809 34.5709 108.034C34.5372 108.259 34.5113 108.459 34.4854 108.658L34.4622 108.736C34.4622 108.736 34.4453 108.848 34.466 108.892C34.4866 108.936 34.5314 108.975 34.574 109.002C34.6308 109.037 34.6812 109.038 34.7557 109.034C34.8159 109.021 34.8599 108.987 34.9016 108.941L34.9214 108.913L34.9964 108.775C35.0735 108.649 35.1364 108.514 35.1872 108.382C35.2381 108.25 35.3152 108.124 35.3944 108.009C35.456 107.935 35.5176 107.861 35.6054 107.793C35.6812 107.728 35.7734 107.683 35.8797 107.648C35.974 107.615 36.0726 107.605 36.169 107.584C36.2577 107.588 36.3507 107.616 36.4359 107.67C36.6205 107.787 36.7471 107.928 36.8176 108.106C36.8881 108.284 36.9126 108.484 36.9009 108.693C36.875 108.892 36.8272 109.108 36.7389 109.31C36.6527 109.522 36.5381 109.717 36.4192 109.888C36.3895 109.931 36.3477 109.977 36.318 110.02C36.2763 110.065 36.2465 110.108 36.2168 110.151C36.1544 110.153 36.1019 110.14 36.0494 110.128C35.9968 110.115 35.9465 110.114 35.8961 110.113C35.8457 110.112 35.8096 110.12 35.7734 110.128C35.7373 110.136 35.7054 110.167 35.6735 110.199C35.6438 110.241 35.6184 110.308 35.6192 110.38C35.6321 110.45 35.6428 110.508 35.7117 110.541C35.7401 110.559 35.7948 110.583 35.8572 110.582C35.9097 110.594 35.9601 110.595 36.0126 110.608L36.3729 110.589C36.3729 110.589 36.4212 110.578 36.4431 110.561L36.363 110.603Z" fill="white"/>
<path d="M36.363 110.603L35.8354 109.516L36.8554 111.707L36.363 110.603ZM36.4169 110.555L35.4879 109.799L35.3313 109.994L35.2597 110.233L36.4169 110.555ZM36.6413 110.275L35.7673 109.455L35.7388 109.486L35.7123 109.519L36.6413 110.275ZM37.1724 109.347L38.3144 109.715L38.3224 109.692L38.3295 109.668L37.1724 109.347ZM36.7765 107.341L37.4765 106.318L37.4583 106.305L37.4395 106.293L36.7765 107.341ZM36.3577 107.179L36.6718 105.985L36.6327 105.975L36.593 105.969L36.3577 107.179ZM35.8923 107.173L35.7589 105.959L35.7147 105.965L35.6709 105.975L35.8923 107.173ZM35.0695 107.609L33.861 107.584L33.6818 111.048L35.9689 108.4L35.0695 107.609ZM35.0779 107.111L36.2874 107.028L36.2868 107.016L35.0779 107.111ZM34.8285 106.101L33.7517 106.696L33.7702 106.732L33.7911 106.766L34.8285 106.101ZM34.031 105.588L34.1818 104.366L34.1374 104.362L34.0926 104.361L34.031 105.588ZM32.8241 106.254L33.8069 106.938L32.8241 106.254ZM32.4366 107.756L33.6461 107.672L33.6455 107.66L32.4366 107.756ZM32.5268 108.244L33.7166 107.981L33.6989 107.885L33.6664 107.794L32.5268 108.244ZM32.9983 108.079L31.8347 108.454L31.8436 108.486L31.8542 108.516L32.9983 108.079ZM32.9387 107.282L34.1397 107.394L34.1419 107.375L34.1436 107.357L32.9387 107.282ZM33.4108 106.306L32.6454 105.381L32.5989 105.421L32.5563 105.465L33.4108 106.306ZM33.6545 106.131L33.1269 105.044L33.0846 105.067L33.044 105.092L33.6545 106.131ZM33.9155 106.049L33.9736 107.272L33.9838 107.271L33.9939 107.27L33.9155 106.049ZM34.1802 106.124L34.8432 105.076L34.1802 106.124ZM34.2818 106.198L35.2339 105.41L34.2818 106.198ZM34.5601 106.754L35.7499 106.491L35.7435 106.456L35.7351 106.422L34.5601 106.754ZM34.4854 108.658L35.6426 108.979L35.672 108.881L35.6852 108.78L34.4854 108.658ZM34.4622 108.736L33.305 108.414L33.279 108.501L33.2657 108.59L34.4622 108.736ZM34.7557 109.034L34.7868 110.259L34.8828 110.253L34.9771 110.232L34.7557 109.034ZM34.9016 108.941L35.7756 109.761L35.8347 109.697L35.8846 109.625L34.9016 108.941ZM34.9214 108.913L35.9044 109.596L35.9436 109.539L35.9765 109.479L34.9214 108.913ZM34.9964 108.775L33.9737 108.153L33.9568 108.18L33.9413 108.209L34.9964 108.775ZM35.3944 108.009L34.4792 107.237L34.4434 107.28L34.4116 107.326L35.3944 108.009ZM35.6054 107.793L36.319 108.76L36.3455 108.74L36.3709 108.718L35.6054 107.793ZM35.8797 107.648L36.2258 108.812L36.2334 108.809L36.241 108.806L35.8797 107.648ZM36.169 107.584L36.2694 106.359L36.1074 106.35L35.9476 106.386L36.169 107.584ZM36.4359 107.67L35.7729 108.717L36.4359 107.67ZM36.9009 108.693L38.1007 108.814L38.1066 108.769L38.1092 108.723L36.9009 108.693ZM36.7389 109.31L35.6359 108.841L35.6284 108.858L35.6215 108.875L36.7389 109.31ZM36.4192 109.888L35.4364 109.205L36.4192 109.888ZM36.318 110.02L37.192 110.84L37.251 110.775L37.3009 110.703L36.318 110.02ZM36.2168 110.151L36.2105 111.377L36.8352 111.36L37.1997 110.835L36.2168 110.151ZM35.6735 110.199L34.8466 109.33L34.7599 109.415L34.6907 109.515L35.6735 110.199ZM35.6192 110.38L34.4091 110.434L34.4103 110.54L34.4294 110.643L35.6192 110.38ZM35.7117 110.541L36.3747 109.494L36.3189 109.458L36.2595 109.43L35.7117 110.541ZM35.8572 110.582L36.1713 109.387L36.0201 109.351L35.8635 109.355L35.8572 110.582ZM36.0126 110.608L35.6985 111.802L35.865 111.842L36.0373 111.833L36.0126 110.608ZM36.3729 110.589L36.3976 111.814L36.4969 111.808L36.5945 111.787L36.3729 110.589ZM36.4431 110.561L37.1567 111.528L35.9155 109.475L36.4431 110.561ZM36.363 110.603C36.8554 111.707 36.8556 111.707 36.8558 111.707C36.8559 111.707 36.8561 111.707 36.8562 111.707C36.8565 111.706 36.8568 111.706 36.8571 111.706C36.8577 111.706 36.8583 111.706 36.8589 111.705C36.8601 111.705 36.8613 111.704 36.8625 111.703C36.865 111.702 36.8676 111.701 36.8703 111.7C36.8757 111.697 36.8815 111.694 36.8877 111.691C36.9001 111.684 36.9145 111.677 36.9306 111.668C36.961 111.651 37.0057 111.624 37.0567 111.588C37.1037 111.555 37.1831 111.495 37.2669 111.406C37.3408 111.328 37.492 111.15 37.574 110.876L35.2597 110.233C35.3379 109.972 35.4804 109.807 35.5435 109.74C35.6164 109.663 35.6829 109.613 35.7174 109.589C35.7559 109.562 35.7886 109.542 35.8101 109.53C35.8217 109.524 35.8326 109.518 35.8424 109.513C35.8473 109.51 35.8521 109.508 35.8568 109.505C35.8592 109.504 35.8615 109.503 35.8638 109.502C35.865 109.501 35.8661 109.501 35.8673 109.5C35.8678 109.5 35.8684 109.5 35.869 109.499C35.8693 109.499 35.8696 109.499 35.8698 109.499C35.87 109.499 35.8702 109.499 35.8703 109.499C35.8705 109.499 35.8707 109.499 36.363 110.603ZM37.3458 111.31L37.5702 111.031L35.7123 109.519L35.4879 109.799L37.3458 111.31ZM37.5152 111.095C37.6311 110.969 37.7405 110.835 37.8386 110.693L35.8729 109.326C35.852 109.356 35.8185 109.399 35.7673 109.455L37.5152 111.095ZM37.8386 110.693C38.0586 110.376 38.203 110.041 38.3144 109.715L36.0303 108.978C35.9625 109.176 35.9104 109.272 35.8729 109.326L37.8386 110.693ZM38.3295 109.668C38.4371 109.309 38.4999 108.941 38.5046 108.557L36.0843 108.606C36.0828 108.732 36.0628 108.866 36.0152 109.025L38.3295 109.668ZM38.5046 108.557C38.509 108.188 38.4619 107.794 38.3265 107.41L36.0441 108.301C36.067 108.365 36.086 108.465 36.0843 108.606L38.5046 108.557ZM38.3265 107.41C38.1476 106.902 37.8225 106.555 37.4765 106.318L36.0765 108.364C36.0958 108.377 36.0914 108.377 36.0784 108.361C36.072 108.353 36.0649 108.343 36.0583 108.332C36.0517 108.32 36.0471 108.309 36.0441 108.301L38.3265 107.41ZM37.4395 106.293C37.154 106.113 36.8772 106.034 36.6718 105.985L36.0436 108.374C36.0994 108.387 36.1226 108.395 36.1309 108.398C36.1356 108.399 36.1269 108.396 36.1135 108.388L37.4395 106.293ZM36.593 105.969C36.3223 105.923 36.0468 105.917 35.7589 105.959L36.0258 108.387C36.0556 108.383 36.0823 108.383 36.1224 108.39L36.593 105.969ZM35.6709 105.975C35.5321 106.005 35.22 106.067 34.8942 106.246L35.9916 108.396C35.9731 108.406 35.9631 108.408 35.9761 108.404C35.984 108.402 35.9975 108.398 36.0208 108.392C36.0456 108.387 36.0726 108.38 36.1138 108.371L35.6709 105.975ZM34.8942 106.246C34.6649 106.371 34.4052 106.546 34.1702 106.818L35.9689 108.4C35.9636 108.407 35.9581 108.412 35.9531 108.417C35.9482 108.421 35.945 108.424 35.9445 108.424C35.9441 108.425 35.9561 108.415 35.9916 108.396L34.8942 106.246ZM36.2781 107.634C36.2869 107.464 36.2952 107.251 36.2873 107.028L33.8684 107.194C33.8725 107.308 33.8687 107.436 33.861 107.584L36.2781 107.634ZM36.2868 107.016C36.2762 106.78 36.2497 106.547 36.2071 106.317L33.8276 106.843C33.8495 106.962 33.8633 107.083 33.8689 107.206L36.2868 107.016ZM36.2071 106.317C36.1427 105.968 36.0125 105.678 35.8659 105.436L33.7911 106.766C33.8091 106.796 33.8179 106.815 33.8221 106.826C33.8261 106.836 33.8271 106.84 33.8276 106.843L36.2071 106.317ZM35.9053 105.507C35.7062 105.12 35.4138 104.861 35.1347 104.685L33.8088 106.78C33.8263 106.791 33.8226 106.791 33.8087 106.777C33.7934 106.761 33.7713 106.734 33.7517 106.696L35.9053 105.507ZM35.1347 104.685C34.8102 104.48 34.4811 104.395 34.1818 104.366L33.8801 106.809C33.8887 106.81 33.8803 106.81 33.8623 106.804C33.8431 106.798 33.824 106.789 33.8088 106.78L35.1347 104.685ZM34.0926 104.361C33.8077 104.356 33.4924 104.398 33.1761 104.519L33.9611 106.813C33.9548 106.815 33.9524 106.816 33.9544 106.815C33.9566 106.815 33.9618 106.814 33.9693 106.814L34.0926 104.361ZM33.1761 104.519C32.8988 104.624 32.6556 104.766 32.4348 104.937L33.8619 106.871C33.9046 106.838 33.9336 106.823 33.9611 106.813L33.1761 104.519ZM32.4348 104.937C32.173 105.139 31.9833 105.365 31.8412 105.57L33.8069 106.938C33.8432 106.885 33.8602 106.872 33.8619 106.871L32.4348 104.937ZM31.8412 105.57C31.6957 105.78 31.5439 106.042 31.4381 106.361L33.7293 107.077C33.7364 107.055 33.7544 107.013 33.8069 106.938L31.8412 105.57ZM31.4381 106.361C31.3898 106.506 31.2841 106.808 31.2492 107.141L33.6561 107.322C33.6558 107.326 33.657 107.311 33.669 107.267C33.682 107.22 33.6993 107.167 33.7293 107.077L31.4381 106.361ZM31.2492 107.141C31.225 107.373 31.2165 107.606 31.2276 107.851L33.6455 107.66C33.6404 107.546 33.6441 107.438 33.6561 107.322L31.2492 107.141ZM31.2271 107.839C31.2372 108.123 31.2903 108.422 31.3872 108.694L33.6664 107.794C33.6592 107.774 33.6479 107.724 33.646 107.672L31.2271 107.839ZM31.337 108.507C31.4068 108.885 31.635 109.219 31.9499 109.418L33.2759 107.323C33.4139 107.41 33.5046 107.513 33.5626 107.599C33.6196 107.684 33.685 107.81 33.7166 107.981L31.337 108.507ZM31.9499 109.418C32.2371 109.599 32.6029 109.692 33.016 109.601L32.5731 107.204C32.6693 107.183 32.8049 107.17 32.9601 107.2C33.1112 107.229 33.219 107.287 33.2759 107.323L31.9499 109.418ZM33.016 109.601C33.3993 109.516 33.679 109.296 33.8618 109.084L32.0631 107.502C32.1426 107.41 32.3103 107.262 32.5731 107.204L33.016 109.601ZM33.8618 109.084C34.2519 108.632 34.2902 108.072 34.1424 107.642L31.8542 108.516C31.8129 108.396 31.7839 108.228 31.816 108.031C31.8491 107.828 31.9394 107.645 32.0631 107.502L33.8618 109.084ZM34.1618 107.704C34.1346 107.609 34.1251 107.513 34.1397 107.394L31.7377 107.169C31.6824 107.622 31.7192 108.049 31.8347 108.454L34.1618 107.704ZM34.1436 107.357C34.1454 107.337 34.1541 107.291 34.2089 107.212L32.2432 105.845C31.981 106.223 31.7821 106.682 31.7337 107.206L34.1436 107.357ZM34.2089 107.212C34.2124 107.207 34.2285 107.185 34.2653 107.146L32.5563 105.465C32.4458 105.58 32.3388 105.707 32.2432 105.845L34.2089 107.212ZM34.1762 107.231C34.184 107.224 34.2027 107.209 34.2651 107.17L33.044 105.092C32.9264 105.165 32.7892 105.257 32.6454 105.381L34.1762 107.231ZM34.1821 107.217C34.1647 107.226 34.1436 107.236 34.1164 107.245C34.0909 107.253 34.0423 107.266 33.9736 107.272L33.8573 104.826C33.5623 104.85 33.3063 104.951 33.1269 105.044L34.1821 107.217ZM33.9939 107.27C33.8799 107.281 33.7688 107.268 33.6713 107.239C33.5826 107.212 33.5278 107.178 33.5172 107.171L34.8432 105.076C34.6371 104.946 34.2946 104.783 33.837 104.828L33.9939 107.27ZM33.5172 107.171C33.545 107.189 33.5403 107.186 33.5304 107.179C33.524 107.174 33.5033 107.16 33.4761 107.137C33.4619 107.125 33.4419 107.108 33.4188 107.085C33.3964 107.063 33.3645 107.03 33.3296 106.986L35.2339 105.41C35.1111 105.255 34.9708 105.161 34.9512 105.147C34.9052 105.115 34.858 105.086 34.8432 105.076L33.5172 107.171ZM33.3296 106.986C33.3697 107.036 33.381 107.069 33.3851 107.086L35.7351 106.422C35.6378 106.025 35.4554 105.689 35.2339 105.41L33.3296 106.986ZM33.3703 107.017C33.3895 107.121 33.4016 107.188 33.4095 107.251C33.4168 107.31 33.4176 107.345 33.4167 107.366L35.8348 107.395C35.8514 107.013 35.7829 106.669 35.7499 106.491L33.3703 107.017ZM33.4167 107.366C33.4075 107.579 33.3978 107.732 33.3744 107.889L35.7673 108.18C35.8113 107.885 35.825 107.622 35.8348 107.395L33.4167 107.366ZM33.3744 107.889C33.3388 108.127 33.3114 108.338 33.2856 108.536L35.6852 108.78C35.7112 108.579 35.7357 108.391 35.7673 108.18L33.3744 107.889ZM33.3282 108.337L33.305 108.414L35.6194 109.057L35.6426 108.979L33.3282 108.337ZM34.4622 108.736C33.2657 108.59 33.2657 108.59 33.2657 108.591C33.2657 108.591 33.2656 108.591 33.2656 108.591C33.2656 108.591 33.2656 108.591 33.2655 108.591C33.2655 108.592 33.2654 108.592 33.2654 108.593C33.2652 108.594 33.2651 108.594 33.265 108.595C33.2647 108.597 33.2644 108.599 33.2641 108.601C33.2635 108.605 33.2629 108.61 33.2621 108.616C33.2607 108.626 33.2591 108.64 33.2574 108.655C33.2541 108.684 33.25 108.727 33.2476 108.777C33.2453 108.823 33.2433 108.898 33.2503 108.986C33.2553 109.049 33.2722 109.24 33.3707 109.449L35.5612 108.335C35.6495 108.522 35.6607 108.683 35.663 108.712C35.6674 108.767 35.6657 108.806 35.6651 108.818C35.6643 108.835 35.6631 108.847 35.6623 108.853C35.6619 108.857 35.6614 108.861 35.6608 108.866C35.6605 108.868 35.6602 108.87 35.6598 108.873C35.6597 108.874 35.6595 108.876 35.6593 108.877C35.6592 108.878 35.6591 108.878 35.6589 108.879C35.6589 108.879 35.6588 108.88 35.6588 108.88C35.6588 108.88 35.6587 108.881 35.6587 108.881C35.6587 108.881 35.6587 108.881 35.6587 108.881C35.6586 108.881 35.6586 108.881 34.4622 108.736ZM33.3707 109.449C33.534 109.796 33.8035 109.981 33.911 110.049L35.237 107.954C35.2681 107.974 35.3124 108.005 35.3617 108.053C35.4067 108.096 35.4919 108.188 35.5612 108.335L33.3707 109.449ZM33.911 110.049C34.2966 110.292 34.6722 110.265 34.7868 110.259L34.7245 107.809C34.6916 107.811 34.7659 107.804 34.8659 107.818C34.9955 107.837 35.1242 107.883 35.237 107.954L33.911 110.049ZM34.9771 110.232C35.3826 110.143 35.6412 109.907 35.7756 109.761L34.0277 108.121C34.0486 108.099 34.1043 108.041 34.1932 107.981C34.289 107.917 34.4047 107.864 34.5342 107.836L34.9771 110.232ZM35.8846 109.625L35.9044 109.596L33.9384 108.229L33.9186 108.258L35.8846 109.625ZM35.9765 109.479L36.0515 109.341L33.9413 108.209L33.8664 108.346L35.9765 109.479ZM36.0191 109.397C36.1456 109.191 36.241 108.983 36.313 108.795L34.0614 107.969C34.0318 108.046 34.0014 108.107 33.9737 108.153L36.0191 109.397ZM36.313 108.795C36.3101 108.803 36.3115 108.797 36.3231 108.777C36.3345 108.757 36.3516 108.73 36.3773 108.693L34.4116 107.326C34.3092 107.474 34.1659 107.697 34.0614 107.969L36.313 108.795ZM36.3096 108.782C36.3176 108.772 36.3237 108.765 36.3296 108.758C36.3353 108.751 36.3397 108.746 36.3434 108.742C36.347 108.737 36.3496 108.734 36.3513 108.732C36.353 108.731 36.3538 108.73 36.3537 108.73C36.3535 108.73 36.35 108.734 36.3437 108.74C36.3373 108.745 36.329 108.753 36.319 108.76L34.8919 106.826C34.6784 106.991 34.5351 107.169 34.4792 107.237L36.3096 108.782ZM36.3709 108.718C36.2767 108.799 36.2026 108.819 36.2258 108.812L35.5336 106.484C35.3441 106.548 35.0857 106.657 34.84 106.868L36.3709 108.718ZM36.241 108.806C36.2016 108.82 36.1796 108.823 36.2093 108.817C36.2158 108.816 36.2235 108.814 36.2345 108.813C36.2435 108.811 36.2598 108.808 36.2732 108.806C36.3021 108.8 36.344 108.792 36.3905 108.782L35.9476 106.386C35.9459 106.386 35.9392 106.387 35.9196 106.391C35.908 106.393 35.8673 106.4 35.8378 106.406C35.7706 106.419 35.6521 106.443 35.5184 106.489L36.241 108.806ZM36.0686 108.809C35.9554 108.803 35.8552 108.769 35.7729 108.717L37.0989 106.623C36.8462 106.463 36.56 106.374 36.2694 106.359L36.0686 108.809ZM35.7729 108.717C35.7876 108.727 35.7764 108.722 35.7551 108.698C35.7321 108.672 35.709 108.636 35.6925 108.594L37.9427 107.618C37.7623 107.163 37.4477 106.843 37.0989 106.623L35.7729 108.717ZM35.6925 108.594C35.6886 108.585 35.6897 108.584 35.6913 108.595C35.6929 108.606 35.6946 108.629 35.6927 108.662L38.1092 108.723C38.1286 108.377 38.0913 107.993 37.9427 107.618L35.6925 108.594ZM35.7011 108.571C35.6847 108.697 35.6597 108.786 35.6359 108.841L37.8418 109.778C37.9946 109.43 38.0653 109.087 38.1007 108.814L35.7011 108.571ZM35.6215 108.875C35.5802 108.977 35.5179 109.087 35.4364 109.205L37.4021 110.572C37.5583 110.347 37.7251 110.068 37.8562 109.744L35.6215 108.875ZM35.4364 109.205C35.4424 109.196 35.4471 109.19 35.4501 109.186C35.4531 109.182 35.455 109.179 35.4552 109.179C35.4555 109.179 35.4548 109.18 35.4525 109.182C35.4501 109.185 35.4474 109.189 35.4426 109.195C35.4349 109.204 35.4189 109.224 35.4024 109.245C35.3854 109.267 35.3613 109.299 35.3352 109.336L37.3009 110.703C37.2949 110.712 37.2901 110.718 37.2872 110.722C37.2842 110.726 37.2823 110.729 37.282 110.729C37.2818 110.729 37.2825 110.729 37.2847 110.726C37.2872 110.723 37.2899 110.719 37.2947 110.713C37.3023 110.704 37.3183 110.684 37.3349 110.663C37.3519 110.641 37.376 110.61 37.4021 110.572L35.4364 109.205ZM35.4441 109.2C35.3362 109.318 35.2617 109.428 35.234 109.468L37.1997 110.835C37.2035 110.829 37.2064 110.825 37.209 110.821C37.2116 110.817 37.2134 110.815 37.2149 110.813C37.2177 110.809 37.2181 110.808 37.2169 110.81C37.2155 110.812 37.2125 110.816 37.2081 110.821C37.2036 110.827 37.1982 110.833 37.192 110.84L35.4441 109.2ZM36.2231 108.925C36.2834 108.923 36.3313 108.929 36.3598 108.933C36.373 108.936 36.3813 108.937 36.3818 108.937C36.382 108.938 36.381 108.937 36.3779 108.937C36.3744 108.936 36.3705 108.935 36.3635 108.933L35.7353 111.322C35.7773 111.332 35.9712 111.384 36.2105 111.377L36.2231 108.925ZM36.3635 108.933C36.1686 108.886 35.9935 108.887 35.9578 108.886L35.8345 111.34C35.8484 111.34 35.8525 111.34 35.8552 111.34C35.8569 111.34 35.8519 111.34 35.8429 111.339C35.8243 111.338 35.7853 111.334 35.7353 111.322L36.3635 108.933ZM35.9578 108.886C35.7545 108.883 35.598 108.92 35.552 108.93L35.9949 111.326C36.0176 111.321 35.9938 111.327 35.963 111.332C35.925 111.337 35.881 111.341 35.8345 111.34L35.9578 108.886ZM35.552 108.93C35.2848 108.989 35.0982 109.118 35.0083 109.187C34.9214 109.255 34.8508 109.326 34.8466 109.33L36.5004 111.067C36.5282 111.04 36.4894 111.08 36.4355 111.122C36.3785 111.166 36.2258 111.275 35.9949 111.326L35.552 108.93ZM34.6907 109.515C34.5233 109.757 34.405 110.078 34.4091 110.434L36.8294 110.326C36.8307 110.439 36.8118 110.539 36.7843 110.625C36.7574 110.708 36.7165 110.795 36.6564 110.882L34.6907 109.515ZM34.4294 110.643C34.4311 110.652 34.5023 111.334 35.1639 111.652L36.2595 109.43C36.3538 109.475 36.4537 109.542 36.5454 109.636C36.6369 109.731 36.6988 109.83 36.7398 109.917C36.7785 109.999 36.7967 110.067 36.804 110.096C36.8103 110.122 36.8136 110.142 36.809 110.117L34.4294 110.643ZM35.0487 111.588C35.2041 111.687 35.4851 111.818 35.8509 111.808L35.8635 109.355C35.9938 109.352 36.0991 109.375 36.1725 109.399C36.2449 109.422 36.3117 109.454 36.3747 109.494L35.0487 111.588ZM35.5431 111.776C35.5939 111.788 35.6381 111.796 35.6713 111.801C35.7024 111.806 35.7309 111.81 35.7413 111.811C35.7566 111.813 35.7539 111.813 35.7486 111.812C35.7413 111.811 35.723 111.808 35.6985 111.802L36.3267 109.413C36.2759 109.401 36.2317 109.393 36.1985 109.388C36.1674 109.383 36.1389 109.379 36.1286 109.378C36.1132 109.376 36.116 109.376 36.1212 109.377C36.1285 109.378 36.1468 109.381 36.1713 109.387L35.5431 111.776ZM36.0373 111.833L36.3976 111.814L36.3483 109.363L35.988 109.383L36.0373 111.833ZM36.3729 110.589C36.5945 111.787 36.5946 111.787 36.5947 111.787C36.5948 111.787 36.5949 111.787 36.595 111.787C36.5952 111.787 36.5954 111.787 36.5956 111.787C36.596 111.786 36.5963 111.786 36.5967 111.786C36.5975 111.786 36.5983 111.786 36.5991 111.786C36.6008 111.785 36.6025 111.785 36.6043 111.785C36.6079 111.784 36.6119 111.783 36.6162 111.782C36.6247 111.78 36.6347 111.777 36.646 111.774C36.6676 111.769 36.6981 111.76 36.7337 111.749C36.7561 111.742 36.9579 111.682 37.1567 111.528L35.7296 109.594C35.837 109.511 35.9313 109.467 35.9668 109.451C36.0115 109.432 36.047 109.419 36.0659 109.413C36.0867 109.407 36.1038 109.402 36.1157 109.399C36.1221 109.397 36.1282 109.396 36.1339 109.394C36.1369 109.394 36.1398 109.393 36.1427 109.392C36.1441 109.392 36.1456 109.392 36.147 109.391C36.1478 109.391 36.1485 109.391 36.1492 109.391C36.1496 109.391 36.15 109.391 36.1503 109.39C36.1505 109.39 36.1507 109.39 36.1509 109.39C36.151 109.39 36.1511 109.39 36.1512 109.39C36.1513 109.39 36.1514 109.39 36.3729 110.589ZM35.9155 109.475L35.8354 109.516L36.8907 111.689L36.9708 111.647L35.9155 109.475Z" fill="white" mask="url(#path-10-inside-1_295_6797)"/>
</g>
<g id="Vector_11">
<mask id="path-12-inside-2_295_6797" fill="white">
<path d="M34.3905 114.411C34.451 114.398 34.5051 114.349 34.5449 114.292C34.5747 114.249 34.5903 114.197 34.5817 114.15C34.5731 114.104 34.5381 114.051 34.4931 114.012C34.1997 113.652 33.9426 113.284 33.7296 112.882C33.5166 112.48 33.3136 112.063 33.1348 111.641C33.1979 111.506 33.2754 111.38 33.3429 111.268C33.4082 111.144 33.4878 111.029 33.5795 110.912C33.6293 110.84 33.679 110.768 33.743 110.706C33.807 110.643 33.8568 110.571 33.9087 110.511C33.9485 110.454 33.952 110.405 33.9533 110.344C33.9425 110.285 33.9075 110.232 33.8505 110.196C33.7934 110.16 33.7286 110.15 33.6702 110.175C33.6096 110.189 33.5556 110.237 33.5015 110.286C33.4474 110.334 33.3955 110.394 33.3436 110.454C33.2939 110.526 33.2541 110.583 33.2242 110.626C33.1624 110.7 33.1148 110.784 33.065 110.855C33.0174 110.939 32.9677 111.011 32.9201 111.094C32.7763 110.725 32.6324 110.356 32.5029 109.996C32.3733 109.636 32.2295 109.268 32.0779 108.925L31.8709 108.691C31.8709 108.691 31.749 108.645 31.6884 108.659C31.6158 108.675 31.5695 108.697 31.5418 108.752C31.5219 108.78 31.5042 108.821 31.5007 108.87L31.4803 109.032C31.421 109.325 31.3309 109.587 31.2223 109.818C31.1137 110.048 30.9887 110.258 30.8373 110.461C30.6859 110.665 30.5344 110.868 30.3688 111.063C30.2053 111.269 30.0197 111.492 29.8363 111.727C29.8172 111.828 29.8466 111.919 29.93 111.961C29.987 111.997 30.0519 112.007 30.1245 111.991C30.1851 111.977 30.2413 111.941 30.269 111.886C30.2789 111.872 30.2988 111.843 30.3045 111.805C30.468 111.599 30.6237 111.419 30.7794 111.239C30.9352 111.059 31.0766 110.87 31.2181 110.681C31.3275 110.523 31.4448 110.339 31.5478 110.147C31.6507 109.954 31.7516 109.75 31.8338 109.513C31.9612 109.861 32.1029 110.218 32.2281 110.555C32.3555 110.903 32.495 111.248 32.6466 111.591C32.599 111.675 32.5515 111.758 32.5039 111.841C32.4563 111.925 32.3944 111.999 32.3468 112.082C32.2551 112.2 32.1755 112.315 32.0816 112.42C31.9899 112.538 31.9082 112.641 31.8186 112.77C31.7888 112.813 31.7754 112.876 31.7861 112.935C31.7969 112.993 31.8298 113.034 31.8868 113.07C31.9439 113.106 32.0187 113.102 32.0991 113.06C32.1796 113.018 32.2557 112.952 32.3296 112.875C32.4036 112.798 32.4754 112.71 32.5572 112.607C32.6268 112.506 32.6865 112.42 32.7363 112.349C32.7661 112.306 32.786 112.277 32.8159 112.234C32.8336 112.193 32.8635 112.15 32.8834 112.122C33.07 112.518 33.2566 112.913 33.4631 113.281C33.6718 113.659 33.9047 114.033 34.176 114.41C34.1981 114.393 34.2202 114.376 34.2202 114.376L34.24 114.347C34.24 114.347 34.3477 114.384 34.4082 114.371L34.3905 114.411Z"/>
</mask>
<path d="M34.3905 114.411C34.451 114.398 34.5051 114.349 34.5449 114.292C34.5747 114.249 34.5903 114.197 34.5817 114.15C34.5731 114.104 34.5381 114.051 34.4931 114.012C34.1997 113.652 33.9426 113.284 33.7296 112.882C33.5166 112.48 33.3136 112.063 33.1348 111.641C33.1979 111.506 33.2754 111.38 33.3429 111.268C33.4082 111.144 33.4878 111.029 33.5795 110.912C33.6293 110.84 33.679 110.768 33.743 110.706C33.807 110.643 33.8568 110.571 33.9087 110.511C33.9485 110.454 33.952 110.405 33.9533 110.344C33.9425 110.285 33.9075 110.232 33.8505 110.196C33.7934 110.16 33.7286 110.15 33.6702 110.175C33.6096 110.189 33.5556 110.237 33.5015 110.286C33.4474 110.334 33.3955 110.394 33.3436 110.454C33.2939 110.526 33.2541 110.583 33.2242 110.626C33.1624 110.7 33.1148 110.784 33.065 110.855C33.0174 110.939 32.9677 111.011 32.9201 111.094C32.7763 110.725 32.6324 110.356 32.5029 109.996C32.3733 109.636 32.2295 109.268 32.0779 108.925L31.8709 108.691C31.8709 108.691 31.749 108.645 31.6884 108.659C31.6158 108.675 31.5695 108.697 31.5418 108.752C31.5219 108.78 31.5042 108.821 31.5007 108.87L31.4803 109.032C31.421 109.325 31.3309 109.587 31.2223 109.818C31.1137 110.048 30.9887 110.258 30.8373 110.461C30.6859 110.665 30.5344 110.868 30.3688 111.063C30.2053 111.269 30.0197 111.492 29.8363 111.727C29.8172 111.828 29.8466 111.919 29.93 111.961C29.987 111.997 30.0519 112.007 30.1245 111.991C30.1851 111.977 30.2413 111.941 30.269 111.886C30.2789 111.872 30.2988 111.843 30.3045 111.805C30.468 111.599 30.6237 111.419 30.7794 111.239C30.9352 111.059 31.0766 110.87 31.2181 110.681C31.3275 110.523 31.4448 110.339 31.5478 110.147C31.6507 109.954 31.7516 109.75 31.8338 109.513C31.9612 109.861 32.1029 110.218 32.2281 110.555C32.3555 110.903 32.495 111.248 32.6466 111.591C32.599 111.675 32.5515 111.758 32.5039 111.841C32.4563 111.925 32.3944 111.999 32.3468 112.082C32.2551 112.2 32.1755 112.315 32.0816 112.42C31.9899 112.538 31.9082 112.641 31.8186 112.77C31.7888 112.813 31.7754 112.876 31.7861 112.935C31.7969 112.993 31.8298 113.034 31.8868 113.07C31.9439 113.106 32.0187 113.102 32.0991 113.06C32.1796 113.018 32.2557 112.952 32.3296 112.875C32.4036 112.798 32.4754 112.71 32.5572 112.607C32.6268 112.506 32.6865 112.42 32.7363 112.349C32.7661 112.306 32.786 112.277 32.8159 112.234C32.8336 112.193 32.8635 112.15 32.8834 112.122C33.07 112.518 33.2566 112.913 33.4631 113.281C33.6718 113.659 33.9047 114.033 34.176 114.41C34.1981 114.393 34.2202 114.376 34.2202 114.376L34.24 114.347C34.24 114.347 34.3477 114.384 34.4082 114.371L34.3905 114.411Z" fill="white"/>
<path d="M34.3905 114.411L33.2877 113.942L32.3323 116.113L34.6121 115.609L34.3905 114.411ZM34.4931 114.012L33.5501 114.811L33.6153 114.891L33.6935 114.958L34.4931 114.012ZM33.1348 111.641L32.0437 111.146L31.8072 111.653L32.0204 112.156L33.1348 111.641ZM33.3429 111.268L34.3704 111.882L34.389 111.851L34.4059 111.82L33.3429 111.268ZM33.5795 110.912L34.5191 111.654L34.5414 111.626L34.5621 111.596L33.5795 110.912ZM33.9087 110.511L34.8078 111.303L34.8524 111.251L34.8913 111.195L33.9087 110.511ZM33.9533 110.344L35.1633 110.331L35.166 110.205L35.1431 110.081L33.9533 110.344ZM33.6702 110.175L33.8918 111.374L34.0046 111.349L34.1114 111.303L33.6702 110.175ZM33.3436 110.454L32.4446 109.662L32.3999 109.714L32.361 109.77L33.3436 110.454ZM33.2242 110.626L34.1392 111.399L34.1749 111.356L34.2068 111.31L33.2242 110.626ZM33.065 110.855L32.0824 110.171L32.0503 110.218L32.0223 110.267L33.065 110.855ZM32.9201 111.094L31.7926 111.576L32.698 113.898L33.9628 111.683L32.9201 111.094ZM32.0779 108.925L33.185 108.394L33.1106 108.225L32.9895 108.089L32.0779 108.925ZM31.8709 108.691L32.7825 107.855L32.5922 107.641L32.3239 107.54L31.8709 108.691ZM31.5418 108.752L32.5244 109.436L32.5749 109.363L32.6149 109.284L31.5418 108.752ZM31.5007 108.87L32.7012 108.987L32.7055 108.953L32.7079 108.919L31.5007 108.87ZM31.4803 109.032L32.6655 109.243L32.6749 109.196L32.6809 109.149L31.4803 109.032ZM30.3688 111.063L29.4636 110.278L29.4491 110.295L29.4352 110.313L30.3688 111.063ZM29.8363 111.727L28.8967 110.984L28.7049 111.23L28.6476 111.534L29.8363 111.727ZM29.93 111.961L30.5923 110.913L30.5466 110.884L30.4984 110.86L29.93 111.961ZM30.269 111.886L29.2864 111.202L29.2359 111.275L29.1959 111.354L30.269 111.886ZM30.3045 111.805L29.3709 111.055L29.1583 111.323L29.108 111.659L30.3045 111.805ZM31.2181 110.681L32.1739 111.402L32.1876 111.384L32.2007 111.365L31.2181 110.681ZM31.8338 109.513L32.9702 109.054L31.8175 105.904L30.6936 109.138L31.8338 109.513ZM32.2281 110.555L33.3645 110.096L33.3622 110.09L32.2281 110.555ZM32.6466 111.591L33.6893 112.18L34.0047 111.628L33.7537 111.06L32.6466 111.591ZM32.3468 112.082L33.2864 112.825L33.3435 112.752L33.3895 112.671L32.3468 112.082ZM32.0816 112.42L31.1936 111.616L31.1669 111.646L31.1421 111.678L32.0816 112.42ZM32.5572 112.607L33.4908 113.357L33.5163 113.325L33.5398 113.291L32.5572 112.607ZM32.8159 112.234L33.7985 112.918L33.869 112.816L33.9187 112.703L32.8159 112.234ZM32.8834 112.122L33.9785 111.564L33.1023 109.706L31.9008 111.438L32.8834 112.122ZM33.4631 113.281L34.5244 112.657L34.5192 112.648L33.4631 113.281ZM34.176 114.41L33.1904 115.153L33.9006 116.14L34.8893 115.378L34.176 114.41ZM34.2202 114.376L34.9336 115.343L35.0898 115.223L35.2027 115.06L34.2202 114.376ZM34.24 114.347L34.6604 113.184L33.7958 112.887L33.2575 113.663L34.24 114.347ZM34.4082 114.371L35.511 114.84L36.4664 112.669L34.1866 113.173L34.4082 114.371ZM34.6121 115.609C35.1085 115.5 35.4008 115.159 35.5275 114.976L33.5623 113.608C33.5983 113.556 33.6556 113.486 33.7425 113.416C33.829 113.347 33.9716 113.256 34.1689 113.213L34.6121 115.609ZM35.5275 114.976C35.6958 114.734 35.8558 114.343 35.7715 113.887L33.3919 114.413C33.3249 114.051 33.4536 113.764 33.5623 113.608L35.5275 114.976ZM35.7715 113.887C35.6978 113.489 35.4668 113.216 35.2927 113.066L33.6935 114.958C33.6337 114.907 33.5793 114.846 33.5323 114.773C33.4893 114.707 33.4238 114.586 33.3919 114.413L35.7715 113.887ZM35.4361 113.213C35.1778 112.896 34.9681 112.592 34.8001 112.275L32.6592 113.488C32.9171 113.975 33.2215 114.408 33.5501 114.811L35.4361 113.213ZM34.8001 112.275C34.5992 111.896 34.4118 111.511 34.2491 111.127L32.0204 112.156C32.2153 112.616 32.434 113.063 32.6592 113.488L34.8001 112.275ZM34.2258 112.137C34.2546 112.075 34.293 112.011 34.3704 111.882L32.3154 110.653C32.2577 110.748 32.1413 110.937 32.0437 111.146L34.2258 112.137ZM34.4059 111.82C34.4233 111.786 34.4541 111.737 34.5191 111.654L32.64 110.169C32.5215 110.321 32.3931 110.501 32.2799 110.716L34.4059 111.82ZM34.5621 111.596C34.5685 111.587 34.5736 111.579 34.5786 111.572C34.5834 111.565 34.5874 111.56 34.5908 111.555C34.5977 111.545 34.601 111.541 34.6021 111.539C34.6044 111.536 34.5929 111.552 34.5696 111.575L32.9164 109.837C32.7519 109.998 32.6363 110.171 32.5969 110.228L34.5621 111.596ZM34.5696 111.575C34.6546 111.491 34.7196 111.413 34.7562 111.367C34.7696 111.351 34.7961 111.318 34.7988 111.314C34.8086 111.302 34.8101 111.3 34.8078 111.303L33.0096 109.719C32.9814 109.752 32.9571 109.782 32.941 109.802C32.9331 109.812 32.9247 109.823 32.9192 109.829C32.913 109.837 32.9085 109.843 32.9046 109.848C32.8874 109.869 32.8955 109.857 32.9164 109.837L34.5696 111.575ZM34.8913 111.195C35.1567 110.813 35.1609 110.441 35.1633 110.331L32.7433 110.356C32.7427 110.384 32.7415 110.302 32.7649 110.196C32.794 110.065 32.8493 109.938 32.9261 109.827L34.8913 111.195ZM35.1431 110.081C35.0684 109.677 34.8302 109.349 34.5128 109.149L33.1881 111.244C32.9848 111.116 32.8166 110.894 32.7635 110.606L35.1431 110.081ZM34.5128 109.149C34.2106 108.958 33.7351 108.831 33.2289 109.048L34.1114 111.303C33.722 111.47 33.3762 111.362 33.1881 111.244L34.5128 109.149ZM33.4486 108.977C33.1945 109.033 33.0094 109.15 32.9095 109.221C32.8136 109.289 32.7329 109.363 32.717 109.377L34.286 111.194C34.3241 111.16 34.2976 111.185 34.2574 111.214C34.2131 111.246 34.0853 111.331 33.8918 111.374L33.4486 108.977ZM32.717 109.377C32.5905 109.49 32.4839 109.617 32.4446 109.662L34.2427 111.246C34.2562 111.23 34.2661 111.219 34.2755 111.208C34.2846 111.198 34.2909 111.191 34.2954 111.186C34.3057 111.175 34.3012 111.18 34.286 111.194L32.717 109.377ZM32.361 109.77C32.3361 109.806 32.3137 109.838 32.2938 109.867C32.2739 109.895 32.2565 109.92 32.2416 109.942L34.2068 111.31C34.2218 111.289 34.2392 111.264 34.2591 111.235C34.279 111.206 34.3014 111.174 34.3262 111.138L32.361 109.77ZM32.3093 109.853C32.2336 109.944 32.176 110.029 32.1413 110.081C32.0909 110.158 32.0982 110.149 32.0824 110.171L34.0476 111.54C34.071 111.506 34.0914 111.475 34.1055 111.453C34.1229 111.427 34.1288 111.417 34.1389 111.402C34.1559 111.376 34.153 111.382 34.1392 111.399L32.3093 109.853ZM32.0223 110.267C32.0139 110.281 32.0037 110.298 31.9774 110.34C31.955 110.376 31.9166 110.436 31.8774 110.505L33.9628 111.683C33.9712 111.668 33.9815 111.651 34.0077 111.61C34.0301 111.574 34.0686 111.513 34.1077 111.444L32.0223 110.267ZM34.0476 110.612C33.9027 110.24 33.7647 109.886 33.6414 109.544L31.3644 110.449C31.5002 110.826 31.6499 111.21 31.7926 111.576L34.0476 110.612ZM33.6414 109.544C33.5051 109.165 33.3509 108.769 33.185 108.394L30.9708 109.456C31.1081 109.766 31.2416 110.108 31.3644 110.449L33.6414 109.544ZM32.9895 108.089L32.7825 107.855L30.9592 109.527L31.1662 109.761L32.9895 108.089ZM31.8709 108.691C32.3239 107.54 32.3237 107.54 32.3236 107.539C32.3235 107.539 32.3234 107.539 32.3233 107.539C32.3231 107.539 32.3229 107.539 32.3227 107.539C32.3223 107.539 32.3219 107.539 32.3215 107.539C32.3207 107.538 32.3199 107.538 32.319 107.538C32.3172 107.537 32.3152 107.536 32.3132 107.536C32.309 107.534 32.3042 107.532 32.2988 107.53C32.2881 107.527 32.2748 107.522 32.2593 107.517C32.2296 107.507 32.1865 107.494 32.1355 107.48C32.0876 107.468 32.0129 107.451 31.9241 107.44C31.8547 107.432 31.6789 107.414 31.4668 107.46L31.91 109.857C31.7283 109.897 31.5904 109.88 31.5608 109.876C31.5119 109.87 31.4791 109.862 31.4693 109.859C31.4562 109.856 31.4474 109.853 31.4424 109.852C31.4394 109.851 31.4361 109.849 31.4323 109.848C31.4303 109.847 31.4282 109.847 31.4258 109.846C31.4247 109.845 31.4234 109.845 31.4221 109.844C31.4214 109.844 31.4208 109.844 31.4201 109.844C31.4197 109.844 31.4194 109.843 31.419 109.843C31.4188 109.843 31.4186 109.843 31.4185 109.843C31.4184 109.843 31.4182 109.843 31.4182 109.843C31.4181 109.843 31.4179 109.843 31.8709 108.691ZM31.4668 107.46C31.282 107.501 30.76 107.644 30.4688 108.219L32.6149 109.284C32.5183 109.475 32.3679 109.635 32.1889 109.742C32.0424 109.83 31.9204 109.855 31.91 109.857L31.4668 107.46ZM30.5592 108.068C30.4246 108.262 30.3149 108.519 30.2935 108.821L32.7079 108.919C32.6935 109.123 32.6193 109.299 32.5244 109.436L30.5592 108.068ZM30.3002 108.753L30.2798 108.916L32.6809 109.149L32.7012 108.987L30.3002 108.753ZM30.2952 108.822C30.2561 109.015 30.1983 109.18 30.1334 109.318L32.3113 110.318C32.4636 109.995 32.5859 109.635 32.6655 109.243L30.2952 108.822ZM30.1334 109.318C30.06 109.473 29.9786 109.61 29.8795 109.743L31.795 111.18C31.9988 110.906 32.1674 110.623 32.3113 110.318L30.1334 109.318ZM29.8795 109.743C29.7241 109.952 29.5974 110.121 29.4636 110.278L31.2739 111.847C31.4715 111.616 31.6476 111.378 31.795 111.18L29.8795 109.743ZM29.4352 110.313C29.31 110.47 29.0706 110.761 28.8967 110.984L30.7758 112.469C30.9687 112.222 31.1005 112.067 31.3024 111.813L29.4352 110.313ZM28.6476 111.534C28.562 111.989 28.6697 112.711 29.3616 113.062L30.4984 110.86C30.7233 110.974 30.8908 111.169 30.9763 111.395C31.0558 111.604 31.0486 111.793 31.0249 111.919L28.6476 111.534ZM29.2677 113.008C29.6087 113.223 29.9953 113.267 30.3461 113.189L29.9029 110.792C29.9945 110.772 30.1101 110.762 30.2396 110.782C30.371 110.802 30.4908 110.849 30.5923 110.913L29.2677 113.008ZM30.3461 113.189C30.6777 113.116 31.1023 112.892 31.3421 112.418L29.1959 111.354C29.3802 110.99 29.6925 110.839 29.9029 110.792L30.3461 113.189ZM31.2516 112.57C31.2652 112.551 31.4477 112.307 31.501 111.951L29.108 111.659C29.15 111.379 29.2927 111.193 29.2864 111.202L31.2516 112.57ZM31.2381 112.555C31.3824 112.374 31.5212 112.213 31.6785 112.031L29.8804 110.447C29.7262 110.625 29.5536 110.825 29.3709 111.055L31.2381 112.555ZM31.6785 112.031C31.8687 111.811 32.0368 111.585 32.1739 111.402L30.2622 109.959C30.1164 110.154 30.0016 110.307 29.8804 110.447L31.6785 112.031ZM32.2007 111.365C32.3299 111.179 32.4754 110.952 32.6078 110.704L30.4877 109.589C30.4142 109.727 30.3252 109.867 30.2355 109.997L32.2007 111.365ZM32.6078 110.704C32.7243 110.486 32.8602 110.215 32.974 109.887L30.6936 109.138C30.6429 109.284 30.5772 109.422 30.4877 109.589L32.6078 110.704ZM30.6974 109.971C30.8172 110.299 30.9901 110.74 31.094 111.019L33.3622 110.09C33.2156 109.696 33.1052 109.423 32.9702 109.054L30.6974 109.971ZM31.0917 111.013C31.2282 111.386 31.3775 111.756 31.5396 112.122L33.7537 111.06C33.6125 110.741 33.4828 110.42 33.3645 110.096L31.0917 111.013ZM31.6039 111.002C31.5801 111.044 31.5563 111.086 31.5325 111.128C31.5087 111.169 31.485 111.211 31.4612 111.253L33.5466 112.43C33.5704 112.389 33.5942 112.347 33.618 112.305C33.6418 112.264 33.6656 112.222 33.6893 112.18L31.6039 111.002ZM31.4612 111.253C31.47 111.237 31.4755 111.231 31.4428 111.278C31.4208 111.309 31.3605 111.395 31.3041 111.494L33.3895 112.671C33.3807 112.687 33.3752 112.693 33.4079 112.646C33.4299 112.614 33.4901 112.529 33.5466 112.43L31.4612 111.253ZM31.4073 111.34C31.2545 111.535 31.2545 111.547 31.1936 111.616L32.9697 113.225C33.0965 113.082 33.2557 112.864 33.2864 112.825L31.4073 111.34ZM31.1421 111.678C31.0573 111.786 30.9506 111.921 30.836 112.086L32.8012 113.454C32.8657 113.361 32.9226 113.289 33.0212 113.163L31.1421 111.678ZM30.836 112.086C30.5957 112.432 30.5308 112.844 30.5963 113.198L32.976 112.672C33.0008 112.806 32.9966 112.936 32.9728 113.054C32.9495 113.17 32.9 113.312 32.8012 113.454L30.836 112.086ZM30.5963 113.198C30.6837 113.67 30.9742 113.96 31.2245 114.118L32.5492 112.023C32.6025 112.056 32.698 112.126 32.7889 112.246C32.8864 112.375 32.9485 112.523 32.976 112.672L30.5963 113.198ZM31.2245 114.118C31.7569 114.453 32.3127 114.311 32.6266 114.146L31.5717 111.973C31.7246 111.893 32.1309 111.759 32.5492 112.023L31.2245 114.118ZM32.6266 114.146C32.8805 114.014 33.0672 113.838 33.1839 113.716L31.4754 112.034C31.4639 112.046 31.4648 112.044 31.477 112.034C31.489 112.024 31.5208 112 31.5717 111.973L32.6266 114.146ZM33.1839 113.716C33.3049 113.59 33.411 113.457 33.4908 113.357L31.6235 111.856C31.5399 111.962 31.5023 112.006 31.4754 112.034L33.1839 113.716ZM33.5398 113.291C33.6133 113.185 33.5682 113.25 33.6368 113.151C33.6898 113.075 33.606 113.195 33.6587 113.119C33.6642 113.112 33.6559 113.123 33.6614 113.116C33.6622 113.114 33.6619 113.115 33.6627 113.114C33.6636 113.112 33.6631 113.113 33.664 113.112C33.6715 113.101 33.6618 113.115 33.6693 113.104C33.7117 113.043 33.6374 113.15 33.6797 113.089C33.7004 113.059 33.6993 113.061 33.7189 113.033L31.7537 111.664C31.742 111.681 31.7559 111.661 31.7442 111.678C31.7411 111.682 31.7449 111.677 31.7418 111.681C31.7412 111.682 31.7419 111.681 31.7412 111.682C31.7407 111.683 31.7411 111.682 31.7406 111.683C31.739 111.685 31.7416 111.682 31.74 111.684C31.7387 111.686 31.7407 111.683 31.7394 111.685C31.7239 111.707 31.7525 111.666 31.737 111.688C31.7345 111.692 31.737 111.688 31.7345 111.692C31.7314 111.697 31.718 111.716 31.7145 111.721C31.6961 111.747 31.7122 111.724 31.6935 111.751C31.6927 111.752 31.693 111.752 31.6922 111.753C31.6913 111.754 31.6923 111.753 31.6915 111.754C31.6914 111.754 31.6913 111.754 31.6911 111.754C31.691 111.755 31.6909 111.755 31.6908 111.755C31.6908 111.755 31.6881 111.759 31.6881 111.759C31.6848 111.764 31.686 111.762 31.6827 111.767C31.6559 111.805 31.6984 111.744 31.6716 111.783C31.6509 111.812 31.6002 111.886 31.5746 111.922L33.5398 113.291ZM33.7189 113.033C33.7264 113.022 33.7536 112.983 33.7587 112.975C33.7587 112.975 33.7609 112.972 33.761 112.972C33.7622 112.97 33.7621 112.97 33.7633 112.969C33.7905 112.929 33.7408 113.001 33.768 112.962C33.7696 112.96 33.7712 112.957 33.7728 112.955C33.7737 112.954 33.7767 112.949 33.7776 112.948C33.7786 112.947 33.7778 112.948 33.7789 112.946C33.7827 112.941 33.7756 112.951 33.7795 112.945C33.786 112.936 33.7735 112.954 33.7801 112.944C33.7807 112.944 33.7807 112.944 33.7813 112.943C33.7816 112.942 33.7813 112.943 33.7816 112.942C33.7817 112.942 33.7819 112.942 33.782 112.942C33.7825 112.941 33.782 112.942 33.7826 112.941C33.7893 112.931 33.7809 112.943 33.7877 112.934C33.7899 112.93 33.7959 112.922 33.7985 112.918L31.8333 111.55C31.7813 111.625 31.8429 111.536 31.7935 111.607C31.7424 111.681 31.8352 111.547 31.7841 111.62C31.7732 111.636 31.7855 111.619 31.7745 111.634C31.7737 111.635 31.7741 111.635 31.7733 111.636C31.7732 111.636 31.7722 111.638 31.772 111.638C31.771 111.639 31.7719 111.638 31.7708 111.64C31.7702 111.641 31.7702 111.641 31.7695 111.641C31.7637 111.65 31.7703 111.64 31.7644 111.649C31.7633 111.65 31.763 111.651 31.7618 111.653C31.7616 111.653 31.7593 111.656 31.7592 111.656C31.7574 111.659 31.7582 111.658 31.7564 111.66C31.7564 111.66 31.7537 111.664 31.7537 111.664L33.7189 113.033ZM33.9187 112.703C33.9042 112.736 33.8912 112.761 33.8829 112.776C33.8743 112.792 33.8675 112.803 33.8639 112.808C33.8583 112.817 33.8547 112.822 33.8659 112.806L31.9008 111.438C31.8957 111.445 31.7894 111.591 31.713 111.764L33.9187 112.703ZM31.7882 112.679C31.9713 113.067 32.176 113.503 32.407 113.914L34.5192 112.648C34.3372 112.324 34.1686 111.968 33.9785 111.564L31.7882 112.679ZM32.4019 113.904C32.632 114.322 32.8898 114.736 33.1904 115.153L35.1617 113.667C34.9195 113.33 34.7116 112.997 34.5243 112.657L32.4019 113.904ZM34.8893 115.378C34.9004 115.369 34.9115 115.36 34.9198 115.354C34.9239 115.351 34.9274 115.348 34.9298 115.346C34.931 115.345 34.9319 115.345 34.9326 115.344C34.9329 115.344 34.9332 115.344 34.9333 115.344C34.9334 115.343 34.9335 115.343 34.9335 115.343C34.9335 115.343 34.9336 115.343 34.9336 115.343C34.9336 115.343 34.9336 115.343 34.9336 115.343C34.9336 115.343 34.9336 115.343 34.9336 115.343C34.9336 115.343 34.9336 115.343 34.9336 115.343C34.9336 115.343 34.9336 115.343 34.2202 114.376C33.5067 113.408 33.5067 113.408 33.5067 113.408C33.5067 113.408 33.5067 113.408 33.5067 113.408C33.5067 113.408 33.5067 113.408 33.5067 113.408C33.5067 113.408 33.5067 113.408 33.5067 113.408C33.5067 113.408 33.5067 113.409 33.5067 113.409C33.5066 113.409 33.5065 113.409 33.5065 113.409C33.5063 113.409 33.5061 113.409 33.5057 113.409C33.5051 113.41 33.5041 113.41 33.5029 113.411C33.5005 113.413 33.4971 113.416 33.493 113.419C33.4847 113.425 33.4737 113.434 33.4627 113.442L34.8893 115.378ZM35.2027 115.06L35.2226 115.031L33.2575 113.663L33.2376 113.692L35.2027 115.06ZM34.24 114.347C33.8197 115.511 33.8198 115.511 33.82 115.511C33.82 115.511 33.8202 115.511 33.8203 115.511C33.8205 115.511 33.8207 115.511 33.8209 115.511C33.8214 115.511 33.8218 115.511 33.8222 115.511C33.8231 115.512 33.824 115.512 33.825 115.512C33.8269 115.513 33.829 115.514 33.8312 115.514C33.8356 115.516 33.8406 115.518 33.8461 115.519C33.8571 115.523 33.8706 115.527 33.8861 115.532C33.9161 115.541 33.959 115.552 34.0099 115.563C34.0483 115.572 34.318 115.638 34.6298 115.569L34.1866 113.173C34.341 113.138 34.4588 113.147 34.4955 113.15C34.5447 113.154 34.5792 113.162 34.593 113.165C34.6094 113.168 34.6216 113.172 34.6295 113.174C34.634 113.175 34.6386 113.177 34.6435 113.178C34.6459 113.179 34.6486 113.18 34.6514 113.181C34.6528 113.181 34.6542 113.182 34.6557 113.182C34.6565 113.183 34.6572 113.183 34.658 113.183C34.6584 113.183 34.6588 113.183 34.6592 113.183C34.6594 113.184 34.6596 113.184 34.6598 113.184C34.6599 113.184 34.6601 113.184 34.6601 113.184C34.6603 113.184 34.6604 113.184 34.24 114.347ZM33.3054 113.901L33.2877 113.942L35.4933 114.881L35.511 114.84L33.3054 113.901Z" fill="white" mask="url(#path-12-inside-2_295_6797)"/>
</g>
<path id="Vector_12" d="M27.5128 115.636L27.4725 115.608L27.5128 115.636ZM27.5128 115.636L27.6591 115.738L27.5128 115.636Z" fill="white" stroke="white" stroke-width="1.21888"/>
<path id="Vector 11" d="M22.9001 142.539C21.4997 141.183 43.8442 100.802 49.385 102.644C42.2999 108.674 39.2292 120.374 37.4548 129.056C36.5815 133.329 33.7003 136.937 30.0109 139.259C26.4286 141.513 23.83 143.439 22.9001 142.539Z" fill="white"/>
</g>
<path id="Vector 12" d="M55.3949 104.85C52.6333 104.432 52.6054 102.596 52.5914 101.678L66.3365 99.6319C62.2256 101.072 57.2469 105.129 55.3949 104.85Z" fill="white"/>
</g>
</svg>
