<svg width="438" height="23" viewBox="0 0 438 23" fill="none" xmlns="http://www.w3.org/2000/svg">
<g clip-path="url(#clip0_295_6571)">
<path d="M29.6373 0.568091C28.0205 7.42453 21.6837 12.9106 14.7523 13.4617L15.1584 10.808C20.688 10.4117 25.756 6.03487 27.0055 0.568091H25.0189C23.837 4.89415 19.8566 8.33566 15.458 8.84076L15.8641 6.18229C18.8585 5.83186 21.5628 3.49966 22.3797 0.565674H20.3448C19.6512 2.3541 18.0198 3.76309 16.171 4.17153L16.722 0.565674H14.6943L14.1409 4.19086C13.3433 4.01443 12.6521 3.61566 12.1422 3.0163C11.5743 2.35168 11.2818 1.49855 11.277 0.565674H9.34356C9.34356 1.96016 9.7955 3.25073 10.668 4.27303C11.4848 5.23008 12.5869 5.86086 13.846 6.10979L13.4255 8.8601C11.393 8.65467 9.62149 7.76529 8.37201 6.30072C7.05969 4.76122 6.45791 2.74562 6.63192 0.565674H4.6864C4.50998 3.20481 5.2761 5.65544 6.89776 7.55745C8.45659 9.38696 10.6414 10.5011 13.1331 10.7766L12.7198 13.4738C9.45231 13.2635 6.59325 11.9101 4.60906 9.5803C2.55721 7.17076 1.663 3.99027 2.02552 0.568091H0.0679147C-0.297021 4.44946 0.773618 8.06256 3.13966 10.8394C5.43802 13.5342 8.70552 15.1293 12.4298 15.4072L12.0334 18.0077H14.0611L14.4551 15.4314C22.5151 15.0084 29.9709 8.56525 31.636 0.565674H29.6398L29.6373 0.568091Z" fill="white"/>
<path d="M47.499 0.573242C50.955 0.573242 53.0431 2.439 53.0431 5.19898C53.0431 6.9149 52.422 8.33114 51.1532 9.45011C49.9109 10.5449 48.3183 11.0911 46.38 11.0911H42.1023L41.0075 17.979H37.4282L40.1882 0.573242H47.499ZM46.4791 8.03387C48.0694 8.03387 49.4131 7.188 49.4131 5.59775C49.4131 4.40386 48.5938 3.70782 47.1002 3.70782H43.272L42.576 8.03387H46.4791Z" fill="white"/>
<path d="M65.0612 7.01133C66.2793 8.18105 66.9004 9.64805 66.9004 11.4631C66.9004 13.2781 66.2285 14.9191 64.9113 16.287C63.5942 17.6307 61.9532 18.3002 59.9642 18.3002C57.9752 18.3002 56.5082 17.7274 55.2901 16.5601C54.072 15.3928 53.4751 13.875 53.4751 12.06C53.4751 10.245 54.1204 8.62816 55.4399 7.28684C56.7571 5.91894 58.4223 5.24707 60.3871 5.24707C62.352 5.24707 63.8431 5.84402 65.0612 7.01133ZM62.5018 14.1239C63.222 13.3772 63.57 12.4588 63.57 11.364C63.57 9.49821 62.2263 8.30673 60.4113 8.30673C59.4156 8.30673 58.5721 8.67891 57.8761 9.40153C57.18 10.1217 56.832 11.0425 56.832 12.1373C56.832 14.0273 58.1516 15.2453 59.9666 15.2453C60.9599 15.2453 61.8058 14.8731 62.5042 14.1264L62.5018 14.1239Z" fill="white"/>
<path d="M79.3049 9.17436C78.2342 8.60158 77.1418 8.30431 76.0228 8.30431C74.8048 8.30431 73.8091 8.65233 73.0139 9.37253C72.2188 10.0686 71.8201 10.9628 71.8201 12.0576C71.8201 13.0775 72.1946 13.8726 72.9632 14.4188C73.7341 14.965 74.6284 15.2405 75.699 15.2405C76.7696 15.2405 77.7388 15.0157 78.7079 14.5445L78.2366 17.6041C77.2167 18.0754 76.0736 18.3002 74.8555 18.3002C72.9898 18.3002 71.4237 17.754 70.1815 16.635C68.9634 15.516 68.3423 14.049 68.3423 12.234C68.3423 10.245 69.0625 8.57982 70.4811 7.26026C71.8974 5.91652 73.6641 5.24707 75.7522 5.24707C77.2699 5.24707 78.6112 5.57092 79.781 6.24037L79.3097 9.17436H79.3049Z" fill="white"/>
<path d="M91.8493 9.17436C90.7786 8.60158 89.6862 8.30431 88.5672 8.30431C87.3492 8.30431 86.3535 8.65233 85.5583 9.37253C84.7632 10.0686 84.3645 10.9628 84.3645 12.0576C84.3645 13.0775 84.7391 13.8726 85.5076 14.4188C86.2785 14.965 87.1728 15.2405 88.2434 15.2405C89.314 15.2405 90.2832 15.0157 91.2523 14.5445L90.7786 17.6041C89.7587 18.0754 88.6156 18.3002 87.3975 18.3002C85.5318 18.3002 83.9657 17.754 82.7235 16.635C81.5054 15.516 80.8843 14.049 80.8843 12.234C80.8843 10.245 81.6045 8.57982 83.0231 7.26026C84.4418 5.91652 86.206 5.24707 88.2942 5.24707C89.8095 5.24707 91.1532 5.57092 92.3229 6.24037L91.8517 9.17436H91.8493Z" fill="white"/>
<path d="M104.329 5.57104H107.611L105.671 17.9788H102.166L103.261 10.8421L96.5979 17.9788H93.3159L95.2808 5.57104H98.7875L97.6686 12.7078L104.332 5.57104H104.329Z" fill="white"/>
<path d="M119.876 5.57095H123.158L121.217 17.9787H117.713L118.807 10.842L112.144 17.9787H108.862L110.827 5.57095H114.332L113.213 12.7077L119.876 5.57095ZM115.772 0.000244141C115.772 0.0751646 115.748 0.225006 115.748 0.324094C115.748 1.24489 116.42 1.84184 117.512 1.84184C118.706 1.84184 119.576 1.12163 119.801 0.00266093H122.263C121.84 2.56446 119.876 4.13054 117.365 4.13054C115.052 4.13054 113.312 2.7868 113.312 0.698697C113.312 0.524688 113.336 0.299926 113.362 0.00266093H115.774L115.772 0.000244141Z" fill="white"/>
<path d="M135.466 9.17436C134.396 8.60158 133.303 8.30431 132.184 8.30431C130.966 8.30431 129.971 8.65233 129.176 9.37253C128.38 10.0686 127.982 10.9628 127.982 12.0576C127.982 13.0775 128.354 13.8726 129.125 14.4188C129.896 14.965 130.79 15.2405 131.861 15.2405C132.931 15.2405 133.9 15.0157 134.87 14.5445L134.396 17.6041C133.376 18.0754 132.233 18.3002 131.015 18.3002C129.151 18.3002 127.583 17.754 126.341 16.635C125.123 15.516 124.501 14.049 124.501 12.234C124.501 10.245 125.222 8.57982 126.64 7.26026C128.057 5.91652 129.823 5.24707 131.911 5.24707C133.429 5.24707 134.77 5.57092 135.94 6.24037L135.466 9.17436Z" fill="white"/>
<path d="M136.933 17.9788L138.898 5.57104H142.429L141.685 9.97202L146.608 5.57104H151.057L144.691 11.3907L149.938 17.9813H145.861L141.31 12.4371L140.44 17.9813H136.933V17.9788Z" fill="white"/>
<path d="M162.526 5.57104H165.808L163.867 17.9788H160.362L161.457 10.8421L154.794 17.9788H151.512L153.477 5.57104H156.981L155.862 12.7078L162.526 5.57104Z" fill="white"/>
<path d="M178.071 5.57095H181.353L179.413 17.9787H175.908L177.003 10.842L170.34 17.9787H167.058L169.023 5.57095H172.527L171.408 12.7077L178.071 5.57095ZM173.968 0.000244141C173.968 0.0751646 173.944 0.225006 173.944 0.324094C173.944 1.24489 174.615 1.84184 175.708 1.84184C176.902 1.84184 177.772 1.12163 177.997 0.00266093H180.459C180.036 2.56446 178.071 4.13054 175.56 4.13054C173.248 4.13054 171.507 2.7868 171.507 0.698697C171.507 0.524688 171.532 0.299926 171.558 0.00266093H173.97L173.968 0.000244141Z" fill="white"/>
<path d="M200.062 14.2982L199.639 17.1839C198.571 17.9307 197.104 18.3028 195.238 18.3028C193.373 18.3028 191.857 17.7566 190.639 16.6618C189.421 15.567 188.824 14.1242 188.824 12.3358C188.824 10.3468 189.469 8.6816 190.789 7.3137C192.109 5.94579 193.774 5.24976 195.763 5.24976C197.479 5.24976 198.822 5.74761 199.842 6.7675C200.862 7.78739 201.384 9.0562 201.384 10.5715C201.384 11.2434 201.309 11.9636 201.16 12.7346H192.208C192.307 14.4263 193.924 15.3205 196.111 15.3205C197.479 15.3205 198.796 14.9725 200.065 14.3006L200.062 14.2982ZM197.998 10.4942V10.3202C197.998 8.95228 197.128 8.00731 195.611 8.00731C194.093 8.00731 192.826 8.92811 192.452 10.4942H197.996H197.998Z" fill="white"/>
<path d="M215.047 14.199C215.047 16.71 213.007 17.9788 209.95 17.9788H202.639L204.604 5.57104H211.615C213.904 5.57104 215.146 6.83986 215.146 8.45669C215.146 9.97444 214.252 11.0668 213.157 11.5889C214.426 12.0601 215.047 12.9326 215.047 14.199ZM209.674 15.5161C210.769 15.492 211.54 14.895 211.54 13.8751C211.54 13.1042 210.943 12.732 209.725 12.732H206.917L206.494 15.5161H209.677H209.674ZM209.899 10.5182C210.893 10.5182 211.615 9.94544 211.615 9.05122C211.615 8.2561 211.069 7.983 209.875 7.983H207.685L207.262 10.5182H209.899Z" fill="white"/>
<path d="M219.664 22.9501H216.157L218.917 5.5685H222.422L222.173 7.01133C223.292 5.84402 224.66 5.24707 226.301 5.24707C227.942 5.24707 229.111 5.79327 230.056 6.91224C231.001 8.03121 231.475 9.39912 231.475 11.0401C231.475 12.9542 230.878 14.646 229.66 16.113C228.466 17.58 226.876 18.3002 224.911 18.3002C222.946 18.3002 221.428 17.3552 220.708 16.3353L219.664 22.9501ZM221.704 10.1193L221.182 13.4255C221.68 14.3946 222.946 15.2405 224.314 15.2405C225.31 15.2405 226.153 14.8683 226.849 14.1457C227.545 13.3989 227.893 12.4805 227.893 11.3857C227.893 9.51996 226.675 8.30189 224.911 8.30189C223.642 8.30189 222.4 9.04868 221.704 10.1169V10.1193Z" fill="white"/>
<path d="M244.146 14.2982L243.723 17.1839C242.655 17.9307 241.188 18.3028 239.322 18.3028C237.457 18.3028 235.941 17.7566 234.723 16.6618C233.505 15.567 232.908 14.1242 232.908 12.3358C232.908 10.3468 233.553 8.6816 234.873 7.3137C236.193 5.94579 237.858 5.24976 239.847 5.24976C241.563 5.24976 242.906 5.74761 243.926 6.7675C244.946 7.78739 245.468 9.0562 245.468 10.5715C245.468 11.2434 245.393 11.9636 245.244 12.7346H236.292C236.391 14.4263 238.008 15.3205 240.195 15.3205C241.563 15.3205 242.88 14.9725 244.149 14.3006L244.146 14.2982ZM242.082 10.4942V10.3202C242.082 8.95228 241.212 8.00731 239.695 8.00731C238.177 8.00731 236.91 8.92811 236.536 10.4942H242.08H242.082Z" fill="white"/>
<path d="M257.748 5.57095H261.03L259.089 17.9787H255.582L256.677 10.842L250.014 17.9787H246.732L248.697 5.57095H252.204L251.085 12.7077L257.748 5.57095ZM253.644 0.000244141C253.644 0.0751646 253.62 0.225006 253.62 0.324094C253.62 1.24489 254.292 1.84184 255.384 1.84184C256.578 1.84184 257.448 1.12163 257.673 0.00266093H260.135C259.713 2.56446 257.748 4.13054 255.237 4.13054C252.924 4.13054 251.184 2.7868 251.184 0.698697C251.184 0.524688 251.208 0.299926 251.234 0.00266093H253.646L253.644 0.000244141Z" fill="white"/>
<path d="M273.351 9.17436C272.28 8.60158 271.188 8.30431 270.069 8.30431C268.851 8.30431 267.855 8.65233 267.06 9.37253C266.265 10.0686 265.866 10.9628 265.866 12.0576C265.866 13.0775 266.238 13.8726 267.009 14.4188C267.78 14.965 268.674 15.2405 269.745 15.2405C270.816 15.2405 271.785 15.0157 272.754 14.5445L272.283 17.6041C271.263 18.0754 270.12 18.3002 268.901 18.3002C267.038 18.3002 265.47 17.754 264.227 16.635C263.009 15.516 262.388 14.049 262.388 12.234C262.388 10.245 263.108 8.57982 264.527 7.26026C265.943 5.91652 267.71 5.24707 269.798 5.24707C271.316 5.24707 272.657 5.57092 273.827 6.24037L273.353 9.17436H273.351Z" fill="white"/>
<path d="M274.82 17.9788L276.785 5.57104H280.316L279.571 9.97202L284.494 5.57104H288.946L282.58 11.3907L287.827 17.9813H283.75L279.199 12.4371L278.329 17.9813H274.822L274.82 17.9788Z" fill="white"/>
<path d="M300.403 5.57104H303.685L301.745 17.9788H298.24L299.335 10.8421L292.672 17.9788H289.39L291.355 5.57104H294.859L293.74 12.7078L300.403 5.57104Z" fill="white"/>
<path d="M315.958 5.57095H319.24L317.299 17.9787H313.795L314.89 10.842L308.227 17.9787H304.945L306.91 5.57095H310.414L309.295 12.7077L315.958 5.57095ZM311.854 0.000244141C311.854 0.0751646 311.83 0.225006 311.83 0.324094C311.83 1.24489 312.502 1.84184 313.595 1.84184C314.788 1.84184 315.658 1.12163 315.883 0.00266093H318.346C317.923 2.56446 315.958 4.13054 313.447 4.13054C311.134 4.13054 309.394 2.7868 309.394 0.698697C309.394 0.524688 309.418 0.299926 309.445 0.00266093H311.857L311.854 0.000244141Z" fill="white"/>
<path d="M326.601 17.9788L328.565 5.57104H332.096L331.352 9.97202L336.275 5.57104H340.727L334.361 11.3907L339.608 17.9813H335.531L330.98 12.4371L330.11 17.9813H326.603L326.601 17.9788Z" fill="white"/>
<path d="M352.861 7.01133C354.079 8.18105 354.7 9.64805 354.7 11.4631C354.7 13.2781 354.028 14.9191 352.711 16.287C351.394 17.6307 349.753 18.3002 347.762 18.3002C345.77 18.3002 344.306 17.7274 343.087 16.5601C341.869 15.3928 341.272 13.875 341.272 12.06C341.272 10.245 341.918 8.62816 343.237 7.28684C344.557 5.91894 346.222 5.24707 348.187 5.24707C350.152 5.24707 351.643 5.84402 352.861 7.01133ZM350.299 14.1239C351.019 13.3772 351.37 12.4588 351.37 11.364C351.37 9.49821 350.026 8.30673 348.211 8.30673C347.215 8.30673 346.372 8.67891 345.676 9.40153C344.98 10.1217 344.632 11.0425 344.632 12.1373C344.632 14.0273 345.949 15.2453 347.764 15.2453C348.76 15.2453 349.603 14.8731 350.302 14.1264L350.299 14.1239Z" fill="white"/>
<path d="M356.046 17.9788L358.011 5.57104H361.516L360.795 10.1702H365.892L366.613 5.57104H370.119L368.155 17.9788H364.65L365.421 13.1042H360.324L359.553 17.9788H356.046Z" fill="white"/>
<path d="M371.363 17.9788L373.328 5.57104H383.174L382.703 8.50503H376.361L374.87 17.9788H371.363Z" fill="white"/>
<path d="M386.038 22.9501H382.531L385.291 5.5685H388.798L388.549 7.01133C389.668 5.84402 391.035 5.24707 392.676 5.24707C394.317 5.24707 395.487 5.79327 396.432 6.91224C397.377 8.03121 397.851 9.39912 397.851 11.0401C397.851 12.9542 397.254 14.646 396.036 16.113C394.842 17.58 393.252 18.3002 391.287 18.3002C389.322 18.3002 387.804 17.3552 387.084 16.3353L386.04 22.9501H386.038ZM388.077 10.1193L387.555 13.4255C388.053 14.3946 389.32 15.2405 390.687 15.2405C391.683 15.2405 392.527 14.8683 393.223 14.1457C393.919 13.3989 394.267 12.4805 394.267 11.3857C394.267 9.51996 393.049 8.30189 391.284 8.30189C390.016 8.30189 388.773 9.04868 388.077 10.1169V10.1193Z" fill="white"/>
<path d="M410.531 14.2982L410.108 17.1839C409.04 17.9307 407.573 18.3028 405.707 18.3028C403.841 18.3028 402.326 17.7566 401.106 16.6618C399.887 15.567 399.291 14.1242 399.291 12.3358C399.291 10.3468 399.936 8.6816 401.255 7.3137C402.575 5.94579 404.24 5.24976 406.229 5.24976C407.945 5.24976 409.289 5.74761 410.309 6.7675C411.329 7.78739 411.851 9.0562 411.851 10.5715C411.851 11.2434 411.776 11.9636 411.626 12.7346H402.674C402.773 14.4263 404.39 15.3205 406.577 15.3205C407.945 15.3205 409.262 14.9725 410.531 14.3006V14.2982ZM408.467 10.4942V10.3202C408.467 8.95228 407.597 8.00731 406.079 8.00731C404.562 8.00731 403.295 8.92811 402.921 10.4942H408.465H408.467Z" fill="white"/>
<path d="M424.187 9.17436C423.116 8.60158 422.024 8.30431 420.905 8.30431C419.687 8.30431 418.691 8.65233 417.896 9.37253C417.101 10.0686 416.702 10.9628 416.702 12.0576C416.702 13.0775 417.074 13.8726 417.845 14.4188C418.616 14.965 419.51 15.2405 420.581 15.2405C421.651 15.2405 422.621 15.0157 423.59 14.5445L423.118 17.6041C422.099 18.0754 420.955 18.3002 419.737 18.3002C417.874 18.3002 416.306 17.754 415.063 16.635C413.845 15.516 413.224 14.049 413.224 12.234C413.224 10.245 413.944 8.57982 415.363 7.26026C416.779 5.91652 418.546 5.24707 420.634 5.24707C422.152 5.24707 423.493 5.57092 424.663 6.24037L424.189 9.17436H424.187Z" fill="white"/>
<path d="M436.729 9.17436C435.658 8.60158 434.566 8.30431 433.447 8.30431C432.229 8.30431 431.233 8.65233 430.438 9.37253C429.643 10.0686 429.244 10.9628 429.244 12.0576C429.244 13.0775 429.616 13.8726 430.387 14.4188C431.158 14.965 432.052 15.2405 433.123 15.2405C434.193 15.2405 435.163 15.0157 436.132 14.5445L435.66 17.6041C434.641 18.0754 433.497 18.3002 432.279 18.3002C430.416 18.3002 428.848 17.754 427.605 16.635C426.387 15.516 425.766 14.049 425.766 12.234C425.766 10.245 426.486 8.57982 427.905 7.26026C429.321 5.91652 431.088 5.24707 433.176 5.24707C434.694 5.24707 436.035 5.57092 437.205 6.24037L436.731 9.17436H436.729Z" fill="white"/>
</g>
<defs>
<clipPath id="clip0_295_6571">
<rect width="437.197" height="22.9498" fill="white"/>
</clipPath>
</defs>
</svg>
