<svg width="82" height="99" viewBox="0 0 82 99" fill="none" xmlns="http://www.w3.org/2000/svg">
<g id="&#208;&#164;&#208;&#144;&#208;&#148;&#208;&#157; 1" clip-path="url(#clip0_169_996)">
<g id="Layer 1">
<g id="Group">
<path id="Vector" fill-rule="evenodd" clip-rule="evenodd" d="M56.1087 27.5016C54.8281 26.384 52.9859 26.4086 51.9278 26.7337C52.6202 25.8885 54.2329 25.1944 54.708 25.1101C55.0701 25.2454 56.107 26.3067 56.107 27.5016H56.1087ZM60.1995 22.8732C59.357 18.3907 48.8827 21.3603 43.6084 19.4573C43.5077 20.7646 45.2317 22.8591 46.8814 23.6341C44.0606 26.0695 41.5294 30.9755 41.0172 36.9674C40.5067 30.9737 37.9756 26.0677 35.1565 23.6341C36.8063 22.8591 38.532 20.7646 38.4295 19.4573C33.1553 21.362 22.6809 18.3907 21.8366 22.8732C21.6582 23.8221 22.1175 25.27 22.6138 25.6847C22.7021 25.3842 23.1649 24.4002 24.6257 24.1788C32.0054 23.07 38.1664 34.3844 32.6042 38.9583C32.5194 39.0285 32.5671 39.1568 32.6819 39.1568H49.3543C49.4673 39.1568 49.515 39.0285 49.432 38.9583C43.8698 34.3844 50.0308 23.07 57.4087 24.1788C58.8713 24.3984 59.3323 25.3824 59.4206 25.6847C59.9169 25.27 60.3744 23.8221 60.196 22.8732H60.1995ZM61.9941 12.5833C62.7431 14.9783 61.3159 17.969 57.225 18.1675C57.195 18.1236 57.2127 17.5859 57.2127 17.5859C60.6429 17.5859 62.2132 13.9134 59.5124 11.4183C60.9608 6.88832 63.1599 11.4183 65.0181 12.5815C66.0655 13.2369 68.9605 12.8451 69.1884 14.1419C69.5169 15.9974 66.1874 15.9711 67.6658 20.0161C66.9222 19.4538 64.1649 17.8794 64.8326 20.8876C64.5429 20.8876 63.5997 20.2463 63.5997 19.3747C63.5997 17.4998 66.1874 16.6458 66.1874 14.8395C66.1874 12.1457 61.8617 12.1563 61.9941 12.5798V12.5833ZM14.2714 20.0196C15.7499 15.9746 12.4221 15.9992 12.7489 14.1454C12.9767 12.8486 15.8717 13.2405 16.9192 12.585C18.7774 11.4218 20.9764 6.89183 22.4266 11.4218C19.7259 13.917 21.2979 17.5894 24.7264 17.5894C24.7264 17.5894 24.7458 18.1271 24.7158 18.171C20.6249 17.9725 19.1995 14.9818 19.9467 12.5868C20.0791 12.1633 15.7516 12.1528 15.7516 14.8465C15.7516 16.6529 18.3393 17.5068 18.3393 19.3817C18.3393 20.2533 17.3961 20.8946 17.1064 20.8946C17.7723 17.8864 15.0151 19.4608 14.2714 20.0231V20.0196ZM25.8868 27.5016C25.8868 26.3067 26.9254 25.2454 27.2875 25.1101C27.7609 25.1944 29.3771 25.8885 30.0677 26.7337C29.0115 26.4086 27.1692 26.384 25.8868 27.5016ZM42.9655 2.41985L40.9695 0.000244141L38.9753 2.41985L40.9695 4.96774L42.9655 2.41985ZM54.3565 9.73843L52.9382 8.01817L51.5216 9.73843L52.9382 11.42L54.3565 9.73843ZM65.8659 59.4538L64.0678 57.5613L62.2697 59.4538L64.0678 61.1161L65.8659 59.4538ZM30.4228 9.73843L29.0026 8.01817L27.586 9.73843L29.0026 11.42L30.4228 9.73843ZM26.3584 18.1675H31.6504C36.0997 18.1675 38.1028 15.451 38.7068 13.0946H43.2339C43.838 15.451 45.8393 18.1675 50.2904 18.1675H55.5824C55.5824 18.1675 56.5079 16.9182 56.7393 16.2997C57.5748 14.0733 56.5079 13.0349 54.95 13.0349L52.9346 14.85L50.921 13.0349C49.3631 13.0349 48.2945 14.0716 49.13 16.2997C49.2359 16.5843 49.4921 17.0025 49.734 17.3698C47.8564 17.1132 45.4595 15.834 44.9332 13.0946C44.9332 13.0946 46.3215 10.9017 46.6695 10.0143C47.92 6.82154 46.3233 5.51949 43.9864 5.51949L40.9695 9.04787L37.9526 5.51949C35.6158 5.51949 34.0172 6.8233 35.2696 10.0143C35.6158 10.9017 37.0059 13.0946 37.0059 13.0946C36.4777 15.834 34.0808 17.1132 32.2032 17.3698C32.447 17.0025 32.6996 16.5843 32.8073 16.2997C33.641 14.0733 32.5759 13.0349 31.0162 13.0349L29.0009 14.85L26.9873 13.0349C25.4276 13.0349 24.3625 14.0716 25.1962 16.2997C25.4293 16.9182 26.3567 18.1675 26.3567 18.1675H26.3584ZM81.074 34.488C80.0513 35.0029 74.0599 37.7968 66.3817 36.7636C66.4629 36.3981 66.5283 36.0308 66.5831 35.6636C71.693 35.0556 75.8457 34.1946 78.4917 32.7291C81.5085 31.0598 82.828 27.0711 81.3054 24.1032C81.2665 24.0277 81.157 24.0154 81.1023 24.0769C80.2686 25.0328 75.0208 30.7101 66.7544 32.4761C66.7332 32.0473 66.6943 31.6239 66.636 31.2039C70.6509 28.9389 74.5722 26.3278 76.4374 23.9416C79.2582 20.3341 79.0004 15.7303 76.3155 13.3845C76.2572 13.3336 76.1654 13.3476 76.1265 13.4109C75.2769 14.8043 67.3249 27.5894 58.5957 33.1087C58.5092 33.1649 58.3908 33.2369 58.2742 33.3072C58.0234 33.4583 57.9969 33.7817 58.2089 33.9732C59.2157 34.8816 59.841 36.1433 59.841 37.5455C59.841 39.9827 57.9528 42.0104 55.4552 42.4497C54.1852 42.694 52.3553 42.6237 50.596 42.0438C50.5165 42.0192 50.4353 42.0719 50.4353 42.1493V49.8702C50.4353 49.995 50.6243 50.0249 50.6702 49.9054C51.7388 47.0869 54.9412 46.4877 56.3401 46.4877C56.8435 49.4995 57.7443 51.9946 58.9137 53.3371C60.8178 55.5195 63.9265 55.4879 65.2742 53.9802C65.3201 53.9275 65.306 53.8467 65.2442 53.8115C64.4529 53.3582 59.9205 50.5907 59.0143 46.0537C59.3729 45.9307 59.7209 45.7919 60.0565 45.6267C61.519 48.0358 63.6474 50.1795 65.3625 50.9983C68.2416 52.3724 70.877 51.7047 72.0463 49.6928C72.0887 49.6207 72.0357 49.5329 71.9509 49.5258C70.1705 49.3835 64.7037 47.8249 62.3774 44.0294C62.6441 43.7852 62.9056 43.5322 63.1475 43.2633C65.5833 45.1066 69.0259 46.7372 71.4917 47.0711C74.3761 47.4612 77.6438 46.5457 77.7233 43.2088C77.7233 43.1421 77.665 43.0876 77.5944 43.0911C76.5681 43.1526 69.7783 43.446 64.9421 40.6838C65.1099 40.3675 65.2654 40.0442 65.412 39.7138C65.412 39.7138 72.7228 41.4323 76.1848 40.863C79.6274 40.2972 81.6428 37.7458 81.2542 34.5706C81.2436 34.4916 81.15 34.4441 81.0776 34.481L81.074 34.488ZM16.5288 39.7209C16.5288 39.7209 9.21975 41.4394 5.75774 40.87C2.31516 40.3042 0.301549 37.7546 0.688375 34.5794C0.698973 34.5003 0.790822 34.4511 0.868541 34.4898C1.89831 35.0082 7.88793 37.795 15.5573 36.7636C15.4761 36.3981 15.4107 36.0308 15.356 35.6636C10.246 35.0556 6.09334 34.1946 3.44738 32.7291C0.434024 31.0598 -0.885424 27.0728 0.633619 24.105C0.670712 24.0294 0.783757 24.0154 0.84028 24.0821C1.68282 25.0433 6.92528 30.7119 15.1864 32.4761C15.2076 32.0473 15.2465 31.6239 15.303 31.2039C11.2881 28.9389 7.36863 26.3278 5.50162 23.9416C2.67903 20.3341 2.94045 15.7339 5.62173 13.3863C5.68002 13.3353 5.7754 13.3494 5.81603 13.4144C6.6727 14.8184 14.6194 27.5929 23.3433 33.1104C23.4334 33.1667 23.55 33.2387 23.6683 33.309C23.9174 33.4601 23.9456 33.7834 23.7301 33.9749C22.7251 34.8834 22.0981 36.1468 22.0981 37.5473C22.0981 39.9844 23.9863 42.0122 26.4856 42.4515C27.7538 42.6957 29.5838 42.6255 31.343 42.0456C31.4207 42.021 31.5055 42.0737 31.5055 42.151V49.872C31.5055 49.9967 31.3165 50.0266 31.2688 49.9071C30.2002 47.0886 26.9996 46.4895 25.5972 46.4895C25.0937 49.5012 24.1947 51.9964 23.0254 53.3389C21.1213 55.5213 18.0108 55.4896 16.6631 53.982C16.6171 53.9293 16.6313 53.8484 16.6931 53.8133C17.4862 53.3599 22.0168 50.5924 22.9247 46.0554C22.5679 45.9324 22.2182 45.7936 21.8826 45.6284C20.42 48.0375 18.2916 50.1812 16.5783 51.0001C13.6974 52.3742 11.062 51.7065 9.89272 49.6945C9.85209 49.6225 9.90155 49.5346 9.9881 49.5276C11.7686 49.3852 17.2336 47.8266 19.5616 44.0312C19.2949 43.7869 19.037 43.5339 18.7915 43.2651C16.3557 45.1083 12.9114 46.739 10.4473 47.0728C7.56293 47.4629 4.29699 46.5474 4.21573 43.2106C4.21573 43.1456 4.27402 43.0876 4.34644 43.0911C5.37621 43.1544 12.1624 43.446 16.9987 40.6838C16.8309 40.3675 16.6737 40.0442 16.5271 39.7138L16.5288 39.7209ZM64.066 63.555L66.7314 61.471C68.2593 62.3742 69.2184 64.0294 68.9941 65.8727C68.7362 67.9778 66.8798 69.6805 64.6012 69.9036C62.5965 70.0987 60.8195 69.1814 59.8569 67.7476C58.352 66.2593 54.5491 65.1505 51.4633 65.1505C50.9828 65.1505 50.7585 64.7464 50.9245 64.351C52.161 61.3954 49.5027 59.2517 46.7542 60.9948C45.5549 61.7557 44.3379 63.2528 43.4176 65.7532C47.9289 66.8391 53.5935 69.8333 54.7363 73.0999C55.1796 74.3615 53.7206 76.0818 51.9508 76.428C51.8854 76.442 51.8201 76.3981 51.8077 76.3348C50.8839 71.4569 45.6114 67.8214 42.8666 67.2046C42.7288 67.5719 42.7747 67.4541 42.6369 67.8196C45.6256 69.2253 48.5223 72.1914 49.3507 75.7163C49.7287 77.3311 47.9218 78.7861 46.4257 79.1849C46.3515 79.2043 46.2773 79.1516 46.272 79.0795C45.9894 74.6216 44.0094 70.8367 42.2377 69.1146C42.1883 69.4468 42.153 69.7859 42.1282 70.1285C42.1282 70.1285 43.9422 75.161 43.9422 78.8318C43.9422 80.5397 41.3934 81.7311 40.9218 81.898C40.5456 81.7311 37.9933 80.5397 37.9933 78.8318C37.9933 75.161 39.809 70.1285 39.809 70.1285C39.7843 69.7859 39.7472 69.4468 39.6995 69.1146C37.9279 70.8367 35.9478 74.6234 35.6635 79.0813C35.6599 79.1533 35.5857 79.2043 35.5098 79.1849C34.0155 78.7861 32.2068 77.3311 32.5865 75.7163C33.4132 72.1897 36.3117 69.2253 39.3003 67.8196C39.1626 67.4541 39.2067 67.5719 39.0689 67.2046C36.3258 67.8231 31.0516 71.4569 30.1278 76.3348C30.1154 76.3963 30.0518 76.442 29.9847 76.428C28.2149 76.0818 26.7576 74.3615 27.1992 73.0999C28.3456 69.8316 34.0084 66.8391 38.5196 65.7532C37.6011 63.2528 36.3841 61.7557 35.1848 60.9948C32.4364 59.25 29.7781 61.3937 31.0145 64.351C31.1788 64.7464 30.9544 65.1505 30.474 65.1505C27.745 65.1505 24.4579 66.0185 22.6933 67.2485C22.6933 67.2485 24.8323 69.2236 24.8659 69.2605C25.0196 69.4028 25.1326 69.5891 25.1485 69.807C25.1874 70.2902 24.797 70.7102 24.2759 70.7453C23.9898 70.7646 23.7319 70.6574 23.5429 70.487L21.4092 68.5172C20.7733 68.888 19.9802 69.0514 19.1359 68.8827C17.9419 68.642 17.0057 67.716 16.8132 66.5984C16.6913 65.8832 16.868 65.2138 17.2371 64.6655C17.2371 64.6655 9.17735 57.0904 9.11023 57.0008L8.73047 57.1853C7.86674 57.7001 6.8458 57.0588 6.88643 56.6072C6.27527 57.166 3.45445 57.3663 2.61191 54.5355C3.1842 54.5847 4.34468 54.5548 4.34468 54.5548C4.34468 54.5548 2.95634 52.4164 3.95608 51.2373C5.09537 50.1848 7.36333 51.4042 7.36333 51.4042C7.36333 51.4042 7.31918 50.2691 7.23263 49.7138C10.1718 50.3552 10.1471 53.121 9.61717 53.7536C10.0729 53.6868 10.7953 54.6427 10.3237 55.5177L10.2548 55.6741C10.405 55.7514 18.682 63.5445 18.682 63.5445C19.0282 63.4179 19.4026 63.3459 19.7983 63.3459C20.6938 63.3459 21.494 63.7061 22.0486 64.2789C24.1541 64.5355 28.6441 63.5216 28.2237 62.8873C23.4352 56.189 27.1003 52.202 31.5002 52.4234V56.9217C31.5002 58.3661 32.7649 59.5364 34.3281 59.5364H37.3662C39.5459 59.5364 40.9642 61.717 40.9642 61.717C40.9642 61.717 42.3843 59.5364 44.564 59.5364H47.6021C49.1635 59.5364 50.43 58.3661 50.43 56.9217V52.4234C54.8299 52.202 58.4915 56.189 53.7048 62.8873C53.2808 63.5269 57.6472 64.4916 59.2493 64.2684C59.5513 63.0964 60.3338 62.0965 61.3953 61.4675L64.059 63.5515L64.066 63.555ZM44.4351 50.1197C45.3836 49.7701 46.8708 50.053 46.8214 51.4165C46.809 51.724 47.2453 51.724 47.2771 51.4095C47.5615 49.3694 46.1749 48.7808 44.7247 49.0198C44.5446 48.3187 44.3962 47.7054 44.2284 47.0974C44.0942 46.6054 44.0447 45.6812 44.617 45.6812C44.9261 45.6812 44.8007 46.5404 44.7724 46.9094C44.7459 47.2345 44.8643 47.4313 45.1292 47.4401C45.2935 47.4471 45.5001 47.2362 45.6238 47.0992C46.454 46.1644 46.6465 44.7182 45.675 44.0206C44.8607 43.4355 42.8242 43.8713 42.2625 44.7059C42.1777 44.3914 41.7732 43.873 41.5807 43.6481C41.3917 43.4267 41.3422 43.2774 41.6036 43.0823C41.7273 42.9892 42.0964 42.6202 42.0964 42.2406C42.0964 42.0157 41.9216 41.601 41.3652 41.601C40.9271 41.601 40.4396 41.9033 40.4396 42.578C40.4396 42.7274 40.4767 42.8873 40.5739 43.0595C40.2965 43.0138 39.5441 43.0331 39.1573 43.128L44.5022 57.7177C46.0318 56.9674 47.1534 55.7778 47.1534 54.5021C47.1534 53.4144 45.5425 53.7746 44.7601 54.6233C44.5092 53.244 44.2849 51.97 44.0412 50.6996C43.974 50.3499 44.1524 50.2234 44.4351 50.118V50.1197ZM36.8787 40.2094L38.0003 43.3125C37.0394 43.5392 35.4939 44.2368 35.4939 45.1593C35.4939 46.3893 37.6806 47.1906 38.9453 47.0939C38.8817 47.3733 38.9559 47.6246 39.152 47.853C38.6927 47.853 37.8272 48.0656 37.5428 48.3696C36.8716 47.7476 35.8242 47.5227 35.3243 47.9005C34.8227 48.2818 34.8086 48.9266 35.3314 49.6559C35.6953 50.1619 35.833 50.6592 35.4232 51.2443C36.9476 51.2443 36.3859 49.2728 36.9829 49.2728C36.9052 49.6559 36.9529 50.0969 37.126 50.5872C37.2408 50.9122 37.2408 51.1442 37.043 51.4587C36.5519 52.2406 35.7871 54.0365 35.8913 55.6601C35.3914 55.6566 35.1371 55.5353 35.3137 54.857C35.3791 54.604 35.2219 54.4248 35.0152 54.7358C34.7856 55.0802 34.6743 55.6671 34.6743 55.9166C34.6743 57.3628 36.4071 57.6544 37.0677 57.3487C38.9789 59.1884 42.7358 58.6982 43.9935 58.0814L37.3803 40.0319C37.2443 39.691 36.7604 39.8527 36.8787 40.2076V40.2094ZM36.6491 55.0785C37.2214 54.6743 38.3606 54.4968 39.318 54.4968C38.7669 54.0013 38.592 52.5622 38.8729 51.7258C37.5517 53.0085 36.5113 54.3352 36.6473 55.0785H36.6491Z" fill="black"/>
<g id="Group_2">
<path id="Vector_2" d="M18.9803 96.0308C18.7736 96.1784 18.5387 96.2891 18.272 96.3612C18.0053 96.4332 17.7191 96.4683 17.4118 96.4683V96.5597C17.4118 96.6318 17.4242 96.6915 17.4489 96.7407C17.4719 96.7899 17.5213 96.8268 17.5973 96.8549C17.6344 96.8707 17.7015 96.883 17.7951 96.8953C17.8887 96.9059 17.9753 96.9129 18.0548 96.9147V97.1571H15.7232V96.9147C15.7727 96.9094 15.8451 96.9041 15.9405 96.8953C16.0341 96.8865 16.1012 96.8725 16.1383 96.8549C16.2001 96.8286 16.2478 96.7917 16.2761 96.7425C16.3061 96.6968 16.3202 96.6353 16.3202 96.5597V96.4683C16.0005 96.4683 15.7055 96.4314 15.4371 96.3559C15.1686 96.2838 14.9354 96.1731 14.7394 96.0291C14.5415 95.885 14.3861 95.711 14.2783 95.5037C14.1688 95.2963 14.1123 95.0573 14.1123 94.7938C14.1123 94.5917 14.1529 94.3984 14.2306 94.2209C14.3084 94.0417 14.4391 93.8783 14.621 93.7307C14.7923 93.5919 15.0167 93.4812 15.2975 93.3951C15.5766 93.309 15.9051 93.2668 16.2831 93.2668H16.3202C16.3202 93.1719 16.3079 93.1016 16.2831 93.0559C16.2602 93.0103 16.2107 92.9716 16.1383 92.9417C16.0782 92.9154 16.0076 92.8925 15.9263 92.8749C15.8468 92.8591 15.7762 92.8486 15.7161 92.8433V92.6008H18.0177V92.8433C17.9558 92.8451 17.887 92.8521 17.8075 92.8609C17.728 92.8697 17.6573 92.8855 17.5973 92.9048C17.5249 92.9312 17.4754 92.9663 17.4489 93.0173C17.4242 93.0665 17.4118 93.1491 17.4118 93.2668H17.4471C17.8304 93.2668 18.1607 93.309 18.4345 93.3933C18.7083 93.4777 18.9344 93.5919 19.1128 93.7307C19.2859 93.8748 19.4131 94.0347 19.4961 94.2174C19.5791 94.4002 19.6197 94.5917 19.6197 94.7938C19.6197 95.0538 19.5632 95.2928 19.4484 95.5037C19.3336 95.7145 19.1781 95.8902 18.9821 96.0291L18.9803 96.0308ZM15.4812 95.6688C15.5642 95.8358 15.6755 95.964 15.815 96.0519C15.9546 96.1433 16.1206 96.1872 16.3167 96.1872V93.5532H16.2195C16.0411 93.5532 15.8963 93.5954 15.7815 93.6815C15.6667 93.7658 15.5748 93.8713 15.5059 93.9943C15.4406 94.1085 15.3911 94.2455 15.3593 94.4054C15.3258 94.5671 15.3099 94.72 15.3099 94.8728C15.3099 94.98 15.3169 95.0995 15.3346 95.2295C15.3523 95.3613 15.4017 95.5072 15.483 95.6688H15.4812ZM18.249 95.6688C18.3197 95.53 18.3674 95.3894 18.3904 95.2418C18.4133 95.0942 18.4257 94.9712 18.4257 94.8728C18.4257 94.7411 18.408 94.5899 18.3762 94.4248C18.3444 94.2596 18.2932 94.1155 18.2279 93.9943C18.1554 93.8625 18.0636 93.7535 17.9505 93.6745C17.8393 93.5936 17.6927 93.5532 17.5143 93.5532H17.4171V96.1872C17.6114 96.1872 17.7792 96.1415 17.9223 96.0501C18.0653 95.957 18.1731 95.8323 18.249 95.6688Z" fill="black"/>
<path id="Vector_3" d="M24.8237 97.0958H22.4038V96.8533C22.5168 96.8445 22.6493 96.8252 22.8012 96.7918C22.9531 96.7601 23.0291 96.7215 23.0291 96.6723C23.0291 96.6565 23.0273 96.6371 23.0238 96.6178C23.022 96.5967 23.0132 96.5686 22.9973 96.5335L22.6193 95.618H21.0861C21.0508 95.7023 21.0119 95.8007 20.9695 95.9149C20.9271 96.0291 20.89 96.1311 20.86 96.2189C20.8194 96.3349 20.7964 96.4192 20.7911 96.472C20.7841 96.5229 20.7805 96.5598 20.7805 96.5791C20.7805 96.6459 20.83 96.7021 20.9307 96.7496C21.0331 96.7953 21.1991 96.8304 21.4358 96.8515V97.094H19.6147V96.8515C19.6836 96.848 19.7614 96.8357 19.8479 96.8181C19.9345 96.8005 20.0033 96.7759 20.0528 96.7461C20.1376 96.6951 20.2118 96.6354 20.2701 96.5633C20.3301 96.4913 20.3796 96.4052 20.4184 96.3033C20.6604 95.7216 20.9042 95.1365 21.1462 94.5514C21.3881 93.9645 21.6566 93.3196 21.9516 92.615H22.5769C22.9867 93.6148 23.3064 94.4055 23.5378 94.9872C23.7692 95.5688 23.967 96.0502 24.1295 96.4315C24.156 96.4948 24.1913 96.551 24.2319 96.602C24.2743 96.6529 24.3326 96.7021 24.4103 96.7478C24.4686 96.7812 24.5357 96.8058 24.6135 96.8234C24.6912 96.8392 24.7618 96.8497 24.8237 96.8533V97.0958ZM22.4903 95.3087L21.8492 93.7115L21.215 95.3087H22.4921H22.4903Z" fill="black"/>
<path id="Vector_4" d="M26.2943 97.0834C26.1989 97.0834 26.107 97.0852 26.0187 97.0887C25.9304 97.0922 25.8438 97.101 25.7555 97.1186C25.5895 97.152 25.4182 97.282 25.238 97.5069C25.0578 97.7318 24.9342 97.962 24.8653 98.1992H24.6304V96.7812H25.072C25.3563 96.363 25.6125 95.8235 25.8438 95.1646C26.0752 94.5057 26.19 93.9416 26.19 93.4742C26.19 93.353 26.1777 93.2581 26.1547 93.1948C26.13 93.1281 26.0788 93.0736 26.0028 93.0297C25.9481 92.998 25.8633 92.9752 25.7502 92.9559C25.6372 92.9383 25.5506 92.9277 25.4923 92.9207V92.6782H29.569V92.9207C29.5019 92.926 29.4277 92.9348 29.3447 92.9471C29.2617 92.9611 29.1857 92.9787 29.1186 92.998C29.0391 93.0261 28.9861 93.0683 28.9596 93.1263C28.9314 93.186 28.919 93.2475 28.919 93.3161V96.4772C28.919 96.5879 28.9526 96.6687 29.025 96.7215C29.0939 96.7742 29.1946 96.8005 29.327 96.8005H29.6203V98.1992H29.3853C29.3182 97.9655 29.191 97.7353 29.0056 97.5087C28.8201 97.282 28.6505 97.152 28.4951 97.1186C28.4315 97.1028 28.345 97.094 28.2337 97.0905C28.1224 97.0869 28.0306 97.0834 27.9564 97.0834H26.2943ZM27.8062 96.4983V92.9805H26.6599C26.6387 93.613 26.5309 94.2737 26.3402 94.9608C26.1494 95.6478 25.888 96.2541 25.5559 96.7812H27.5448C27.6296 96.7812 27.695 96.7584 27.7391 96.7127C27.7833 96.6687 27.8062 96.5967 27.8062 96.4983Z" fill="black"/>
<path id="Vector_5" d="M35.42 97.0957H33.0196V96.8532C33.0708 96.8497 33.1485 96.8426 33.2474 96.8339C33.3481 96.8268 33.417 96.8145 33.4541 96.797C33.53 96.7671 33.583 96.7267 33.613 96.6757C33.6413 96.6248 33.6554 96.5597 33.6554 96.4824V94.9572H31.7584V96.4455C31.7584 96.5158 31.7743 96.5791 31.8043 96.6353C31.8344 96.6898 31.8856 96.7337 31.9598 96.7653C32.0004 96.7829 32.0675 96.8005 32.1629 96.818C32.26 96.8374 32.3378 96.8497 32.3978 96.8532V97.0957H29.9974V96.8532C30.0504 96.8514 30.1263 96.8444 30.227 96.8339C30.3294 96.8233 30.4019 96.8075 30.4478 96.7917C30.5237 96.7636 30.575 96.7232 30.6032 96.6687C30.6333 96.6142 30.6474 96.5492 30.6474 96.4754V93.3477C30.6474 93.2774 30.635 93.2159 30.6085 93.1649C30.582 93.1157 30.529 93.0718 30.446 93.0349C30.386 93.0085 30.3065 92.9839 30.2093 92.9628C30.1104 92.94 30.0398 92.9277 29.9956 92.9224V92.6799H32.396V92.9224C32.3325 92.9277 32.2547 92.9382 32.1647 92.954C32.0746 92.9716 32.0057 92.9874 31.958 92.9997C31.8767 93.0279 31.822 93.07 31.7973 93.1298C31.7708 93.1895 31.7566 93.251 31.7566 93.3178V94.6392H33.6537V93.3494C33.6537 93.2791 33.6413 93.2176 33.613 93.1667C33.5866 93.1175 33.5318 93.0735 33.4505 93.0366C33.3958 93.012 33.3234 92.9874 33.2315 92.9663C33.1414 92.9435 33.069 92.9312 33.0143 92.9242V92.6817H35.4147V92.9242C35.3476 92.9295 35.2734 92.9382 35.1904 92.9505C35.1074 92.9646 35.0314 92.9822 34.9661 93.0015C34.8866 93.0296 34.8336 93.0718 34.8071 93.1298C34.7788 93.1895 34.7665 93.251 34.7665 93.3195V96.4508C34.7665 96.5264 34.7806 96.5896 34.8071 96.6406C34.8336 96.6933 34.8866 96.7355 34.9661 96.7706C35.0155 96.7917 35.0897 96.811 35.1833 96.8286C35.2787 96.8444 35.3564 96.8549 35.4165 96.8585V97.1009L35.42 97.0957Z" fill="black"/>
<path id="Vector_6" d="M41.6434 93.7835C41.6434 94.033 41.5922 94.2474 41.488 94.4284C41.3855 94.6076 41.2424 94.7535 41.0605 94.8659C40.8733 94.9819 40.6596 95.0663 40.4176 95.1172C40.1774 95.1699 39.9071 95.1963 39.6068 95.1963H39.243V96.4386C39.243 96.5142 39.2571 96.5774 39.2854 96.6319C39.3136 96.6864 39.3666 96.7303 39.4479 96.7637C39.4885 96.7812 39.5574 96.7971 39.651 96.8164C39.7446 96.834 39.8241 96.848 39.8894 96.8533V97.0958H37.4819V96.8533C37.542 96.8463 37.6232 96.8375 37.7222 96.8269C37.8228 96.8164 37.8935 96.8006 37.9323 96.7848C38.0136 96.7514 38.0684 96.7092 38.0949 96.6635C38.1196 96.6143 38.1337 96.5493 38.1337 96.4632V93.346C38.1337 93.2757 38.1213 93.2107 38.0966 93.158C38.0719 93.1053 38.0171 93.0613 37.9341 93.0262C37.8758 93.0016 37.7981 92.9805 37.701 92.9594C37.6038 92.9401 37.5314 92.926 37.4837 92.919V92.6765H39.9336C40.5077 92.6765 40.9369 92.7661 41.2213 92.9471C41.5056 93.1299 41.6469 93.4075 41.6469 93.7818L41.6434 93.7835ZM40.4229 93.9417C40.4229 93.6113 40.3558 93.3636 40.2197 93.2019C40.0855 93.0402 39.8453 92.9594 39.5026 92.9594H39.2412V94.9011H39.3737C39.7146 94.9011 39.976 94.822 40.1544 94.6656C40.3328 94.5092 40.4229 94.2685 40.4229 93.9417Z" fill="black"/>
<path id="Vector_7" d="M46.0791 93.1703C46.2964 93.3689 46.4695 93.6114 46.5984 93.8908C46.7274 94.1737 46.7927 94.4952 46.7927 94.8572C46.7927 95.1788 46.738 95.4863 46.6285 95.7744C46.5207 96.0661 46.3618 96.3174 46.1586 96.5265C45.9431 96.7426 45.6923 96.9131 45.4009 97.0343C45.113 97.1573 44.7668 97.2171 44.3676 97.2171C44.0443 97.2171 43.737 97.1644 43.4491 97.0589C43.1612 96.9535 42.9086 96.7989 42.686 96.5985C42.4705 96.4017 42.2974 96.161 42.172 95.8799C42.0448 95.597 41.9795 95.2842 41.9795 94.9363C41.9795 94.5884 42.0413 94.2475 42.1667 93.954C42.2904 93.6606 42.4599 93.4093 42.6772 93.2002C42.8945 92.9946 43.147 92.8365 43.4438 92.724C43.7388 92.6133 44.0514 92.5588 44.387 92.5588C44.7226 92.5588 45.0317 92.6115 45.3214 92.7205C45.6146 92.8277 45.8672 92.9788 46.0791 93.1721V93.1703ZM45.2719 96.3332C45.3673 96.1434 45.4362 95.9291 45.4751 95.6919C45.5192 95.4511 45.5369 95.1823 45.5369 94.8801C45.5369 94.6235 45.5192 94.3757 45.4839 94.1315C45.4486 93.8908 45.3867 93.6746 45.2984 93.4849C45.2101 93.2951 45.09 93.1422 44.9416 93.0298C44.7933 92.9155 44.6096 92.8576 44.387 92.8576C44.0108 92.8576 43.7246 93.0368 43.5268 93.3917C43.329 93.7484 43.2318 94.2527 43.2318 94.9029C43.2318 95.1805 43.253 95.4406 43.2989 95.6866C43.3378 95.9308 43.4067 96.1452 43.4985 96.328C43.5921 96.5125 43.7123 96.6565 43.8571 96.7602C43.9984 96.8639 44.1768 96.9148 44.387 96.9148C44.5972 96.9148 44.7703 96.8639 44.9187 96.7585C45.067 96.6548 45.1854 96.5142 45.2719 96.3332Z" fill="black"/>
<path id="Vector_8" d="M49.5633 97.2169C49.2365 97.2169 48.9327 97.1642 48.6501 97.0605C48.3657 96.9551 48.1184 96.8022 47.9064 96.6037C47.6998 96.4069 47.5355 96.1644 47.4172 95.878C47.2988 95.5898 47.2388 95.2735 47.2388 94.9291C47.2388 94.5847 47.3006 94.2667 47.4207 93.9767C47.5408 93.6833 47.7086 93.432 47.9259 93.2176C48.1378 93.005 48.3922 92.8451 48.6907 92.7274C48.9892 92.6132 49.3089 92.5552 49.648 92.5552C49.8936 92.5552 50.1214 92.5868 50.3192 92.6448C50.5241 92.7045 50.6937 92.7731 50.8332 92.8486L51.0275 92.6764H51.2978L51.3261 94.2895H51.0505C50.8933 93.7975 50.7061 93.4355 50.487 93.2036C50.268 92.9716 50.0013 92.8574 49.6869 92.8574C49.2965 92.8574 48.998 93.0296 48.7931 93.374C48.59 93.7184 48.4876 94.2016 48.4876 94.8237C48.4876 95.1751 48.5211 95.4738 48.5918 95.7216C48.6624 95.9711 48.7507 96.1714 48.8673 96.3243C48.9874 96.4807 49.1287 96.5984 49.293 96.6705C49.459 96.746 49.641 96.7812 49.8423 96.7812C50.132 96.7812 50.3917 96.7038 50.6213 96.5457C50.8491 96.3893 51.0576 96.1486 51.2448 95.8288L51.5151 95.9922C51.4267 96.1749 51.3243 96.3383 51.2095 96.4824C51.0947 96.6283 50.9604 96.7513 50.8103 96.855C50.646 96.9692 50.4641 97.0588 50.2645 97.122C50.0649 97.1853 49.83 97.2187 49.5597 97.2187L49.5633 97.2169Z" fill="black"/>
<path id="Vector_9" d="M54.1466 97.2169C53.8216 97.2169 53.5178 97.1642 53.2334 97.0605C52.9491 96.9551 52.7035 96.8022 52.4898 96.6037C52.2832 96.4069 52.1224 96.1644 52.0023 95.878C51.8822 95.5898 51.8257 95.2735 51.8257 94.9291C51.8257 94.5847 51.8857 94.2667 52.0058 93.9767C52.126 93.6833 52.2938 93.432 52.511 93.2176C52.7247 93.005 52.9791 92.8451 53.2758 92.7274C53.5779 92.6132 53.8941 92.5552 54.2332 92.5552C54.4822 92.5552 54.7048 92.5868 54.9079 92.6448C55.1111 92.7045 55.2806 92.7731 55.4219 92.8486L55.6145 92.6764H55.8865L55.913 94.2895H55.6374C55.482 93.7975 55.2965 93.4355 55.074 93.2036C54.8567 92.9716 54.59 92.8574 54.2756 92.8574C53.8835 92.8574 53.5832 93.0296 53.3801 93.374C53.1769 93.7184 53.0745 94.2016 53.0745 94.8237C53.0745 95.1751 53.1098 95.4738 53.1805 95.7216C53.2493 95.9711 53.3394 96.1714 53.4525 96.3243C53.5743 96.4807 53.7157 96.5984 53.8799 96.6705C54.0442 96.746 54.2261 96.7812 54.4275 96.7812C54.7172 96.7812 54.9803 96.7038 55.2064 96.5457C55.4378 96.3893 55.6463 96.1486 55.8317 95.8288L56.102 95.9922C56.0119 96.1749 55.9094 96.3383 55.7946 96.4824C55.6798 96.6283 55.5491 96.7513 55.3972 96.855C55.2329 96.9692 55.051 97.0588 54.8514 97.122C54.6518 97.1853 54.4169 97.2187 54.1449 97.2187L54.1466 97.2169Z" fill="black"/>
<path id="Vector_10" d="M61.878 97.0959H59.497V96.8534C59.5482 96.8499 59.6259 96.8428 59.723 96.8341C59.8255 96.8235 59.8944 96.813 59.9315 96.7954C60.0074 96.7638 60.0604 96.7216 60.0904 96.6724C60.1187 96.6214 60.1346 96.5582 60.1346 96.4773V93.8961L58.1369 96.3631C58.1369 96.5072 58.1528 96.6021 58.1793 96.646C58.2058 96.6917 58.2588 96.7321 58.3382 96.7673C58.3806 96.7866 58.4495 96.8042 58.5414 96.8218C58.6368 96.8393 58.7145 96.8499 58.7745 96.8551V97.0976H56.4023V96.8551C56.4536 96.8534 56.5313 96.8464 56.6302 96.8358C56.7326 96.8253 56.8086 96.8094 56.8528 96.7936C56.9287 96.7655 56.9817 96.7251 57.0082 96.6706C57.0382 96.6162 57.0524 96.5511 57.0524 96.4773V93.3496C57.0524 93.2793 57.0382 93.2178 57.0153 93.1669C56.9888 93.1177 56.9358 93.0737 56.8528 93.0368C56.7927 93.0105 56.7132 92.9859 56.6161 92.9648C56.5172 92.9419 56.4447 92.9296 56.4041 92.9244V92.6819H58.7851V92.9244C58.7215 92.9296 58.6438 92.9402 58.552 92.956C58.4637 92.9736 58.3948 92.9894 58.3488 93.0017C58.2676 93.0298 58.2111 93.072 58.1863 93.1317C58.1598 93.1915 58.1457 93.253 58.1457 93.3197V95.85L60.1434 93.383C60.1434 93.2758 60.1258 93.1985 60.094 93.1546C60.0639 93.1106 60.0127 93.0702 59.9385 93.0368C59.8767 93.0087 59.8061 92.9841 59.716 92.9648C59.6312 92.9472 59.5588 92.9332 59.504 92.9244V92.6819H61.8762V92.9244C61.8091 92.9296 61.7349 92.9384 61.6501 92.9507C61.5653 92.9648 61.4911 92.9824 61.424 93.0017C61.3445 93.0298 61.2915 93.072 61.265 93.13C61.2386 93.1897 61.2244 93.2512 61.2244 93.3197V96.451C61.2244 96.5266 61.2368 96.5898 61.265 96.6408C61.2915 96.6935 61.3445 96.7356 61.424 96.7708C61.4752 96.7919 61.5477 96.8112 61.6413 96.8288C61.7384 96.8446 61.8144 96.8551 61.8762 96.8586V97.1011L61.878 97.0959Z" fill="black"/>
<path id="Vector_11" d="M67.7864 97.0959H65.4053V96.8534C65.4566 96.8499 65.5343 96.8428 65.6314 96.8341C65.7339 96.8235 65.8028 96.813 65.8399 96.7954C65.9158 96.7638 65.9688 96.7216 65.9988 96.6724C66.0271 96.6214 66.043 96.5582 66.043 96.4773V93.8961L64.0453 96.3631C64.0453 96.5072 64.0612 96.6021 64.0877 96.646C64.1142 96.6917 64.1671 96.7321 64.2484 96.7673C64.2908 96.7866 64.3597 96.8042 64.4515 96.8218C64.5469 96.8393 64.6246 96.8499 64.6847 96.8551V97.0976H62.3125V96.8551C62.3637 96.8534 62.4414 96.8464 62.5404 96.8358C62.6428 96.8253 62.717 96.8094 62.7629 96.7936C62.8389 96.7655 62.8919 96.7251 62.9183 96.6706C62.9501 96.6162 62.9625 96.5511 62.9625 96.4773V93.3496C62.9625 93.2793 62.9484 93.2178 62.9254 93.1669C62.8989 93.1177 62.8459 93.0737 62.7629 93.0368C62.7029 93.0105 62.6234 92.9859 62.5262 92.9648C62.4255 92.9419 62.3549 92.9296 62.3125 92.9244V92.6819H64.6935V92.9244C64.6299 92.9296 64.5522 92.9402 64.4604 92.956C64.372 92.9736 64.3031 92.9894 64.2572 93.0017C64.1742 93.0298 64.1195 93.072 64.0947 93.1317C64.0682 93.1915 64.0541 93.253 64.0541 93.3197V95.85L66.0518 93.383C66.0518 93.2758 66.0342 93.1985 66.0024 93.1546C65.9706 93.1106 65.9211 93.0702 65.8469 93.0368C65.7851 93.0087 65.7144 92.9841 65.6261 92.9648C65.5413 92.9472 65.4689 92.9332 65.4124 92.9244V92.6819H67.7846V92.9244C67.7175 92.9296 67.6433 92.9384 67.5585 92.9507C67.4737 92.9648 67.3995 92.9824 67.3324 93.0017C67.2529 93.0298 67.1999 93.072 67.1734 93.13C67.1469 93.1897 67.1328 93.2512 67.1328 93.3197V96.451C67.1328 96.5266 67.1469 96.5898 67.1734 96.6408C67.1999 96.6935 67.2529 96.7356 67.3324 96.7708C67.3836 96.7919 67.456 96.8112 67.5497 96.8288C67.6468 96.8446 67.7228 96.8551 67.7846 96.8586V97.1011L67.7864 97.0959Z" fill="black"/>
</g>
</g>
</g>
</g>
<defs>
<clipPath id="clip0_169_996">
<rect width="81.9453" height="98.1989" fill="white"/>
</clipPath>
</defs>
</svg>
