<svg width="191" height="55" viewBox="0 0 191 55" fill="none" xmlns="http://www.w3.org/2000/svg">
<g id="&#209;&#134;&#208;&#181;&#208;&#189;&#209;&#130;&#209;&#128; &#209;&#133;&#208;&#190;&#208;&#187;&#208;&#190;&#208;&#186;&#208;&#190;&#209;&#129;&#209;&#130; 1" clip-path="url(#clip0_169_1011)">
<g id="Layer 1">
<g id="Group">
<g id="Group_2">
<path id="Vector" d="M1.60889 19.7086V12.2224H3.84217V17.9419H5.45423V12.2224H7.68752V17.9419H8.56563V21.2814H7.11871L6.9326 19.706H1.60889V19.7086Z" fill="black"/>
<path id="Vector_2" d="M14.8098 17.921V19.7086H9.17676V12.2224H14.8098V13.9498H11.431V15.035H14.1623V16.6968H11.431V17.921H14.8098Z" fill="black"/>
<path id="Vector_3" d="M22.1737 12.2224V19.7086H19.8749V16.7965H18.1186V19.7086H15.8198V12.2224H18.1186V14.9747H19.8749V12.2224H22.1737Z" fill="black"/>
<path id="Vector_4" d="M26.647 14.0153V19.7086H24.4688V14.0153H22.917V12.2224H28.1988V14.0153H26.647Z" fill="black"/>
<path id="Vector_5" d="M31.2912 16.9878V19.7086H28.9609V12.2224H32.1588C32.9557 12.2224 33.5612 12.3142 33.978 12.4976C34.3921 12.6811 34.7224 12.9616 34.9662 13.3364C35.2099 13.7139 35.3305 14.1359 35.3305 14.6025C35.3305 15.3155 35.0815 15.8921 34.5835 16.3299C34.0854 16.7676 33.4223 16.9878 32.5913 16.9878H31.2912ZM31.2571 15.381H32.0252C32.7014 15.381 33.0396 15.132 33.0396 14.6339C33.0396 14.1647 32.7276 13.9315 32.1012 13.9315H31.2571V15.3784V15.381Z" fill="black"/>
</g>
<g id="Group_3">
<path id="Vector_6" d="M110.944 11.9319C107.465 11.7825 103.971 11.7798 100.509 11.4391C97.9869 11.1901 95.4469 10.7025 93.0301 9.95547C89.8506 8.96989 86.4089 10.6055 85.8086 14.2621C85.5098 16.0813 85.4495 17.9424 85.363 19.7903C85.3132 20.8781 85.0904 21.2975 84.2333 21.4181C83.6252 21.502 83.2451 21.2975 83.1035 20.6842C82.4194 17.7012 81.7064 14.7156 81.9345 11.6226C81.9843 10.9463 82.1075 10.2359 82.3775 9.61733C84.6107 4.51904 89.3526 -0.0156866 96.4508 4.07886e-05C102.039 0.0131469 107.526 0.781167 113.007 1.68811C119.615 2.78116 126.231 3.80082 132.92 4.22284C139.332 4.62651 145.751 5.18745 152.165 5.19794C160.519 5.21104 168.841 4.4771 177.006 2.50856C177.423 2.40895 177.864 2.41157 178.291 2.36701C178.33 2.45613 178.367 2.54263 178.406 2.63175C178.06 2.87291 177.743 3.17959 177.363 3.34473C174.448 4.61602 171.56 5.96596 168.587 7.08784C158.828 10.7707 148.904 13.9266 138.674 16.0472C133.638 17.0931 128.545 17.772 123.408 17.945C118.999 18.0944 114.579 18.1887 110.17 18.0813C106.425 17.9895 102.684 17.5649 98.941 17.3028C97.2949 17.1874 95.6435 17.1062 93.9947 17.0249C92.7208 16.962 91.633 17.426 90.7444 18.3172C89.9816 19.08 89.2896 19.9135 88.5111 20.6632C88.3224 20.8441 87.8742 20.9437 87.6356 20.8493C87.211 20.6815 86.7156 20.3984 87.0039 19.7693C87.6304 18.4063 88.1809 16.9987 88.9358 15.7117C89.6488 14.4981 90.9541 14.1389 92.2857 14.1049C94.0577 14.0603 95.8348 14.1888 97.6042 14.1101C100.451 13.9817 103.308 13.8742 106.128 13.5072C107.793 13.2923 109.394 12.5924 111.025 12.1127L110.936 11.9319H110.944Z" fill="black"/>
<path id="Vector_7" d="M32.8165 52.9724C27.8598 52.7994 24.0014 51.3525 20.8113 48.2988C19.0997 46.6579 17.7995 44.6946 17.215 42.4063C16.8533 40.9934 16.8192 39.4679 16.8297 37.9947C16.8428 36.1599 16.8585 34.2805 17.2438 32.5033C17.5295 31.1874 18.3133 29.9371 19.0577 28.7733C19.6894 27.7851 20.4994 26.8703 21.3775 26.0891C22.2609 25.3028 23.3329 24.7313 24.3054 24.0419C24.6593 23.7903 24.924 23.3945 25.3015 23.2005C26.1272 22.7759 26.966 22.2988 27.8572 22.1101C28.6357 21.945 29.4902 22.1678 30.3106 22.1756C31.6317 22.1861 32.9555 22.1153 34.2739 22.1651C34.8585 22.1861 35.4509 22.3722 36.0144 22.5636C38.4941 23.405 40.9109 24.4115 42.7562 26.3381C45.0996 28.7838 46.4653 31.6619 47.1206 35.0616C47.7051 38.0996 47.0472 40.8283 46.1245 43.5465C45.4718 45.4679 43.9594 46.9253 42.6226 48.4587C40.8637 50.4744 38.5125 51.4757 36.1429 52.3932C34.9476 52.8571 33.5715 52.8545 32.8218 52.9724H32.8165ZM43.5007 37.4574C43.5007 37.4574 43.5007 37.4574 43.5033 37.4548C43.5033 36.2647 43.5295 35.0721 43.4902 33.882C43.4745 33.4495 43.3644 32.9987 43.194 32.5976C42.633 31.2765 42.5125 29.7222 41.2045 28.789C41.1625 28.7602 41.1704 28.6684 41.1311 28.6265C40.2372 27.6435 39.4823 26.4509 38.4076 25.7405C37.0918 24.8676 35.519 24.3696 34.0249 23.7877C33.7576 23.6828 33.3224 23.9214 32.9974 24.0708C32.2215 24.4273 31.5007 25.0066 30.6933 25.1665C28.9057 25.5177 27.3906 26.3984 25.8546 27.2687C25.7025 27.3552 25.5636 27.4758 25.4378 27.6016C24.2582 28.7733 23 29.882 21.9332 31.1481C21.215 31.9974 20.4155 33.0223 20.2687 34.0577C19.962 36.2202 19.4509 38.4299 20.1141 40.6396C20.3238 41.3368 20.35 42.1101 20.654 42.7549C21.2438 44 21.8755 45.2477 22.675 46.3643C23.3644 47.3263 24.1901 48.3014 25.1757 48.9148C26.447 49.7064 27.9568 50.1074 29.3329 50.7444C30.0407 51.0747 30.4705 50.8624 30.9817 50.3617C31.4063 49.9449 31.9515 49.5648 32.5099 49.3892C34.0223 48.9174 35.5741 48.5766 37.0996 48.1441C37.3618 48.0681 37.5741 47.7981 37.7969 47.6016C38.5728 46.9122 39.3591 46.2306 40.1062 45.5124C40.7195 44.9227 41.3172 44.3093 41.8572 43.654C42.1953 43.2451 42.4627 42.7601 42.6802 42.2726C42.9922 41.578 43.3539 40.8676 43.4692 40.1284C43.6055 39.2556 43.5007 38.346 43.5007 37.4548V37.4574Z" fill="black"/>
<path id="Vector_8" d="M131.286 22.1492C132.78 21.7849 134.641 22.4454 136.384 23.1715C138.953 24.2384 141.281 25.7482 142.717 28.2908C143.165 29.0876 143.797 29.8059 144.109 30.6499C144.743 32.3694 145.328 34.1256 145.719 35.9107C146.036 37.3655 145.981 38.8674 145.393 40.3196C145.008 41.2764 144.825 42.3117 144.528 43.3052C144.038 44.9487 142.924 46.1859 141.926 47.5358C140.657 49.2501 139.032 50.3641 137.171 51.2396C136.523 51.5437 135.839 51.7691 135.184 52.0575C133.113 52.967 130.961 53.0902 128.754 52.7757C128.133 52.6866 127.456 52.7888 126.885 52.5817C125.404 52.0444 123.933 51.4572 122.523 50.7547C121.087 50.0391 119.742 49.1295 118.806 47.7822C118.036 46.6735 117.383 45.486 116.626 44.3694C115.695 42.9933 115.218 41.4336 115.103 39.8373C114.814 35.8478 115.116 31.9946 117.627 28.5581C119.38 26.1597 121.546 24.5503 124.248 23.3131C126.411 22.3249 128.555 22.2253 131.289 22.1519L131.286 22.1492ZM129.294 51.0666C129.464 49.8949 130.319 49.3969 131.488 49.1925C132.476 49.0195 133.49 48.8307 134.4 48.4375C135.289 48.0522 136.025 47.3288 136.893 46.8779C139.511 45.5096 140.859 43.1898 141.779 40.5424C142.424 38.684 142.298 36.7705 141.949 34.891C141.433 32.102 140.922 29.3052 138.521 27.3131C137.923 26.8177 137.567 26.0391 136.707 25.8347C136.557 25.798 136.458 25.5831 136.314 25.4808C135.936 25.2161 135.572 24.9173 135.158 24.7207C134.437 24.3773 133.698 24.0601 132.94 23.8111C132.623 23.7063 132.154 23.6669 131.899 23.8268C130.342 24.8019 128.644 25.3865 126.901 25.9264C124.639 26.6237 123.053 28.3904 121.344 29.8819C119.973 31.0771 119.163 32.7521 118.573 34.5136C117.881 36.587 117.939 38.6368 118.392 40.739C118.793 42.6053 119.475 44.3406 120.657 45.8242C121.818 47.2763 122.906 48.836 124.846 49.4467C125.703 49.7167 126.471 50.2593 127.315 50.5922C127.881 50.815 128.508 50.8858 129.297 51.0666H129.294Z" fill="black"/>
<path id="Vector_9" d="M87.6742 21.8529C87.2574 22.3116 86.838 22.7677 86.3531 23.2998C86.5681 23.4492 86.7332 23.6432 86.9324 23.693C88.3426 24.0416 89.5432 24.8333 90.5969 25.7402C92.1513 27.0823 93.5825 28.579 94.9848 30.0836C95.8393 31.001 95.2417 33.2422 94.0857 33.7795C93.9652 33.8372 93.7895 33.8267 93.6532 33.7926C93.129 33.6589 92.0228 32.1937 92.0202 31.6511C92.0202 31.3208 92.0438 30.9905 92.0307 30.6629C92.0228 30.4584 92.0307 30.1858 91.9101 30.0626C91.1736 29.326 90.4082 28.6183 89.6428 27.9106C89.2941 27.5882 88.9429 27.2605 88.5576 26.9853C88.3348 26.828 87.973 26.6262 87.7974 26.7074C87.6034 26.7992 87.42 27.2133 87.4593 27.4466C87.5563 28.018 87.7188 28.6 87.9809 29.1163C88.3086 29.7664 88.6415 30.3326 88.3951 31.1347C88.188 31.8136 88.4711 32.3378 89.3072 32.461C90.049 32.5711 90.6257 33.3444 90.589 34.0836C90.5523 34.8254 89.9835 35.0692 89.3806 35.2186C87.8393 35.6013 86.2981 35.9813 84.7463 36.3195C84.1958 36.4401 83.6192 36.503 83.0582 36.4794C82.167 36.4427 81.7057 35.4781 82.3636 34.8962C83.4278 33.9551 83.3885 33.0534 82.6965 31.9735C82.5471 31.7428 82.555 31.4125 82.437 30.8935C83.108 31.1216 83.5956 31.2946 84.0884 31.4545C84.9901 31.7481 85.0556 31.4256 85.4121 30.6288C86.1146 29.0561 85.2312 27.9656 84.6441 26.7441C84.5785 26.6104 84.5209 26.4715 84.4711 26.33C83.9285 24.8097 83.5694 24.5816 81.973 24.6734C80.8485 24.7389 79.7004 24.6471 78.6021 24.8437C77.3597 25.0692 76.1382 25.4859 74.9508 25.9315C74.4606 26.115 74.3191 26.6078 74.7516 27.1111C74.9953 27.3942 75.1474 27.7533 75.4803 28.3169C74.6572 28.3169 74.0412 28.4007 73.4541 28.2985C72.3164 28.1019 71.3151 28.2592 70.5655 29.1871C69.7896 30.1465 68.9586 31.0823 68.3348 32.136C67.2522 33.9656 67.0635 36.0914 66.7909 38.1386C66.6887 38.9093 67.2181 39.7638 67.475 40.5764C67.6926 41.2684 68.0071 41.9394 68.1434 42.6445C68.3558 43.748 68.6389 44.7782 69.5537 45.541C69.7948 45.7428 70.0176 46.0495 70.0963 46.3457C70.4999 47.8974 71.5694 48.6602 73.0294 49.1583C74.1461 49.541 75.1552 50.2199 76.2404 50.7022C76.6598 50.8883 77.1605 50.8935 77.6244 50.98C77.9442 51.0403 78.3426 51.001 78.5654 51.1792C79.5668 51.9813 80.6808 51.8188 81.8184 51.7087C82.3898 51.6537 82.534 51.4335 82.4055 50.8883C82.112 49.6484 82.2247 49.4728 83.4462 49.098C85.1342 48.5816 86.8276 48.0704 88.5182 47.5646C89.5563 47.2552 90.2954 47.5016 90.6126 48.2382C90.9376 48.9879 90.6126 49.6694 89.6401 50.1753C89.0399 50.4898 88.3977 50.7205 87.8131 51.0586C87.5772 51.1949 87.4435 51.5121 87.2732 51.7559C87.0268 52.1071 86.8721 52.6392 86.5366 52.7939C84.3164 53.8345 81.9809 54.3876 79.5091 54.1098C79.1893 54.0731 78.8826 53.8424 78.5681 53.8319C77.8761 53.8109 77.1159 53.7061 76.5078 53.9472C75.8367 54.212 75.4095 54.136 75.032 53.6222C74.5969 53.0298 74.1408 52.7991 73.3544 52.9984C72.4134 53.2395 71.9731 52.8909 71.7398 51.8031C71.6271 51.2815 71.3204 51.1347 70.9534 50.8621C70.0491 50.1936 69.2548 49.3784 68.382 48.6602C67.9626 48.3168 67.441 48.0993 67.0216 47.7559C66.6624 47.4597 66.1094 47.0586 66.1199 46.7179C66.1539 45.6406 65.572 44.9643 64.88 44.3431C64.0491 43.596 63.8787 42.807 64.3558 41.7769C64.5812 41.2867 64.6022 40.6733 64.5995 40.115C64.5995 38.655 64.4842 37.195 64.5157 35.7376C64.5288 35.1923 64.7988 34.6471 64.9901 34.115C65.2024 33.5305 65.5117 32.98 65.69 32.3876C66.1487 30.8516 67.1133 29.6458 68.1487 28.4768C68.3453 28.254 68.4973 27.9918 68.7018 27.7795C69.4016 27.0665 70.0333 26.2513 70.8433 25.6983C71.7948 25.0482 72.34 24.1937 72.8092 23.2028C73.4226 21.9106 73.5117 21.9001 74.4947 22.8673C75.1552 23.5174 75.8761 23.0823 76.5445 23.0141C77.994 22.8673 79.4278 22.5528 80.8774 22.406C81.4829 22.3457 82.1146 22.6078 82.7306 22.5895C83.2968 22.5738 83.9101 22.4846 84.4082 22.2382C85.4304 21.7297 86.492 21.6825 87.551 21.52C87.593 21.6249 87.6323 21.7297 87.6742 21.8346V21.8529Z" fill="black"/>
<path id="Vector_10" d="M163.352 53.0487C160.275 53.3265 157.767 52.0867 155.263 50.7472C152.731 49.3921 151.187 47.1955 149.691 44.8495C148.511 43.0015 148.058 40.9858 147.843 38.9307C147.688 37.4445 148.01 35.9032 148.178 34.3908C148.456 31.9111 149.814 29.953 151.198 27.9557C152.697 25.7931 154.681 24.4039 157.046 23.4262C160.985 21.7984 164.946 21.7276 168.933 23.2401C169.649 23.5127 170.186 23.2217 170.721 22.7735C171.675 21.974 173.143 22.3384 173.502 23.5284C173.633 23.9688 173.539 24.6372 173.271 25.0042C172.432 26.1627 171.525 27.2872 170.524 28.3043C169.913 28.9229 169.096 29.3475 168.341 29.8115C167.916 30.071 167.622 29.8508 167.633 29.379C167.643 28.8207 167.641 28.2309 167.819 27.7145C168.013 27.1483 167.869 26.8731 167.371 26.6555C164.105 25.2348 160.807 25.2872 157.633 26.7735C156.013 27.531 154.65 28.7237 153.523 30.2387C152.605 31.4707 151.921 32.7892 151.491 34.1811C151.033 35.6647 150.904 37.2715 150.802 38.8338C150.739 39.801 150.972 40.7944 151.117 41.7669C151.219 42.4589 151.4 43.0985 152.27 43.261C152.595 43.3213 152.923 43.5729 153.172 43.8167C153.963 44.5847 154.812 45.3187 155.465 46.1968C156.768 47.9451 158.406 48.9569 160.529 49.5887C162.642 50.2178 164.718 50.2859 166.702 49.7407C168.595 49.2217 170.474 48.3174 172.081 47.1876C173.379 46.2754 174.267 44.7839 175.326 43.5389C175.753 43.0382 176.013 42.2256 176.915 42.6162C177.497 42.8704 177.591 43.8587 177.09 44.6241C176.241 45.9242 175.345 47.1929 174.466 48.472C174.398 48.569 174.312 48.6607 174.212 48.7263C172.616 49.7512 171.122 51.0408 169.389 51.7171C167.452 52.4694 165.47 53.489 163.352 53.0434V53.0487Z" fill="black"/>
<path id="Vector_11" d="M7.63977 41.5097C7.11814 42.4953 6.71185 43.3184 6.25314 44.1074C6.01985 44.5058 5.68695 44.8466 5.4091 45.2188C5.22037 45.473 4.87437 45.7456 4.88748 45.9947C4.96611 47.376 4.00412 48.3092 3.4956 49.4311C3.28591 49.8924 2.96874 50.3013 2.73807 50.7548C2.3711 51.473 1.68958 51.6329 1.00544 51.6984C0.423525 51.7535 -0.00897771 51.1637 0.208584 50.608C0.717103 49.3053 1.28853 48.0287 1.84423 46.7469C2.14305 46.0602 2.44973 45.3787 2.77739 44.7076C3.75773 42.7155 4.81933 40.7601 5.69744 38.726C5.99364 38.0445 6.04344 37.1087 5.84947 36.3879C5.13387 33.7404 4.2479 31.1375 3.47201 28.5058C3.31736 27.9868 3.36192 27.4075 3.30163 26.6788C4.23741 27.0982 4.71185 27.4652 4.91107 28.2384C5.07096 28.8492 5.51133 29.3839 5.81801 29.958C6.11159 30.5084 6.37896 31.0746 6.67778 31.6225C6.93466 32.0917 7.22037 32.5425 7.4956 33.0012C7.58472 32.9776 7.67646 32.954 7.76559 32.9304C7.95431 32.3459 8.13256 31.7588 8.33439 31.1795C8.98708 29.3289 9.66074 27.4862 10.2977 25.6303C10.4314 25.2424 10.4655 24.8151 10.5048 24.4036C10.5808 23.6277 10.9687 23.1113 11.7263 22.9226C12.5074 22.7286 13.7734 23.0904 13.8495 23.6723C13.9464 24.4272 13.915 25.3551 13.548 25.9816C12.1509 28.3721 11.5375 31.0615 10.4445 33.5622C10.1247 34.2961 9.91761 35.0825 9.57161 35.8007C9.01067 36.9671 9.09193 38.0392 9.61093 39.2293C10.5153 41.3027 11.244 43.4521 12.0749 45.5595C12.5021 46.6395 13.0316 47.6827 13.4458 48.7679C13.6634 49.342 13.8075 49.9684 13.8495 50.5792C13.8993 51.3315 13.2518 51.9684 12.3868 52.1257C11.6607 52.2568 11.1208 51.9317 10.8927 51.2659C10.2322 49.3524 9.62666 47.418 8.99232 45.4966C8.58079 44.2542 8.15353 43.0169 7.63977 41.5045V41.5097Z" fill="black"/>
<path id="Vector_12" d="M100.839 48.6971C100.732 47.8583 100.577 47.0222 100.524 46.1781C100.372 43.7587 100.236 41.3393 100.139 38.92C100.076 37.3498 100.126 35.7771 100.063 34.207C99.995 32.4848 99.8482 30.7653 99.7538 29.0458C99.6883 27.8217 99.6542 26.5976 99.6018 25.3734C99.5808 24.8702 99.4629 24.3512 99.5494 23.8662C99.6988 23.0196 100.666 22.4036 101.429 22.5714C102.338 22.7706 102.805 23.6644 102.742 24.6159C102.545 27.6513 102.43 30.6919 102.286 33.7299C102.422 33.7876 102.556 33.8426 102.692 33.9003C103.227 33.2109 103.798 32.5425 104.291 31.8243C105.096 30.6552 105.861 29.4547 106.627 28.2594C106.996 27.6801 107.258 27.0143 107.709 26.5137C107.998 26.1939 108.54 26.1048 108.97 25.9108C109.033 26.4115 109.308 27.0143 109.122 27.3944C108.079 29.5386 106.923 31.6251 105.814 33.7378C105.348 34.6264 104.737 35.4888 104.519 36.4376C104.393 36.9907 104.829 37.7509 105.172 38.3171C105.948 39.5936 106.742 40.8754 107.68 42.0314C109.24 43.9527 110.257 46.1939 111.573 48.2568C111.73 48.5032 111.971 48.6919 112.176 48.9095C112.815 49.591 112.821 50.7758 112.186 51.3629C111.484 52.013 110.443 51.9946 109.809 51.2319C109.439 50.7863 109.201 50.2306 108.926 49.7116C108.716 49.3184 108.54 48.9095 108.351 48.5058C107.767 47.2528 107.198 45.9946 106.598 44.7496C106.019 43.5543 105.387 42.3852 104.815 41.1899C104.545 40.6264 104.38 40.0156 104.118 39.4494C103.99 39.1742 103.749 38.9514 103.557 38.705C103.319 38.9462 103.004 39.148 102.852 39.4363C102.1 40.8701 101.903 42.4272 101.827 44.0313C101.759 45.4494 101.494 46.857 101.295 48.2673C101.274 48.4219 101.127 48.5582 101.038 48.7024C100.97 48.7024 100.902 48.6998 100.834 48.6971H100.839Z" fill="black"/>
<path id="Vector_13" d="M185.182 27.1112C185.358 27.8688 185.588 28.6184 185.696 29.3865C185.864 30.5975 186 31.819 186.06 33.0404C186.22 36.2986 186.325 39.5568 186.467 42.815C186.564 45.085 186.789 47.3524 186.76 49.6197C186.734 51.6983 186.084 52.5765 184.28 51.9841C183.612 51.7639 183.371 51.2685 183.371 50.6053C183.368 48.8727 183.305 47.14 183.36 45.41C183.46 42.393 183.628 39.3786 183.78 36.3668C183.827 35.4415 183.945 34.5188 183.992 33.5961C184.071 32.0444 184.066 30.4874 184.21 28.9435C184.27 28.3065 184.624 27.6984 184.847 27.0771C184.959 27.0903 185.072 27.1034 185.185 27.1138L185.182 27.1112Z" fill="black"/>
<path id="Vector_14" d="M50.6953 45.2451C51.0885 42.844 51.4817 40.4404 51.8749 38.0393C51.9168 37.7746 51.9954 37.5046 51.9771 37.2425C51.7988 34.8807 52.3729 32.6107 52.7635 30.3146C52.9234 29.3762 52.9469 28.4168 53.0728 27.4705C53.2327 26.2464 53.3375 25.0039 53.6416 23.8165C53.8958 22.8257 55.099 22.4115 56.0846 22.8074C57.0177 23.1822 57.4659 24.2307 57.196 25.1638C56.2864 28.3093 55.272 31.4207 54.7372 34.6763C54.2785 37.4626 53.4659 40.1913 52.85 42.9515C52.6481 43.8506 52.6429 44.7942 52.407 45.6828C52.2759 46.1782 51.8618 46.5976 51.576 47.0485C51.3401 46.5452 51.099 46.0472 50.8736 45.5387C50.8421 45.4653 50.8788 45.363 50.884 45.2713C50.8211 45.2608 50.7582 45.2503 50.6979 45.2425L50.6953 45.2451Z" fill="black"/>
<path id="Vector_15" d="M63.1088 50.1153C63.0381 50.4115 63.0512 50.7995 62.8677 51.0354C62.54 51.4574 62.1259 52.0314 61.6855 52.0917C61.2425 52.152 60.4798 51.7851 60.2858 51.3945C59.8454 50.5059 59.5571 49.5046 59.4103 48.519C59.0564 46.1311 58.8048 43.7248 58.54 41.3237C58.3985 40.0472 58.3749 38.7549 58.1914 37.4836C57.9739 35.9817 57.5702 34.5059 57.3815 33.004C57.2006 31.5623 57.1665 30.097 57.1246 28.6422C57.1193 28.422 57.4129 28.194 57.5676 27.9712C57.7773 28.1547 58.1102 28.3015 58.1757 28.5269C58.6397 30.0944 59.1062 31.6671 59.4627 33.2635C59.8061 34.8021 59.9739 36.3775 60.2989 37.9188C60.6108 39.4024 61.0459 40.8572 61.3893 42.3355C61.9398 44.7104 62.4614 47.0904 62.9909 49.4705C63.0355 49.675 63.0643 49.882 63.1088 50.1206V50.1153Z" fill="black"/>
<path id="Vector_16" d="M190.871 23.2056C189.938 23.4389 189.018 23.7692 188.072 23.8819C186.001 24.1309 183.92 24.2856 181.839 24.4429C181.076 24.5005 180.295 24.5241 179.54 24.4271C178.777 24.3275 178.434 23.6958 178.442 22.9933C178.447 22.338 178.843 21.8295 179.553 21.8111C180.738 21.7823 181.928 21.7797 183.11 21.8557C185.134 21.9868 187.152 22.1703 189.17 22.3721C189.739 22.4298 190.295 22.6237 190.858 22.7574C190.864 22.9068 190.869 23.0562 190.874 23.2056H190.871Z" fill="black"/>
<path id="Vector_17" d="M82.2867 39.2818C82.2185 38.6946 82.4885 38.2359 83.1123 38.021C84.8319 37.4312 86.5383 36.789 88.2866 36.291C89.613 35.9135 90.5225 36.6265 90.5225 37.8453C90.5225 38.5321 90.2342 38.9594 89.5396 39.1455C87.6313 39.6592 85.7309 40.2097 83.8253 40.7392C83.0337 40.9594 82.2998 40.291 82.2867 39.2792V39.2818Z" fill="black"/>
<path id="Vector_18" d="M89.1172 43.827C89.9638 43.6671 90.4173 44.0525 90.6218 44.7969C90.7948 45.426 90.2391 46.3487 89.5313 46.5557C87.8433 47.0459 86.1447 47.5099 84.4435 47.9502C84.1106 48.0367 83.7201 48.0262 83.3819 47.9502C82.8472 47.827 82.0372 47.7327 82.1709 47.0328C82.2889 46.4116 82.7476 45.5387 83.2561 45.3683C85.167 44.7235 87.1565 44.3225 89.1198 43.8297L89.1172 43.827Z" fill="black"/>
<path id="Vector_19" d="M90.5121 41.3211C90.5121 42.2491 89.9066 42.9463 88.9734 43.1429C87.4243 43.4732 85.8778 43.8113 84.3391 44.173C82.9132 44.5086 82.2054 44.1416 82.3129 42.9778C82.3496 42.5793 82.6799 41.9817 83.0101 41.8742C85.0495 41.1979 87.1176 40.5977 89.1962 40.0498C89.9879 39.8428 90.5095 40.4221 90.5121 41.3185V41.3211Z" fill="black"/>
</g>
</g>
</g>
</g>
<defs>
<clipPath id="clip0_169_1011">
<rect width="190.718" height="54.1991" fill="white" transform="translate(0.165039)"/>
</clipPath>
</defs>
</svg>
