<svg width="231" height="99" viewBox="0 0 231 99" fill="none" xmlns="http://www.w3.org/2000/svg">
<g id="Layer_1" clip-path="url(#clip0_169_1035)">
<path id="Vector" fill-rule="evenodd" clip-rule="evenodd" d="M66.1826 96.2054V93.9218C66.1826 93.802 66.1636 93.6632 66.438 93.6632H66.7408V93.4077H65.0439V93.6632H65.3467C65.6211 93.6632 65.6022 93.7988 65.6022 93.9218V96.6154C65.6022 96.7353 65.6243 96.874 65.3467 96.874H65.0439V97.1295H66.7408V96.874H66.3245C66.1794 96.874 66.1826 96.7857 66.1826 96.7258V96.6501L67.8101 94.335V96.6186C67.8101 96.7384 67.829 96.8772 67.5546 96.8772H67.2518V97.1327H68.9487V96.8772H68.6459C68.3715 96.8772 68.3904 96.7384 68.3904 96.6186V93.925C68.3904 93.8051 68.3683 93.6664 68.6459 93.6664H68.9487V93.4109H67.2486V93.6664H67.5924C67.7186 93.6664 67.8132 93.6947 67.8132 93.8209V93.8934L66.1857 96.2085L66.1826 96.2054Z" fill="black"/>
<path id="Vector_2" fill-rule="evenodd" clip-rule="evenodd" d="M71.4526 93.4074V93.6629H71.7554C72.0298 93.6629 72.0109 93.7986 72.0109 93.9216V96.6151C72.0109 96.735 72.0298 96.8738 71.7554 96.8738H71.4526V97.1293H73.4302C74.5247 97.1293 74.7613 96.5331 74.7613 96.1704C74.7613 95.6563 74.3701 95.2683 73.7961 95.2116V95.18C74.2787 95.0539 74.5436 94.7038 74.5436 94.3253C74.5436 93.9468 74.2219 93.4043 73.1905 93.4043H71.4526V93.4074ZM72.5913 95.0917V93.9216C72.5913 93.8017 72.5692 93.6629 72.8467 93.6629H73.1842C73.5532 93.6629 73.9444 93.8774 73.9444 94.3915C73.9444 95.0633 73.3829 95.0917 73.1748 95.0917H72.5913ZM72.5913 95.3504H73.2095C73.7299 95.3504 74.1021 95.609 74.1021 96.1389C74.1021 96.8454 73.4618 96.8738 73.2095 96.8738H72.8436C72.5692 96.8738 72.5881 96.735 72.5881 96.6151V95.3504H72.5913Z" fill="black"/>
<path id="Vector_3" fill-rule="evenodd" clip-rule="evenodd" d="M76.0889 94.8745H76.1866C76.4264 94.8745 76.5052 94.9281 76.5147 95.193V95.3255C76.4926 95.9816 76.4011 96.3916 76.3727 96.4894C76.275 96.8742 76.1425 96.9183 76.0826 96.9183C76.051 96.9183 76.0037 96.9088 76.0037 96.8395C76.0037 96.8237 76.0037 96.8079 76.01 96.7921C76.0132 96.7701 76.0195 96.7543 76.0195 96.7322C76.0195 96.6218 75.9438 96.4925 75.7798 96.4925C75.6284 96.4925 75.5054 96.6124 75.5054 96.8174C75.5054 97.1549 75.8082 97.2116 75.8996 97.2116C76.5399 97.2116 76.6535 96.461 76.7102 95.8522C76.7638 95.316 76.6629 94.8776 77.0162 94.8776H77.2149C77.2874 94.8776 77.4167 94.8776 77.4167 94.9817V96.7196C77.4167 96.8899 77.3379 96.8899 77.2338 96.8899H77.0036V97.1296H78.2715V96.8899H78.0412C77.9372 96.8899 77.8583 96.8899 77.8583 96.7196V95.0448C77.8583 94.8745 77.9372 94.8745 78.0412 94.8745H78.2715V94.6348H76.0826V94.8745H76.0889Z" fill="black"/>
<path id="Vector_4" fill-rule="evenodd" clip-rule="evenodd" d="M78.9434 96.7916C78.9434 97.0187 79.1105 97.2079 79.3345 97.2079C79.5426 97.2079 79.7287 97.0282 79.7287 96.7916C79.7287 96.555 79.5426 96.3784 79.3345 96.3784C79.1263 96.3784 78.9434 96.5645 78.9434 96.7916Z" fill="black"/>
<path id="Vector_5" fill-rule="evenodd" clip-rule="evenodd" d="M81.5019 96.2054V93.9218C81.5019 93.802 81.483 93.6632 81.7574 93.6632H82.0602V93.4077H80.3633V93.6632H80.6661C80.9405 93.6632 80.9215 93.7988 80.9215 93.9218V96.6154C80.9215 96.7353 80.9436 96.874 80.6661 96.874H80.3633V97.1295H82.0602V96.874H81.6438C81.4987 96.874 81.5019 96.7857 81.5019 96.7258V96.6501L83.1294 94.335V96.6186C83.1294 96.7384 83.1515 96.8772 82.8739 96.8772H82.5711V97.1327H84.2649V96.8772H83.9621C83.6877 96.8772 83.7066 96.7384 83.7066 96.6186V93.925C83.7066 93.8051 83.6845 93.6664 83.9621 93.6664H84.2649V93.4109H82.5648V93.6664H82.9086C83.0316 93.6664 83.1263 93.6947 83.1263 93.8209V93.8934L81.4987 96.2085L81.5019 96.2054Z" fill="black"/>
<path id="Vector_6" fill-rule="evenodd" clip-rule="evenodd" d="M84.936 96.7916C84.936 97.0187 85.1 97.2079 85.324 97.2079C85.5321 97.2079 85.7182 97.0282 85.7182 96.7916C85.7182 96.555 85.5321 96.3784 85.324 96.3784C85.1158 96.3784 84.936 96.5645 84.936 96.7916Z" fill="black"/>
<path id="Vector_7" fill-rule="evenodd" clip-rule="evenodd" d="M90.1857 95.0384H88.5424V93.9218C88.5424 93.802 88.5235 93.6632 88.7979 93.6632H89.1007V93.4077H87.4038V93.6632H87.7066C87.981 93.6632 87.9621 93.7988 87.9621 93.9218V96.6154C87.9621 96.7353 87.9842 96.874 87.7066 96.874H87.4038V97.1295H89.1007V96.874H88.7979C88.5235 96.874 88.5424 96.7353 88.5424 96.6154V95.297H90.1857V96.6154C90.1857 96.7353 90.2078 96.874 89.9302 96.874H89.6274V97.1295H91.3212V96.874H91.0215C90.7471 96.874 90.766 96.7353 90.766 96.6154V93.9218C90.766 93.802 90.7471 93.6632 91.0215 93.6632H91.3212V93.4077H89.6274V93.6632H89.9302C90.2046 93.6632 90.1857 93.7988 90.1857 93.9218V95.0384Z" fill="black"/>
<path id="Vector_8" fill-rule="evenodd" clip-rule="evenodd" d="M95.3035 94.7482V93.4077H92.1841V93.6632H92.4869C92.7613 93.6632 92.7423 93.7988 92.7423 93.9218V96.6154C92.7423 96.7353 92.7613 96.874 92.4869 96.874H92.1841V97.1295H95.3035V95.6944H95.048V95.7953C95.048 96.1297 94.9029 96.874 94.2279 96.874H93.575C93.3006 96.874 93.3195 96.7353 93.3195 96.6154V95.3759H93.6633C94.0891 95.3759 94.1585 95.7638 94.1585 96.0004V96.1108H94.414V94.4012H94.1585V94.5337C94.1585 94.9564 93.9819 95.1204 93.6476 95.1204H93.3195V93.9218C93.3195 93.802 93.2975 93.6632 93.575 93.6632H94.127C94.5843 93.6632 94.947 93.9534 95.048 94.7482H95.3035Z" fill="black"/>
<path id="Vector_9" fill-rule="evenodd" clip-rule="evenodd" d="M97.6693 93.4077H96.4045V93.6632H96.7073C96.9817 93.6632 96.9628 93.7988 96.9628 93.9218V96.3978C96.9628 96.8078 96.7325 96.874 96.4802 96.874H96.4014V97.1295H97.7986V96.874H97.7261C97.3886 96.874 97.2372 96.7826 97.2372 96.3978V93.7736H97.2687L98.461 97.1295H98.5966L99.6564 93.7736H99.6879V96.6154C99.6879 96.7353 99.71 96.874 99.4324 96.874H99.1296V97.1295H100.827V96.874H100.524C100.249 96.874 100.268 96.7353 100.268 96.6154V93.9218C100.268 93.802 100.249 93.6632 100.524 93.6632H100.827V93.4077H99.4987L98.6408 96.1013H98.6092L97.6693 93.4077Z" fill="black"/>
<path id="Vector_10" fill-rule="evenodd" clip-rule="evenodd" d="M102.776 96.2054V93.9218C102.776 93.802 102.754 93.6632 103.032 93.6632H103.334V93.4077H101.641V93.6632H101.94C102.215 93.6632 102.196 93.7988 102.196 93.9218V96.6154C102.196 96.7353 102.215 96.874 101.94 96.874H101.641V97.1295H103.334V96.874H102.918C102.773 96.874 102.779 96.7857 102.779 96.7258V96.6501L104.407 94.335V96.6186C104.407 96.7384 104.429 96.8772 104.151 96.8772H103.848V97.1327H105.545V96.8772H105.243C104.968 96.8772 104.987 96.7384 104.987 96.6186V93.925C104.987 93.8051 104.968 93.6664 105.243 93.6664H105.545V93.4109H103.845V93.6664H104.189C104.315 93.6664 104.407 93.6947 104.407 93.8209V93.8934L102.779 96.2085L102.776 96.2054Z" fill="black"/>
<path id="Vector_11" fill-rule="evenodd" clip-rule="evenodd" d="M107.49 95.5301H108.058C109.379 95.5301 109.547 94.7858 109.547 94.4672C109.547 93.5525 108.616 93.4043 107.834 93.4043H106.352V93.6598H106.654C106.929 93.6598 106.91 93.7954 106.91 93.9184V96.612C106.91 96.7318 106.929 96.8706 106.654 96.8706H106.352V97.1261H108.048V96.8706H107.746C107.471 96.8706 107.49 96.7318 107.49 96.612V95.527V95.5301ZM107.49 95.2747V93.8459C107.49 93.7986 107.496 93.6629 107.642 93.6629H107.916C108.698 93.6629 108.891 94.0856 108.891 94.4672C108.891 95.2273 108.178 95.2715 107.985 95.2715H107.49V95.2747Z" fill="black"/>
<path id="Vector_12" fill-rule="evenodd" clip-rule="evenodd" d="M110.378 95.2684C110.378 96.1137 110.949 97.205 112.047 97.205C113.145 97.205 113.709 96.1105 113.709 95.2684C113.709 94.4262 113.148 93.3318 112.047 93.3318C110.946 93.3318 110.378 94.4199 110.378 95.2684ZM111.031 95.2684C111.031 94.1077 111.527 93.5873 112.047 93.5873C112.567 93.5873 113.056 94.1077 113.056 95.2684C113.056 96.6278 112.447 96.9495 112.047 96.9495C111.523 96.9495 111.031 96.448 111.031 95.2684Z" fill="black"/>
<path id="Vector_13" fill-rule="evenodd" clip-rule="evenodd" d="M114.535 93.4074V93.6629H114.838C115.112 93.6629 115.093 93.7986 115.093 93.9216V96.6151C115.093 96.735 115.112 96.8738 114.838 96.8738H114.535V97.1293H116.513C117.604 97.1293 117.844 96.5331 117.844 96.1704C117.844 95.6563 117.453 95.2683 116.879 95.2116V95.18C117.364 95.0539 117.626 94.7038 117.626 94.3253C117.626 93.9468 117.304 93.4043 116.276 93.4043H114.538L114.535 93.4074ZM115.674 95.0917V93.9216C115.674 93.8017 115.652 93.6629 115.926 93.6629H116.264C116.633 93.6629 117.024 93.8774 117.024 94.3915C117.024 95.0633 116.462 95.0917 116.254 95.0917H115.671H115.674ZM115.674 95.3504H116.292C116.816 95.3504 117.188 95.609 117.188 96.1389C117.188 96.8454 116.547 96.8738 116.292 96.8738H115.929C115.655 96.8738 115.677 96.735 115.677 96.6151V95.3504H115.674Z" fill="black"/>
<path id="Vector_14" fill-rule="evenodd" clip-rule="evenodd" d="M119.813 96.2054V93.9218C119.813 93.802 119.794 93.6632 120.068 93.6632H120.371V93.4077H118.674V93.6632H118.977C119.252 93.6632 119.233 93.7988 119.233 93.9218V96.6154C119.233 96.7353 119.252 96.874 118.977 96.874H118.674V97.1295H120.371V96.874H119.955C119.81 96.874 119.816 96.7857 119.816 96.7258V96.6501L121.444 94.335V96.6186C121.444 96.7384 121.466 96.8772 121.188 96.8772H120.885V97.1327H122.582V96.8772H122.279C122.005 96.8772 122.024 96.7384 122.024 96.6186V93.925C122.024 93.8051 122.005 93.6664 122.279 93.6664H122.582V93.4109H120.882V93.6664H121.226C121.349 93.6664 121.444 93.6947 121.444 93.8209V93.8934L119.816 96.2085L119.813 96.2054Z" fill="black"/>
<path id="Vector_15" fill-rule="evenodd" clip-rule="evenodd" d="M126.03 95.1201C125.781 95.2778 125.377 95.322 125.251 95.322C124.851 95.322 124.579 95.1958 124.579 94.9088V93.9184C124.579 93.7985 124.557 93.6598 124.835 93.6598H125.062V93.4043H123.438V93.6598H123.74C124.015 93.6598 123.993 93.7954 123.993 93.9184V94.7889C123.993 95.445 124.27 95.5774 125.112 95.5774C125.481 95.5774 125.778 95.4954 126.027 95.4071V96.612C126.027 96.7318 126.049 96.8706 125.772 96.8706H125.469V97.1261H127.166V96.8706H126.863C126.588 96.8706 126.607 96.7318 126.607 96.612V93.9184C126.607 93.7985 126.588 93.6598 126.863 93.6598H127.166V93.4043H125.541V93.6598H125.772C126.049 93.6598 126.027 93.7954 126.027 93.9184V95.117L126.03 95.1201Z" fill="black"/>
<path id="Vector_16" fill-rule="evenodd" clip-rule="evenodd" d="M127.897 97.1293H129.37V96.8738H129.225C128.97 96.8738 128.863 96.7098 128.863 96.5395C128.863 96.4701 128.885 96.4102 128.904 96.3597L129.049 95.9717H130.528L130.783 96.612C130.831 96.7319 130.79 96.8864 130.493 96.8801L130.26 96.8738V97.1293H131.979V96.8738C131.638 96.8675 131.48 96.7476 131.354 96.4417L130.086 93.3318H129.796L128.538 96.4575C128.418 96.754 128.216 96.8738 127.967 96.8738H127.901V97.1293H127.897ZM129.146 95.71L129.755 94.1455H129.784L130.418 95.71H129.146Z" fill="black"/>
<path id="Vector_17" fill-rule="evenodd" clip-rule="evenodd" d="M132.781 96.1674H133.958V95.7668H132.781V96.1674Z" fill="black"/>
<path id="Vector_18" fill-rule="evenodd" clip-rule="evenodd" d="M135.352 93.4077V93.6632H135.44C135.825 93.6632 135.957 93.7389 135.957 94.0259C135.957 94.4706 135.825 95.4421 135.727 95.9215C135.538 96.8141 135.409 96.8677 135.04 96.8677H134.86V98.1987H135.052C135.068 97.3156 135.563 97.1232 135.98 97.1232H137.348C137.752 97.1232 138.257 97.3156 138.273 98.1987H138.468V96.8677H138.165C137.888 96.8677 137.91 96.7321 137.91 96.6123V93.9218C137.91 93.802 137.888 93.6632 138.165 93.6632H138.468V93.4077H135.355H135.352ZM136.721 93.6632H137.068C137.345 93.6632 137.323 93.7988 137.323 93.9218V96.6123C137.323 96.7321 137.345 96.8677 137.068 96.8677H136.188C136.058 96.8677 135.885 96.8803 135.885 96.6501C135.885 96.1833 136.005 96.2685 136.115 95.4736C136.134 95.3412 136.185 94.9343 136.194 94.827C136.21 94.6725 136.2 94.6883 136.238 94.4107C136.304 93.9124 136.248 93.6664 136.718 93.6664L136.721 93.6632Z" fill="black"/>
<path id="Vector_19" fill-rule="evenodd" clip-rule="evenodd" d="M139.155 97.1293H140.625V96.8738H140.48C140.228 96.8738 140.117 96.7098 140.117 96.5395C140.117 96.4701 140.139 96.4102 140.158 96.3597L140.307 95.9717H141.783L142.038 96.612C142.082 96.7319 142.044 96.8864 141.748 96.8801L141.515 96.8738V97.1293H143.233V96.8738C142.893 96.8675 142.735 96.7476 142.612 96.4417L141.341 93.3318H141.051L139.792 96.4575C139.673 96.754 139.471 96.8738 139.222 96.8738H139.158V97.1293H139.155ZM140.401 95.71L141.01 94.1455H141.038L141.672 95.71H140.401Z" fill="black"/>
<path id="Vector_20" fill-rule="evenodd" clip-rule="evenodd" d="M146.682 95.0384H145.039V93.9218C145.039 93.802 145.017 93.6632 145.294 93.6632H145.597V93.4077H143.9V93.6632H144.203C144.478 93.6632 144.459 93.7988 144.459 93.9218V96.6154C144.459 96.7353 144.478 96.874 144.203 96.874H143.9V97.1295H145.597V96.874H145.294C145.017 96.874 145.039 96.7353 145.039 96.6154V95.297H146.682V96.6154C146.682 96.7353 146.704 96.874 146.43 96.874H146.127V97.1295H147.824V96.874H147.521C147.244 96.874 147.266 96.7353 147.266 96.6154V93.9218C147.266 93.802 147.244 93.6632 147.521 93.6632H147.824V93.4077H146.127V93.6632H146.43C146.704 93.6632 146.682 93.7988 146.682 93.9218V95.0384Z" fill="black"/>
<path id="Vector_21" fill-rule="evenodd" clip-rule="evenodd" d="M151.27 95.1201C151.021 95.2778 150.617 95.322 150.491 95.322C150.091 95.322 149.819 95.1958 149.819 94.9088V93.9184C149.819 93.7985 149.8 93.6598 150.075 93.6598H150.305V93.4043H148.681V93.6598H148.983C149.261 93.6598 149.239 93.7954 149.239 93.9184V94.7889C149.239 95.445 149.513 95.5774 150.355 95.5774C150.728 95.5774 151.024 95.4954 151.27 95.4071V96.612C151.27 96.7318 151.292 96.8706 151.018 96.8706H150.715V97.1261H152.412V96.8706H152.109C151.832 96.8706 151.854 96.7318 151.854 96.612V93.9184C151.854 93.7985 151.832 93.6598 152.109 93.6598H152.412V93.4043H150.788V93.6598H151.015C151.289 93.6598 151.267 93.7954 151.267 93.9184V95.117L151.27 95.1201Z" fill="black"/>
<path id="Vector_22" fill-rule="evenodd" clip-rule="evenodd" d="M156.445 94.7482V93.4077H153.323V93.6632H153.629C153.903 93.6632 153.881 93.7988 153.881 93.9218V96.6154C153.881 96.7353 153.903 96.874 153.629 96.874H153.323V97.1295H156.445V95.6944H156.19V95.7953C156.19 96.1297 156.045 96.874 155.37 96.874H154.72C154.446 96.874 154.468 96.7353 154.468 96.6154V95.3759H154.808C155.237 95.3759 155.304 95.7638 155.304 96.0004V96.1108H155.556V94.4012H155.304V94.5337C155.304 94.9564 155.127 95.1204 154.793 95.1204H154.468V93.9218C154.468 93.802 154.446 93.6632 154.72 93.6632H155.272C155.729 93.6632 156.092 93.9534 156.193 94.7482H156.448H156.445Z" fill="black"/>
<path id="Vector_23" fill-rule="evenodd" clip-rule="evenodd" d="M160.218 95.0384H158.575V93.9218C158.575 93.802 158.553 93.6632 158.827 93.6632H159.133V93.4077H157.436V93.6632H157.739C158.013 93.6632 157.991 93.7988 157.991 93.9218V96.6154C157.991 96.7353 158.013 96.874 157.739 96.874H157.436V97.1295H159.133V96.874H158.827C158.553 96.874 158.575 96.7353 158.575 96.6154V95.297H160.218V96.6154C160.218 96.7353 160.24 96.874 159.966 96.874H159.663V97.1295H161.357V96.874H161.054C160.779 96.874 160.801 96.7353 160.801 96.6154V93.9218C160.801 93.802 160.779 93.6632 161.054 93.6632H161.357V93.4077H159.663V93.6632H159.966C160.24 93.6632 160.218 93.7988 160.218 93.9218V95.0384Z" fill="black"/>
<path id="Vector_24" fill-rule="evenodd" clip-rule="evenodd" d="M163.352 95.3251H163.434C164.094 95.3251 164.286 95.3725 164.387 96.0411C164.444 96.4417 164.504 97.2081 165.112 97.2081C165.541 97.2081 165.847 96.776 165.794 96.1515H165.526C165.504 96.6278 165.396 96.7665 165.28 96.7665C164.75 96.7665 165.409 95.4576 164.185 95.1769C164.409 95.0381 164.554 94.8268 164.633 94.1581C164.696 93.6219 164.911 93.5778 165.027 93.5778C165.049 93.5778 165.093 93.5778 165.093 93.6251C165.093 93.6535 165.068 93.6756 165.046 93.7039C164.974 93.7796 164.952 93.8743 164.952 93.972C164.952 94.2496 165.169 94.3505 165.343 94.3505C165.516 94.3505 165.734 94.196 165.734 93.9342C165.734 93.6219 165.485 93.3286 165.093 93.3286C164.412 93.3286 164.387 93.9468 164.318 94.4136C164.239 94.9845 164.002 95.0697 163.425 95.0697H163.346V93.9247C163.346 93.8049 163.324 93.6661 163.602 93.6661H163.904V93.4106H162.208V93.6661H162.51C162.785 93.6661 162.766 93.8017 162.766 93.9247V96.6183C162.766 96.7382 162.785 96.8769 162.51 96.8769H162.208V97.1324H163.904V96.8769H163.602C163.324 96.8769 163.346 96.7382 163.346 96.6183V95.3251H163.352Z" fill="black"/>
<path id="Vector_25" fill-rule="evenodd" clip-rule="evenodd" d="M166.633 95.2684C166.633 96.1137 167.207 97.205 168.301 97.205C169.396 97.205 169.967 96.1105 169.967 95.2684C169.967 94.4262 169.405 93.3318 168.301 93.3318C167.197 93.3318 166.633 94.4199 166.633 95.2684ZM167.289 95.2684C167.289 94.1077 167.781 93.5873 168.301 93.5873C168.822 93.5873 169.311 94.1077 169.311 95.2684C169.311 96.6278 168.702 96.9495 168.301 96.9495C167.778 96.9495 167.289 96.448 167.289 95.2684Z" fill="black"/>
<path id="Vector_26" fill-rule="evenodd" clip-rule="evenodd" d="M66.1826 89.1968V86.9133C66.1826 86.7934 66.1636 86.6578 66.438 86.6578H66.7408V86.3992H65.0439V86.6578H65.3467C65.6211 86.6578 65.6022 86.7934 65.6022 86.9133V89.6069C65.6022 89.7267 65.6243 89.8623 65.3467 89.8623H65.0439V90.1178H66.7408V89.8623H66.3245C66.1794 89.8623 66.1826 89.774 66.1826 89.7141V89.6384L67.8101 87.3233V89.6069C67.8101 89.7267 67.829 89.8623 67.5546 89.8623H67.2518V90.1178H68.9487V89.8623H68.6459C68.3715 89.8623 68.3904 89.7236 68.3904 89.6069V86.9133C68.3904 86.7934 68.3683 86.6578 68.6459 86.6578H68.9487V86.3992H67.2486V86.6578H67.5924C67.7186 86.6578 67.8132 86.6862 67.8132 86.8124V86.8849L66.1857 89.2L66.1826 89.1968Z" fill="black"/>
<path id="Vector_27" fill-rule="evenodd" clip-rule="evenodd" d="M71.485 86.3992H70.2202V86.6578H70.523C70.7974 86.6578 70.7784 86.7934 70.7784 86.9133V89.3892C70.7784 89.7993 70.5482 89.8655 70.2927 89.8655H70.2139V90.121H71.6143V89.8655H71.5417C71.2011 89.8655 71.0529 89.774 71.0529 89.3892V86.765H71.0812L72.2735 90.121H72.4091L73.4689 86.765H73.5004V89.6069C73.5004 89.7267 73.5193 89.8623 73.2449 89.8623H72.9421V90.1178H74.639V89.8623H74.3362C74.0618 89.8623 74.0808 89.7236 74.0808 89.6069V86.9133C74.0808 86.7934 74.0587 86.6578 74.3362 86.6578H74.639V86.3992H73.3143L72.4564 89.0927H72.4249L71.4818 86.3992H71.485Z" fill="black"/>
<path id="Vector_28" fill-rule="evenodd" clip-rule="evenodd" d="M79.0522 87.7396V86.3992H75.9297V86.6578H76.2325C76.5069 86.6578 76.488 86.7934 76.488 86.9133V89.6069C76.488 89.7267 76.51 89.8623 76.2325 89.8623H75.9297V90.1178H79.0522V88.6827H78.7967V88.7836C78.7967 89.118 78.6516 89.8623 77.9767 89.8623H77.3269C77.0525 89.8623 77.0715 89.7236 77.0715 89.6069V88.3673H77.4153C77.8411 88.3673 77.9073 88.7553 77.9073 88.9918V89.1022H78.1628V87.3927H77.9073V87.5252C77.9073 87.9478 77.7307 88.1118 77.3995 88.1118H77.0715V86.9133C77.0715 86.7934 77.0525 86.6578 77.3269 86.6578H77.8789C78.3362 86.6578 78.7021 86.948 78.7999 87.7396H79.0554H79.0522Z" fill="black"/>
<path id="Vector_29" fill-rule="evenodd" clip-rule="evenodd" d="M83.1369 88.033H81.4936V86.9165C81.4936 86.7966 81.4747 86.661 81.7491 86.661H82.0519V86.4023H80.355V86.661H80.6578C80.9322 86.661 80.9133 86.7966 80.9133 86.9165V89.61C80.9133 89.7299 80.9322 89.8655 80.6578 89.8655H80.355V90.121H82.0519V89.8655H81.7491C81.4747 89.8655 81.4936 89.7267 81.4936 89.61V88.2916H83.1369V89.61C83.1369 89.7299 83.159 89.8655 82.8814 89.8655H82.5786V90.121H84.2755V89.8655H83.9727C83.6983 89.8655 83.7172 89.7267 83.7172 89.61V86.9165C83.7172 86.7966 83.6951 86.661 83.9727 86.661H84.2755V86.4023H82.5786V86.661H82.8814C83.1558 86.661 83.1369 86.7966 83.1369 86.9165V88.033Z" fill="black"/>
<path id="Vector_30" fill-rule="evenodd" clip-rule="evenodd" d="M86.6894 89.1968V86.9133C86.6894 86.7934 86.6705 86.6578 86.9449 86.6578H87.2477V86.3992H85.5508V86.6578H85.8536C86.128 86.6578 86.109 86.7934 86.109 86.9133V89.6069C86.109 89.7267 86.128 89.8623 85.8536 89.8623H85.5508V90.1178H87.2477V89.8623H86.8313C86.6862 89.8623 86.6926 89.774 86.6926 89.7141V89.6384L88.3201 87.3233V89.6069C88.3201 89.7267 88.339 89.8623 88.0646 89.8623H87.7618V90.1178H89.4587V89.8623H89.1559C88.8815 89.8623 88.9004 89.7236 88.9004 89.6069V86.9133C88.9004 86.7934 88.8783 86.6578 89.1559 86.6578H89.4587V86.3992H87.7586V86.6578H88.1024C88.2254 86.6578 88.3201 86.6862 88.3201 86.8124V86.8849L86.6926 89.2L86.6894 89.1968Z" fill="black"/>
<path id="Vector_31" fill-rule="evenodd" clip-rule="evenodd" d="M93.9375 88.3173H94.0195C94.6818 88.3173 94.8742 88.3646 94.972 89.0333C95.0288 89.4339 95.0918 90.2003 95.7006 90.2003C96.1264 90.2003 96.4355 89.7682 96.3819 89.1437H96.1138C96.0917 89.62 95.9844 89.7587 95.8677 89.7587C95.3379 89.7587 95.9971 88.4498 94.7764 88.1691C95.0004 88.0335 95.1455 87.819 95.2243 87.1503C95.2874 86.6141 95.4987 86.57 95.6186 86.57C95.6375 86.57 95.6848 86.57 95.6848 86.6173C95.6848 86.6457 95.6596 86.6677 95.6375 86.6961C95.5649 86.7718 95.5429 86.8665 95.5429 86.9642C95.5429 87.2418 95.7637 87.3427 95.934 87.3427C96.1043 87.3427 96.3251 87.1882 96.3251 86.9264C96.3251 86.6141 96.0759 86.3208 95.6848 86.3208C95.0067 86.3208 94.9783 86.939 94.9121 87.4058C94.8332 87.9767 94.5935 88.0619 94.0163 88.0619H93.9375V86.9169C93.9375 86.7971 93.9185 86.6614 94.1929 86.6614H94.4957V86.4028H92.7988V86.6614H93.1016C93.376 86.6614 93.3571 86.7971 93.3571 86.9169V89.6105C93.3571 89.7303 93.3792 89.866 93.1016 89.866H92.7988V90.1215H94.4957V89.866H94.1929C93.9185 89.866 93.9375 89.7272 93.9375 89.6105V88.3173Z" fill="black"/>
<path id="Vector_32" fill-rule="evenodd" clip-rule="evenodd" d="M97.4668 89.7833C97.4668 90.0136 97.634 90.1997 97.8579 90.1997C98.0661 90.1997 98.2522 90.0167 98.2522 89.7833C98.2522 89.5499 98.0661 89.3733 97.8579 89.3733C97.6497 89.3733 97.4668 89.5594 97.4668 89.7833Z" fill="black"/>
<path id="Vector_33" fill-rule="evenodd" clip-rule="evenodd" d="M102.619 88.8404C102.556 89.2631 102.297 89.9412 101.559 89.9412C100.821 89.9412 100.487 89.2221 100.487 88.1686C100.487 86.9858 100.96 86.5821 101.49 86.5821C102.105 86.5821 102.404 86.9922 102.556 87.7365H102.805L102.729 86.4023H102.489L102.36 86.62C102.225 86.519 101.944 86.3235 101.464 86.3235C100.42 86.3235 99.8306 87.2319 99.8306 88.1844C99.8306 89.1842 100.351 90.1998 101.512 90.1998C101.978 90.1998 102.691 90.039 102.881 88.8467L102.619 88.8404Z" fill="black"/>
<path id="Vector_34" fill-rule="evenodd" clip-rule="evenodd" d="M103.632 89.7833C103.632 90.0136 103.799 90.1997 104.02 90.1997C104.228 90.1997 104.415 90.0167 104.415 89.7833C104.415 89.5499 104.228 89.3733 104.02 89.3733C103.812 89.3733 103.632 89.5594 103.632 89.7833Z" fill="black"/>
<path id="Vector_35" fill-rule="evenodd" clip-rule="evenodd" d="M108.779 88.8404C108.716 89.2631 108.457 89.9412 107.719 89.9412C106.981 89.9412 106.647 89.2221 106.647 88.1686C106.647 86.9858 107.12 86.5821 107.65 86.5821C108.265 86.5821 108.565 86.9922 108.716 87.7365H108.965L108.886 86.4023H108.647L108.517 86.62C108.382 86.519 108.101 86.3235 107.622 86.3235C106.578 86.3235 105.988 87.2319 105.988 88.1844C105.988 89.1842 106.508 90.1998 107.669 90.1998C108.136 90.1998 108.849 90.039 109.038 88.8467L108.776 88.8404H108.779Z" fill="black"/>
<path id="Vector_36" fill-rule="evenodd" clip-rule="evenodd" d="M110.309 86.3992V87.8343H110.571C110.59 86.9133 111.066 86.6168 111.375 86.6168C111.479 86.6168 111.549 86.6452 111.549 86.7997V89.61C111.549 89.7299 111.571 89.8655 111.293 89.8655H110.99V90.121H112.687V89.8655H112.384C112.11 89.8655 112.129 89.7267 112.129 89.61V86.7997C112.129 86.6641 112.176 86.6168 112.299 86.6168C112.612 86.6168 113.085 86.9196 113.107 87.8343H113.369V86.3992H110.309Z" fill="black"/>
<path id="Vector_37" fill-rule="evenodd" clip-rule="evenodd" d="M114.449 90.1242H115.922V89.8687H115.777C115.521 89.8687 115.414 89.7047 115.414 89.5343C115.414 89.4618 115.433 89.4019 115.455 89.3546L115.6 88.9666H117.076L117.332 89.6069C117.379 89.7267 117.338 89.8813 117.038 89.875L116.808 89.8687V90.1242H118.527V89.8687C118.186 89.8624 118.029 89.7425 117.902 89.4366L116.634 86.3267H116.344L115.083 89.4523C114.963 89.7488 114.761 89.8687 114.512 89.8687H114.449V90.1242ZM115.698 88.7048L116.306 87.1404H116.335L116.969 88.7048H115.698Z" fill="black"/>
<path id="Vector_38" fill-rule="evenodd" clip-rule="evenodd" d="M122.395 88.033H120.752V86.9165C120.752 86.7966 120.73 86.661 121.004 86.661H121.307V86.4023H119.61V86.661H119.913C120.19 86.661 120.168 86.7966 120.168 86.9165V89.61C120.168 89.7299 120.19 89.8655 119.913 89.8655H119.61V90.121H121.307V89.8655H121.004C120.73 89.8655 120.752 89.7267 120.752 89.61V88.2916H122.395V89.61C122.395 89.7299 122.417 89.8655 122.139 89.8655H121.837V90.121H123.534V89.8655H123.231C122.956 89.8655 122.978 89.7267 122.978 89.61V86.9165C122.978 86.7966 122.956 86.661 123.231 86.661H123.534V86.4023H121.837V86.661H122.139C122.417 86.661 122.395 86.7966 122.395 86.9165V88.033Z" fill="black"/>
<path id="Vector_39" fill-rule="evenodd" clip-rule="evenodd" d="M125.953 89.1968V86.9133C125.953 86.7934 125.931 86.6578 126.209 86.6578H126.511V86.3992H124.814V86.6578H125.117C125.392 86.6578 125.37 86.7934 125.37 86.9133V89.6069C125.37 89.7267 125.392 89.8623 125.117 89.8623H124.814V90.1178H126.511V89.8623H126.095C125.95 89.8623 125.956 89.774 125.956 89.7141V89.6384L127.584 87.3233V89.6069C127.584 89.7267 127.603 89.8623 127.328 89.8623H127.025V90.1178H128.722V89.8623H128.42C128.145 89.8623 128.164 89.7236 128.164 89.6069V86.9133C128.164 86.7934 128.145 86.6578 128.42 86.6578H128.722V86.3992H127.022V86.6578H127.366C127.489 86.6578 127.584 86.6862 127.584 86.8124V86.8849L125.956 89.2L125.953 89.1968Z" fill="black"/>
<path id="Vector_40" fill-rule="evenodd" clip-rule="evenodd" d="M132.785 88.8404C132.721 89.2631 132.463 89.9412 131.725 89.9412C130.987 89.9412 130.652 89.2221 130.652 88.1686C130.652 86.9858 131.125 86.5821 131.655 86.5821C132.27 86.5821 132.57 86.9922 132.721 87.7365H132.971L132.892 86.4023H132.652L132.523 86.62C132.384 86.519 132.106 86.3235 131.627 86.3235C130.583 86.3235 129.993 87.2319 129.993 88.1844C129.993 89.1842 130.517 90.1998 131.674 90.1998C132.141 90.1998 132.854 90.039 133.043 88.8467L132.781 88.8404H132.785Z" fill="black"/>
<path id="Vector_41" fill-rule="evenodd" clip-rule="evenodd" d="M134.926 86.6578H135.005C135.548 86.6578 135.57 86.8943 135.57 87.6166C135.57 88.3768 135.545 88.771 135.491 89.1369C135.393 89.8749 135.065 89.9475 134.936 89.9475C134.825 89.9475 134.759 89.8592 134.759 89.815C134.759 89.7677 134.863 89.7235 134.92 89.6384C134.961 89.5753 134.993 89.4901 134.993 89.4113C134.993 89.2441 134.87 89.0643 134.63 89.0643C134.456 89.0643 134.245 89.1779 134.245 89.4491C134.245 89.7772 134.403 90.2061 134.904 90.2061C135.888 90.2061 135.813 88.8814 135.869 87.5535C135.898 87.0489 135.869 86.6546 136.336 86.6546H136.664C136.939 86.6546 136.92 86.7902 136.92 86.9101V89.6037C136.92 89.7235 136.939 89.8592 136.664 89.8592H136.362V90.1146H138.058V89.8592H137.756C137.481 89.8592 137.5 89.7204 137.5 89.6037V86.9101C137.5 86.7902 137.481 86.6546 137.756 86.6546H138.058V86.396H134.923V86.6546L134.926 86.6578Z" fill="black"/>
<path id="Vector_42" fill-rule="evenodd" clip-rule="evenodd" d="M139.155 90.1242H140.625V89.8687H140.48C140.228 89.8687 140.117 89.7047 140.117 89.5343C140.117 89.4618 140.139 89.4019 140.158 89.3546L140.307 88.9666H141.783L142.038 89.6069C142.082 89.7267 142.044 89.8813 141.748 89.875L141.515 89.8687V90.1242H143.233V89.8687C142.893 89.8624 142.735 89.7425 142.612 89.4366L141.341 86.3267H141.051L139.792 89.4523C139.673 89.7488 139.471 89.8687 139.222 89.8687H139.158V90.1242H139.155ZM140.401 88.7048L141.01 87.1404H141.038L141.672 88.7048H140.401Z" fill="black"/>
<path id="Vector_43" fill-rule="evenodd" clip-rule="evenodd" d="M144.32 86.3996V86.6583H144.622C144.897 86.6583 144.875 86.7939 144.875 86.9137V89.6073C144.875 89.7272 144.897 89.8628 144.622 89.8628H144.32V90.1183H146.294C147.388 90.1183 147.625 89.5221 147.625 89.1594C147.625 88.6453 147.234 88.2574 146.657 88.2006V88.1691C147.142 88.0429 147.404 87.6928 147.404 87.3143C147.404 86.9358 147.083 86.3933 146.051 86.3933H144.316L144.32 86.3996ZM145.458 88.0839V86.9137C145.458 86.7939 145.436 86.6583 145.714 86.6583H146.051C146.42 86.6583 146.811 86.8727 146.811 87.3868C146.811 88.0587 146.25 88.087 146.042 88.087H145.461L145.458 88.0839ZM145.458 88.3425H146.076C146.597 88.3425 146.969 88.6012 146.969 89.131C146.969 89.8376 146.332 89.8659 146.076 89.8659H145.714C145.436 89.8659 145.458 89.7272 145.458 89.6105V88.3457V88.3425Z" fill="black"/>
<path id="Vector_44" fill-rule="evenodd" clip-rule="evenodd" d="M151.663 88.8404C151.6 89.2631 151.338 89.9412 150.603 89.9412C149.868 89.9412 149.531 89.2221 149.531 88.1686C149.531 86.9858 150.004 86.5821 150.534 86.5821C151.149 86.5821 151.448 86.9922 151.6 87.7365H151.849L151.77 86.4023H151.53L151.401 86.62C151.266 86.519 150.985 86.3235 150.505 86.3235C149.461 86.3235 148.872 87.2319 148.872 88.1844C148.872 89.1842 149.392 90.1998 150.553 90.1998C151.02 90.1998 151.732 90.039 151.922 88.8467L151.66 88.8404H151.663Z" fill="black"/>
<path id="Vector_45" fill-rule="evenodd" clip-rule="evenodd" d="M154.329 88.3173H154.411C155.07 88.3173 155.263 88.3646 155.36 89.0333C155.417 89.4339 155.48 90.2003 156.089 90.2003C156.515 90.2003 156.821 89.7682 156.77 89.1437H156.499C156.48 89.62 156.37 89.7587 156.256 89.7587C155.723 89.7587 156.385 88.4498 155.165 88.1691C155.389 88.0335 155.534 87.819 155.613 87.1503C155.676 86.6141 155.887 86.57 156.007 86.57C156.029 86.57 156.073 86.57 156.073 86.6173C156.073 86.6457 156.045 86.6677 156.026 86.6961C155.953 86.7718 155.931 86.8665 155.931 86.9642C155.931 87.2418 156.149 87.3427 156.322 87.3427C156.496 87.3427 156.713 87.1882 156.713 86.9264C156.713 86.6141 156.464 86.3208 156.073 86.3208C155.392 86.3208 155.364 86.939 155.297 87.4058C155.218 87.9767 154.979 88.0619 154.405 88.0619H154.326V86.9169C154.326 86.7971 154.304 86.6614 154.578 86.6614H154.881V86.4028H153.184V86.6614H153.487C153.761 86.6614 153.739 86.7971 153.739 86.9169V89.6105C153.739 89.7303 153.761 89.866 153.487 89.866H153.184V90.1215H154.881V89.866H154.578C154.304 89.866 154.326 89.7272 154.326 89.6105V88.3173H154.329Z" fill="black"/>
<path id="Vector_46" fill-rule="evenodd" clip-rule="evenodd" d="M158.034 88.2601C158.034 89.1054 158.605 90.1998 159.702 90.1998C160.8 90.1998 161.364 89.1054 161.364 88.2601C161.364 87.4148 160.803 86.3235 159.702 86.3235C158.601 86.3235 158.034 87.4116 158.034 88.2601ZM158.687 88.2601C158.687 87.0994 159.182 86.579 159.702 86.579C160.223 86.579 160.711 87.0994 160.711 88.2601C160.711 89.6195 160.103 89.9412 159.702 89.9412C159.179 89.9412 158.687 89.4365 158.687 88.2601Z" fill="black"/>
<path id="Vector_47" fill-rule="evenodd" clip-rule="evenodd" d="M165.467 87.7239V86.3992H162.606V86.6578H162.909C163.186 86.6578 163.164 86.7934 163.164 86.9133V89.6069C163.164 89.7267 163.186 89.8623 162.909 89.8623H162.606V90.1178H164.303V89.8623H164C163.723 89.8623 163.745 89.7236 163.745 89.6069V86.8407C163.745 86.7146 163.773 86.6546 163.912 86.6546H164.312C164.962 86.6546 165.202 87.2192 165.268 87.7207H165.467V87.7239Z" fill="black"/>
<path id="Vector_48" fill-rule="evenodd" clip-rule="evenodd" d="M166.633 88.2601C166.633 89.1054 167.207 90.1998 168.301 90.1998C169.396 90.1998 169.967 89.1054 169.967 88.2601C169.967 87.4148 169.405 86.3235 168.301 86.3235C167.197 86.3235 166.633 87.4116 166.633 88.2601ZM167.289 88.2601C167.289 87.0994 167.781 86.579 168.301 86.579C168.822 86.579 169.311 87.0994 169.311 88.2601C169.311 89.6195 168.702 89.9412 168.301 89.9412C167.778 89.9412 167.289 89.4365 167.289 88.2601Z" fill="black"/>
<path id="Vector_49" fill-rule="evenodd" clip-rule="evenodd" d="M78.9375 18.2207H155.446L117.035 6.37721L78.9406 18.2207H78.9375ZM75.7771 18.6907L117.032 5.87256L158.641 18.7002L75.7739 18.6907H75.7771Z" fill="black"/>
<path id="Vector_50" fill-rule="evenodd" clip-rule="evenodd" d="M171.313 20.5295V29.2063H62.4028V20.5232L171.31 20.5295H171.313ZM170.833 21.0026H62.8823V28.4304H170.833V21.0026Z" fill="black"/>
<path id="Vector_51" fill-rule="evenodd" clip-rule="evenodd" d="M57.5636 18.833L58.3269 21.3846L117.068 3.62087L176.226 22.0501L177.011 19.4512L117.068 0.501497L57.5636 18.8298V18.833ZM56.9644 18.5144L117.068 0L177.86 19.2272L176.794 22.7408L117.535 4.26115L58.144 22.3308L56.9644 18.5144Z" fill="black"/>
<path id="Vector_52" fill-rule="evenodd" clip-rule="evenodd" d="M147.861 33.9754H141.446L141.067 70.1021H148.363L147.858 33.9754H147.861ZM141.973 33.5559H147.451C147.246 33.3698 147.104 33.1395 147.016 32.8935H142.411C142.326 33.1395 142.181 33.3698 141.976 33.5559H141.973ZM148.391 33.5559C148.527 33.5779 148.631 33.5874 148.744 33.5874C149.596 33.5874 150.246 32.903 150.246 32.0104C150.246 31.0105 149.536 30.1936 148.473 30.1936H140.951C139.888 30.1936 139.178 31.0105 139.178 32.0104C139.178 32.8998 139.831 33.5874 140.683 33.5874C142.443 33.5874 142.427 31.4174 141.354 31.3386H141.216C140.803 31.3638 140.654 31.6003 140.654 31.9378C140.654 32.5087 141.121 32.3731 141.197 32.146L141.591 32.2879C141.282 33.1648 140.232 32.761 140.232 31.9378C140.232 31.3701 140.569 30.9159 141.288 30.9159H141.367H148.044H148.23C148.88 30.9569 149.18 31.3953 149.18 31.9347C149.18 32.7579 148.133 33.1616 147.82 32.2848L148.215 32.1428C148.297 32.3668 148.757 32.5056 148.757 31.9347C148.757 31.5972 148.609 31.3606 148.196 31.3354H148.057C147.063 31.4079 146.978 33.2815 148.382 33.5527L148.391 33.5559ZM143.108 31.3386C143.099 31.9126 143.417 32.4172 143.733 32.638H144.206C143.871 32.3163 143.777 31.7896 143.808 31.3386H143.108ZM144.064 31.3386C144.017 31.9441 144.225 32.4803 144.663 32.6254H144.764C145.202 32.4772 145.414 31.941 145.363 31.3386H144.061H144.064ZM145.622 31.3386C145.65 31.7896 145.559 32.3163 145.221 32.638H145.707C146.019 32.4078 146.322 31.9063 146.31 31.3386H145.619H145.622ZM146.947 32.638C146.855 32.1681 146.956 31.676 147.227 31.3386H146.574C146.584 31.859 146.369 32.3258 146.092 32.638H146.947ZM142.2 31.3386C142.471 31.676 142.572 32.1681 142.48 32.638H143.338C143.058 32.3289 142.837 31.859 142.846 31.3386H142.2ZM149.325 71.5593H140.251C139.598 71.5593 139.348 72.1554 139.333 72.6506H150.205C150.195 72.0734 149.795 71.5593 149.325 71.5593ZM148.647 70.5026H141.049C140.582 70.5026 140.446 70.8433 140.392 71.1965H149.271C149.202 70.7928 149.041 70.5026 148.65 70.5026H148.647ZM69.5458 33.9754H63.1304L62.755 70.1021H70.0504L69.5458 33.9754ZM63.6603 33.5559H69.1357C68.9307 33.3698 68.7888 33.1395 68.7005 32.8935H64.0955C64.0072 33.1395 63.8653 33.3698 63.6603 33.5559ZM70.0725 33.5559C70.2113 33.5779 70.3154 33.5874 70.4257 33.5874C71.2773 33.5874 71.9302 32.903 71.9302 32.0104C71.9302 31.0105 71.2206 30.1936 70.1577 30.1936H62.6352C61.5723 30.1936 60.8626 31.0105 60.8626 32.0104C60.8626 32.8998 61.5155 33.5874 62.3671 33.5874C64.1302 33.5874 64.1113 31.4174 63.0389 31.3386H62.9001C62.4869 31.3638 62.3387 31.6003 62.3387 31.9378C62.3387 32.5087 62.8024 32.3731 62.8812 32.146L63.2755 32.2879C62.9632 33.1648 61.9161 32.761 61.9161 31.9378C61.9161 31.3701 62.2504 30.9159 62.9727 30.9159H63.0515H69.7287H69.9116C70.5614 30.9569 70.8642 31.3953 70.8642 31.9347C70.8642 32.7579 69.817 33.1616 69.5048 32.2848L69.9022 32.1428C69.981 32.3668 70.4447 32.5056 70.4447 31.9347C70.4447 31.5972 70.2964 31.3606 69.8832 31.3354H69.7445C68.7509 31.4079 68.6658 33.2815 70.0662 33.5527L70.0725 33.5559ZM64.7926 31.3386C64.7831 31.9126 65.1017 32.4172 65.4171 32.638H65.8933C65.5559 32.3163 65.4612 31.7896 65.4928 31.3386H64.7926ZM65.7451 31.3386C65.6978 31.9441 65.9091 32.4803 66.3475 32.6254H66.4485C66.8869 32.4772 67.0982 31.941 67.0477 31.3386H65.742H65.7451ZM67.3064 31.3386C67.3348 31.7896 67.2401 32.3163 66.9058 32.638H67.3915C67.7038 32.4078 68.0066 31.9063 67.994 31.3386H67.3032H67.3064ZM68.6311 32.638C68.5396 32.1681 68.6405 31.676 68.9118 31.3386H68.2589C68.2684 31.859 68.0539 32.3258 67.7763 32.638H68.6311ZM63.8842 31.3386C64.1555 31.676 64.2564 32.1681 64.1649 32.638H65.0228C64.7421 32.3289 64.5213 31.859 64.5276 31.3386H63.8842ZM71.0092 71.5593H61.9318C61.2789 71.5593 61.0329 72.1554 61.014 72.6506H71.8861C71.8766 72.0734 71.476 71.5593 71.0061 71.5593H71.0092ZM70.3311 70.5026H62.7298C62.263 70.5026 62.1242 70.8433 62.0738 71.1965H70.9525C70.8831 70.7928 70.7191 70.5026 70.3311 70.5026ZM179.708 76.4134H54.5923V78.9966H179.705V76.4134H179.708ZM183.736 79.4854H50.6718V81.9835H183.729V79.4854H183.736ZM175.81 73.13H58.6863V75.9245H175.806V73.13H175.81ZM93.3432 70.5026H85.7419C85.2751 70.5026 85.1363 70.8433 85.0859 71.1965H93.9646C93.8952 70.7928 93.7312 70.5026 93.3432 70.5026ZM94.0214 71.5593H84.9439C84.291 71.5593 84.045 72.1554 84.0261 72.6506H94.8982C94.8919 72.0734 94.4882 71.5593 94.0214 71.5593ZM86.8963 31.3386C87.1676 31.676 87.2685 32.1681 87.177 32.638H88.0349C87.7542 32.3289 87.5334 31.859 87.5397 31.3386H86.8963ZM91.6432 32.638C91.5517 32.1681 91.6526 31.676 91.9239 31.3386H91.271C91.2805 31.859 91.066 32.3258 90.7916 32.638H91.6463H91.6432ZM90.3185 31.3386C90.3469 31.7896 90.2554 32.3163 89.9179 32.638H90.4068C90.719 32.4078 91.0218 31.9063 91.0092 31.3386H90.3185ZM88.7572 31.3386C88.7099 31.9441 88.9212 32.4803 89.3565 32.6254H89.4606C89.899 32.4772 90.1103 31.941 90.0598 31.3386H88.754H88.7572ZM87.8047 31.3386C87.7952 31.9126 88.1138 32.4172 88.4292 32.638H88.9054C88.568 32.3163 88.4733 31.7896 88.5049 31.3386H87.8078H87.8047ZM93.0846 33.5559C93.2234 33.5779 93.3275 33.5874 93.4378 33.5874C94.2894 33.5874 94.9423 32.903 94.9423 32.0104C94.9423 31.0105 94.2358 30.1936 93.1697 30.1936H85.6473C84.5844 30.1936 83.8747 31.0105 83.8747 32.0104C83.8747 32.8998 84.5276 33.5874 85.3792 33.5874C87.1423 33.5874 87.1234 31.4174 86.051 31.3386H85.9154C85.5022 31.3638 85.354 31.6003 85.354 31.9378C85.354 32.5087 85.8176 32.3731 85.8965 32.146L86.2907 32.2879C85.9785 33.1648 84.9313 32.761 84.9313 31.9378C84.9313 31.3701 85.2657 30.9159 85.9879 30.9159H86.0668H92.7439H92.93C93.5798 30.9569 93.8826 31.3953 93.8826 31.9347C93.8826 32.7579 92.8354 33.1616 92.5232 32.2848L92.9206 32.1428C92.9994 32.3668 93.4631 32.5056 93.4631 31.9347C93.4631 31.5972 93.3148 31.3606 92.9016 31.3354H92.7629C91.7693 31.4079 91.6842 33.2815 93.0846 33.5527V33.5559ZM86.6692 33.5559H92.1447C91.9428 33.3698 91.7977 33.1395 91.7094 32.8935H87.1045C87.0162 33.1395 86.8742 33.3698 86.6692 33.5559ZM92.5579 33.9754H86.1425L85.764 70.1021H93.0594L92.5547 33.9754H92.5579ZM171.659 70.5026H164.057C163.591 70.5026 163.455 70.8433 163.405 71.1965H172.283C172.214 70.7928 172.05 70.5026 171.662 70.5026H171.659ZM172.337 71.5593H163.26C162.607 71.5593 162.361 72.1554 162.345 72.6506H173.214C173.207 72.0734 172.804 71.5593 172.337 71.5593ZM165.212 31.3386C165.48 31.676 165.584 32.1681 165.493 32.638H166.351C166.07 32.3289 165.849 31.859 165.855 31.3386H165.212ZM169.959 32.638C169.867 32.1681 169.968 31.676 170.239 31.3386H169.587C169.596 31.859 169.382 32.3258 169.104 32.638H169.956H169.959ZM168.631 31.3386C168.659 31.7896 168.568 32.3163 168.233 32.638H168.719C169.031 32.4078 169.334 31.9063 169.322 31.3386H168.631ZM167.073 31.3386C167.025 31.9441 167.234 32.4803 167.672 32.6254H167.773C168.211 32.4772 168.423 31.941 168.372 31.3386H167.07H167.073ZM166.12 31.3386C166.111 31.9126 166.426 32.4172 166.742 32.638H167.218C166.88 32.3163 166.786 31.7896 166.817 31.3386H166.12ZM171.4 33.5559C171.539 33.5779 171.643 33.5874 171.753 33.5874C172.605 33.5874 173.258 32.903 173.258 32.0104C173.258 31.0105 172.548 30.1936 171.485 30.1936H163.963C162.9 30.1936 162.19 31.0105 162.19 32.0104C162.19 32.8998 162.843 33.5874 163.692 33.5874C165.455 33.5874 165.436 31.4174 164.363 31.3386H164.225C163.811 31.3638 163.663 31.6003 163.663 31.9378C163.663 32.5087 164.127 32.3731 164.206 32.146L164.6 32.2879C164.288 33.1648 163.241 32.761 163.241 31.9378C163.241 31.3701 163.575 30.9159 164.297 30.9159H164.376H171.053H171.236C171.886 30.9569 172.189 31.3953 172.189 31.9347C172.189 32.7579 171.138 33.1616 170.829 32.2848L171.224 32.1428C171.302 32.3668 171.766 32.5056 171.766 31.9347C171.766 31.5972 171.615 31.3606 171.205 31.3354H171.066C170.072 31.4079 169.987 33.2815 171.384 33.5527L171.4 33.5559ZM164.985 33.5559H170.46C170.258 33.3698 170.113 33.1395 170.028 32.8935H165.423C165.335 33.1395 165.193 33.3698 164.988 33.5559H164.985ZM170.87 33.9754H164.455L164.076 70.1021H171.372L170.867 33.9754H170.87ZM163.729 29.7836V28.9982H164.212V29.771H170.703V29.0424H171.529V29.771C172.823 29.7931 173.674 30.815 173.674 32.0072C173.674 33.1111 172.854 34.0037 171.75 34.0037C171.652 34.0037 171.561 33.9974 171.473 33.988L171.977 70.1052C172.687 70.1715 172.848 70.6194 172.889 71.2439C173.624 71.3669 173.81 71.9031 173.86 72.6443H176.497V75.9276H180.396V78.9997H184.423V82.4566H50.1924V78.9997H54.1129V75.9276H58.2069V72.6443H60.5787C60.6513 72.0071 60.9446 71.3101 61.6417 71.2249C61.6984 70.7455 61.9224 70.2188 62.4491 70.1178L62.8244 33.9722C62.6604 33.9974 62.5153 34.0037 62.3608 34.0037C61.26 34.0037 60.4368 33.108 60.4368 32.0072C60.4368 30.9064 61.2095 29.8908 62.4018 29.7804V28.9951H62.8812V29.7678H69.3723V29.0392H70.1987V29.7678C71.495 29.7899 72.3466 30.8118 72.3466 32.0041C72.3466 33.108 71.5234 34.0006 70.4194 34.0006C70.3248 34.0006 70.2333 33.9943 70.145 33.9848L70.6497 70.1021C71.3562 70.1683 71.5202 70.6162 71.5612 71.2407C72.2961 71.3637 72.4822 71.8999 72.5327 72.6411H83.594C83.6665 72.004 83.9599 71.3069 84.6538 71.2218C84.7105 70.7424 84.9345 70.2156 85.4644 70.1147L85.8397 33.969C85.6757 33.9943 85.5306 34.0006 85.376 34.0006C84.2753 34.0006 83.4521 33.1048 83.4521 32.0041C83.4521 30.9033 84.2248 29.8877 85.4139 29.7773V28.9919H85.8933V29.7647H92.3844V29.0361H93.2108V29.7647C94.5071 29.7867 95.3587 30.8087 95.3587 32.0009C95.3587 33.1048 94.5386 33.9974 93.4347 33.9974C93.3401 33.9974 93.2486 33.9911 93.1603 33.9817L93.6649 70.0989C94.3715 70.1652 94.5355 70.613 94.5765 71.2375C95.3114 71.3606 95.4975 71.8967 95.5479 72.638H138.901C138.973 72.0008 139.266 71.3038 139.96 71.2186C140.017 70.7392 140.241 70.2125 140.771 70.1115L141.146 33.9659C140.979 33.9911 140.837 33.9974 140.683 33.9974C139.579 33.9974 138.759 33.1017 138.759 32.0009C138.759 30.9001 139.531 29.8845 140.721 29.7741V28.9888H141.2V29.7615H147.694V29.0329H148.517V29.7615C149.814 29.7836 150.665 30.8055 150.665 31.9978C150.665 33.1017 149.842 33.9943 148.741 33.9943C148.644 33.9943 148.552 33.988 148.464 33.9785L148.968 70.0958C149.675 70.162 149.839 70.6099 149.877 71.2344C150.612 71.3574 150.801 71.8936 150.851 72.6348H161.91C161.982 71.9977 162.279 71.3006 162.972 71.2155C163.026 70.736 163.253 70.2093 163.78 70.1084L164.155 33.9627C163.991 33.988 163.849 33.9943 163.692 33.9943C162.591 33.9943 161.768 33.0985 161.768 31.9978C161.768 30.897 162.54 29.8814 163.729 29.771V29.7836Z" fill="black"/>
<path id="Vector_53" fill-rule="evenodd" clip-rule="evenodd" d="M53.3884 37.6469C53.543 37.8487 53.2875 37.9938 53.1866 38.1925C51.4676 40.5013 43.0336 53.4614 41.0245 56.5713L40.0152 55.398C42.6677 50.7047 44.4845 44.8697 48.3514 40.9271C49.654 39.6497 53.0289 37.1801 53.3884 37.6469ZM66.5314 47.3362C68.0454 51.0422 64.5318 55.0952 62.8632 56.6911C61.9233 55.9026 61.0023 55.9026 60.1129 56.0792C59.4442 56.2149 58.826 56.688 59.0658 57.4733C59.2266 58.0032 59.6366 58.0884 60.1571 58.1483C60.7973 58.2209 61.9233 57.8266 62.5636 57.5333C63.3427 59.0251 62.7434 61.9143 62.1157 63.567C60.5355 67.7272 57.3783 71.1589 52.1268 73.1964C50.0893 73.8335 49.4837 74.1174 46.727 74.0858C47.8625 72.0704 54.9844 60.2426 54.9844 60.2426C57.1796 59.8862 58.334 60.8513 60.1161 61.9553C60.3558 61.9679 60.6396 61.8417 60.6649 61.5263C60.709 60.9681 59.9678 60.804 59.5641 60.6085C58.0848 59.8957 57.1071 59.719 55.3723 59.7506C56.1766 58.4038 56.9336 56.9908 57.7757 55.7165C60.2611 55.9121 63.8 54.3477 64.3961 49.5409L64.0429 49.4588C63.1881 54.3287 59.7912 55.3696 58.0628 55.316C58.9585 53.8462 59.7029 52.4584 60.5797 50.9476L60.2075 50.8183C59.378 51.837 58.1763 52.0767 57.1134 52.0483L55.6972 54.8397C55.1421 54.6094 54.8235 53.8399 54.7636 53.2595C54.505 50.6984 57.864 47.9197 59.9363 46.9734C61.7562 46.1408 65.6798 45.2324 66.5409 47.3393L66.5314 47.3362ZM51.5527 54.6599C51.6127 55.2213 49.5783 57.5585 48.6163 58.7255C47.935 59.6591 47.3831 60.394 46.8437 61.5326C45.784 61.9742 44.7904 62.8479 43.8474 63.5544C43.8821 63.2453 43.8316 62.974 43.7906 62.6807C43.7906 62.6807 49.1462 55.9373 50.1839 55.1046C50.6034 54.7325 51.3509 54.0449 51.5527 54.6599ZM62.4185 56.9372C61.9076 57.5333 60.7689 57.8108 60.2611 57.7887C59.911 57.773 59.5042 57.7698 59.4095 57.3693C59.2802 56.8141 59.6997 56.4073 60.2044 56.3284C61.0749 56.1959 61.8981 56.3442 62.4185 56.9372ZM41.6963 58.5268L37.5203 64.6205C37.4351 64.7498 37.309 64.9359 37.1166 64.8097C36.8453 64.6268 37.126 64.3145 37.1986 64.1947C37.2617 64.1 41.1601 57.6973 41.1601 57.6973C41.2736 57.8897 41.6427 58.4259 41.6931 58.53L41.6963 58.5268ZM51.8965 60.3972C50.4678 62.0404 48.9948 64.9674 47.831 65.3301C47.443 65.3869 47.4209 65.1377 47.3988 64.7624C47.3768 64.2861 48.3388 62.2833 49.3071 61.0942C50.1744 60.8324 50.4583 60.5675 51.8965 60.394V60.3972ZM41.425 64.8696C41.261 65.0179 41.1317 65.1567 40.8415 65.0715C40.6554 64.9516 40.7501 64.7056 40.892 64.4943L42.9011 61.2046C43.1156 61.6556 43.1314 61.9994 43.2544 62.4978C42.6047 63.4061 42.1063 64.1852 41.425 64.8665V64.8696ZM44.7683 73.7673C43.8158 73.6253 42.9295 72.922 42.3839 72.2375C43.3995 70.4933 44.1344 67.0333 43.8757 64.2262C44.7431 63.4251 45.5569 62.7249 46.6766 62.2391C46.4085 63.2705 46.6923 64.9264 46.9762 65.5099C47.2979 65.8064 47.8688 65.9263 48.241 65.7181C49.8685 64.6173 51.067 62.1666 52.0038 61.3276C49.7486 65.3806 47.2254 69.7269 44.7683 73.7673ZM43.4247 64.6552C43.3427 67.1595 43.2039 69.9098 42.1032 71.9001C41.4093 70.7961 41.0213 69.1907 41.3462 67.8345C41.7688 66.5034 42.3366 65.5541 43.4247 64.6552ZM19.8827 72.5435C21.5008 76.8046 25.7808 79.8294 30.5214 79.9429C35.3629 79.6622 40.0909 76.8646 42.2072 72.7264C42.5826 72.9661 43.0241 73.5938 44.2858 74.2025C40.7501 80.1763 34.2243 85.2355 26.9132 84.6267C20.2171 84.0685 13.6661 79.7884 11.5654 72.1177C14.319 73.0198 17.022 72.7864 19.8827 72.5466V72.5435ZM28.588 50.6132C29.7487 53.5213 28.834 58.0411 27.3421 60.2142C26.0899 62.0373 22.7908 64.5322 19.9742 65.4405C20.5956 63.4314 21.8824 62.0467 23.9042 61.4096C24.4498 61.1888 24.6265 60.6274 24.3457 60.1543C23.9925 59.8452 23.6518 59.9651 22.999 60.1543C21.0876 61.2835 20.2612 63.5765 19.4538 65.5951C16.899 66.4372 12.8649 66.3142 10.9536 65.7181C11.4046 61.6146 13.3412 57.0538 16.6498 54.5684C20.4378 51.7203 22.7403 50.465 28.588 50.6132ZM28.3798 50.1023C21.4472 50.0644 18.8671 52.2092 16.0978 54.354C12.2625 57.3219 10.8558 62.3085 10.5246 65.573C7.54401 64.9359 2.20732 60.6116 1.42827 56.1802C2.33033 50.9034 6.29184 44.7498 13.1456 43.1949C24.0808 40.7158 28.0581 48.746 28.3798 50.1023ZM27.749 41.8765L27.4935 42.1162C23.655 37.5554 17.0819 35.1551 10.9567 37.2368C5.78719 38.9022 1.4945 43.504 0.743834 49.0993C0.314881 51.0517 0.551436 53.3447 1.10971 55.2371C2.30825 50.2663 5.31093 44.4029 13.6314 42.5861C23.3491 40.4634 27.6449 46.8788 28.9917 50.26C31.8619 50.3956 34.3883 51.1242 36.7759 52.4552C40.1003 47.415 43.4878 41.6904 48.6132 38.981C50.165 38.079 51.4834 37.6374 53.1708 37.0255C53.5461 36.8646 54.3283 37.1737 54.0634 37.6721L41.3746 57.0791C41.5859 57.4513 41.895 57.7793 42.0811 58.0915C45.1153 54.1931 54.24 39.2775 57.1355 37.1359C57.5108 36.9403 57.8388 37.1138 57.924 37.2242C58.1889 37.5554 58.0817 37.8077 57.9082 38.0285C56.1009 40.3562 43.2071 60.659 43.2071 60.659C43.5414 61.5579 43.5383 61.5673 43.6297 62.1256C45.8439 59.3879 49.7076 54.4297 50.944 54.0512C51.5433 53.8272 51.9659 54.0985 52.1047 54.6631C52.3539 57.7572 51.0134 58.8107 49.6887 60.4476C50.6255 60.1732 51.5149 60.0092 52.6283 59.8673C53.7385 58.2587 54.4166 56.8615 55.4007 55.1519C54.3883 54.4013 54.2716 53.4677 54.4892 52.2786C55.1011 48.9195 59.5168 46.0272 62.5573 45.6866C63.5508 45.5762 65.5253 45.5415 66.6387 46.4877C68.3166 47.9165 68.7172 50.7299 67.9476 52.8905C67.2348 55.01 65.3455 56.565 63.2954 57.2904C64.6548 58.8044 64.9229 61.4664 64.27 64.018C62.8979 69.38 55.6783 74.6031 48.8655 74.5589C47.6669 74.5999 47.5565 74.745 46.4148 74.6031C42.5573 80.5738 34.9939 85.472 27.3421 85.0525C19.8796 84.633 13.7733 80.6905 10.9819 71.8811C6.08368 70.651 2.39657 66.1691 1.29264 61.4506C0.828994 59.3532 0.989852 56.4767 0.989852 56.4767C0.989852 56.4767 0.308573 54.1584 0.191872 52.7075C-0.527256 46.3616 3.24817 40.4761 8.56908 37.7856C13.215 35.3538 20.1698 35.6787 24.3426 38.7634C25.6389 39.6339 26.7933 40.5454 27.7458 41.8765H27.749ZM19.2645 66.166C19.0879 67.8912 19.069 69.5629 19.5137 71.1273C17.1387 71.878 13.8616 72.1555 11.3573 71.3954C10.9378 69.8909 10.7328 68.2098 10.9536 66.289C13.6661 67.0333 16.489 66.9639 19.2645 66.166ZM3.73705 61.5989C5.70834 63.69 7.81841 65.2324 10.4016 66.125C10.2534 67.5537 10.3984 69.6291 10.7454 71.1999C5.96067 70.077 2.59212 65.6771 1.59859 60.987L1.29264 57.6247C2.0717 58.9053 2.59212 60.4035 3.73705 61.5989ZM40.769 57.1138C39.255 59.7884 38.0502 61.8228 36.4984 64.3019C36.3533 64.5574 36.4258 64.9674 36.7255 65.1945C37.3594 65.6613 37.8483 65.0715 37.8483 65.0715C39.0689 63.4156 40.9519 60.618 41.9833 59.0851C42.1473 59.3942 42.5542 60.1922 42.6078 60.618C41.2484 62.8763 39.6619 64.7466 40.4126 65.3491C41.4408 66.1786 42.857 63.9329 43.39 63.1885C43.4405 63.6427 43.3963 63.9297 43.3963 64.0906C40.6491 66.4498 40.3558 68.8879 41.0182 70.7709C41.1853 71.695 41.69 72.1208 41.8508 72.4363C39.2235 76.8425 34.3189 79.7064 29.3418 79.391C25.0554 78.8106 21.7563 76.2811 20.4126 72.3574C29.1368 70.4902 34.6879 64.5668 39.7313 55.9688C40.0593 56.3158 40.7059 57.0128 40.769 57.1106V57.1138ZM36.4006 52.9346C31.8871 58.7823 27.1655 68.4432 19.971 70.8371C19.4033 69.2286 19.6209 67.7903 19.7944 66.0524C23.901 64.8286 26.3013 62.2518 27.5471 60.6936C28.9854 58.8958 30.2659 53.4487 29.0895 50.6542C31.9944 50.7331 34.2274 51.6951 36.4038 52.9346H36.4006ZM57.5013 37.6437C57.6527 37.8203 57.2711 38.1957 57.0629 38.4511C54.5144 41.5831 43.5698 59.0725 42.9421 59.9808L42.3586 58.6057C47.1465 51.9222 55.3976 39.3911 56.7948 38.0064C57.0188 37.7856 57.3752 37.4923 57.5045 37.6405L57.5013 37.6437Z" fill="black"/>
<path id="Vector_54" fill-rule="evenodd" clip-rule="evenodd" d="M139.194 50.8498C140.178 56.3915 138.229 60.618 134.327 63.9834C135.693 60.7126 136.409 56.9624 135.604 52.9757C134.564 47.7967 131.012 44.5133 130 43.955C133.93 43.955 138.399 46.3584 139.194 50.853V50.8498ZM153.958 44.5953C146.051 50.6448 142.329 57.9812 137.942 65.1567C133.57 71.4333 130.716 77.0444 121.922 80.394C118.02 81.8354 111.047 81.6872 105.319 77.9275C99.853 73.6254 95.7811 68.9037 96.2164 58.5079C96.5066 51.6636 102.446 42.9363 112.674 41.5705C103.676 53.9976 109.318 61.1983 111.763 64.0811C115.182 68.1184 124.464 70.7173 132.592 65.8727C129.486 70.8655 124.515 73.2185 118.443 73.6096C114.854 73.843 108.328 71.1084 105.338 67.7399C105.127 67.6736 104.991 67.9165 105.127 68.0616C107.77 71.1116 113.655 74.0638 118.405 74.0322C126.051 73.9786 131.157 69.5881 133.677 65.0526C137.67 62.1445 140.821 57.2589 139.796 51.0296C139.37 48.4464 137.257 43.4693 129.17 43.4977C125.877 41.2488 122.436 40.6432 118.636 40.4603C123.404 37.8235 130.791 39.3375 136.276 40.6401C141.641 42.3275 153.955 44.5953 153.955 44.5953H153.958ZM128.445 43.5639C126.581 43.7468 124.439 44.3619 122.799 45.4784L122.862 45.9515C124.6 44.7278 126.846 43.8951 129.151 43.9109C129.151 43.9109 133.876 46.9924 135.166 53.1554C136.068 57.4765 135.166 61.438 133.374 64.8192C128.839 68.582 117.976 70.364 111.886 63.3683C107.202 57.9875 107.073 52.0484 110.933 46.0998C112.911 43.0498 115.655 41.4349 117.762 40.8104C121.509 41.0848 125.388 41.6652 128.442 43.5639H128.445ZM95.6076 59.8484C95.9798 52.2187 101.055 42.4947 113.318 40.924C119.471 34.5654 129.467 33.1113 138.225 35.5747C144.783 37.2873 151.078 40.1638 157.437 42.4284C162.234 39.2555 171.006 37.5901 175.828 39.1829C175.876 39.2397 175.86 39.3248 175.693 39.2996C170.321 38.0601 163.152 39.5299 158.891 42.7691C170.851 47.0145 183.209 46.1376 190.842 39.9052C190.92 39.8926 191.126 39.9525 191.189 40.1575C178.73 48.9038 165.729 46.513 155.772 45.0558C149.962 49.8689 148.363 55.8522 144.739 63.7657C140.386 73.2721 133.857 79.8263 124.458 82.2328C115.15 84.1221 106.202 81.0816 100.373 74.2846C98.2697 71.6194 96.8314 68.6009 96.0934 65.3491C95.6897 63.8856 95.6045 59.8547 95.6045 59.8547L95.6076 59.8484Z" fill="black"/>
<path id="Vector_55" fill-rule="evenodd" clip-rule="evenodd" d="M225.608 78.76C221.748 81.9456 216.288 84.0525 210.8 82.5228C212.449 82.4219 220.303 80.5263 224.154 76.4607C225.854 74.6629 227.775 72.966 230.033 66.4623C230.819 71.1966 228.573 76.1074 225.611 78.7569L225.608 78.76ZM171.831 57.3186C171.506 58.2175 171.182 58.9808 170.645 59.8671C169.166 62.0624 168.176 63.5385 166.737 65.2164C166.435 65.5728 166.078 65.9797 165.624 65.8882C165.198 65.8031 165.138 65.1281 165.201 64.8411C166.513 61.4694 168.135 59.1007 170.156 56.2589C170.415 55.9025 171.21 54.767 171.923 55.196C172.235 55.3852 172.125 56.5459 171.834 57.3186H171.831ZM164.914 55.811C163.993 57.4543 162.571 59.5107 160.735 60.4159C161.521 58.9051 163.258 55.3473 164.656 54.9342C165.315 54.7418 164.981 55.6974 164.918 55.811H164.914ZM227.766 55.0761C229.336 57.9715 229.977 61.3243 229.898 64.5888C227.996 58.9777 222.038 55.2275 215.651 55.2243C210.415 55.1581 205.782 57.7854 203.422 62.3273C202.792 63.5353 201.836 66.5285 202.934 66.5443C203.454 66.5538 203.801 66.2163 203.769 65.2732C203.668 63.9233 203.508 62.7941 204.28 61.6523C207.056 57.1988 212.49 55.2338 217.837 55.9845C223.208 56.8991 228.358 60.4916 229.756 65.5665C227.778 72.2248 224.716 75.1391 223.344 76.5112C220.54 79.3151 214.354 81.7848 209.604 82.2831C203.776 80.0595 198.824 74.4232 197.578 67.399C196.688 61.2896 199.275 56.1926 202.811 52.4803C206.308 48.7396 210.92 47.806 214.317 47.746C220.757 47.6325 226.097 51.9977 227.769 55.0729L227.766 55.0761ZM198.54 46.3172C196.241 50.7771 193.219 55.4262 191.314 60.0122C192.796 58.2333 195.607 54.7859 196.761 54.5714C197.114 54.5084 197.449 54.6913 197.496 55.1234C198.06 60.4506 190.207 66.7272 193.023 73.1016C195.247 79.6305 202.732 82.5512 208.724 82.2768C206.819 81.4851 205.119 80.4127 203.205 78.7064C198.376 74.6061 194.96 65.7274 198.221 58.5456C200.997 51.8022 207.009 47.4464 214.301 47.3013C220.164 47.3486 225.908 50.2094 228.601 55.6123C229.639 57.6845 230.547 61.7722 230.204 65.7621C231.664 70.0737 229.469 76.2273 226.154 78.9619C222.599 82.321 215.963 84.8568 209.727 82.5891C198.023 83.2262 192.692 76.9212 191.144 69.7362C190.327 64.122 195.79 57.9589 196.95 55.5965C197.051 55.3915 197.146 55.0887 197.013 54.9752C196.657 54.6724 195.733 55.5839 195.171 56.2242C188.747 63.5448 184.889 73.6315 181.439 80.132C179.887 79.8072 179.007 80.8165 178.124 81.7848L177.956 81.6996L192.005 56.4607C189.721 59.6747 186.971 62.8887 184.577 65.8283C184.321 66.0775 183.943 66.2762 183.779 66.2541C182.993 66.1563 182.782 65.4467 182.779 65.002C182.77 63.9832 183.066 62.5765 183.183 62.3021C184.233 60.192 185.709 57.8675 186.696 56.016C186.835 55.7195 187.081 55.2716 186.848 55.0761C186.312 54.6282 184.031 57.3407 182.968 58.984C182.968 58.984 180.969 62.7783 179.224 65.8725H177.278C179.228 62.1318 182.375 56.404 182.375 56.404C182.479 56.1327 183.006 55.382 182.669 55.1549C182.306 54.9089 181.849 55.5303 181.467 55.8772C180.874 56.5049 179.092 58.35 178.111 59.5959C178.111 59.5959 176.178 63.242 174.714 65.8283H172.982C174.354 63.0433 177.363 57.5237 177.363 57.5237C173.591 62.4566 170.57 65.8693 170.57 65.8693C170.254 66.2447 169.778 66.3361 169.371 66.1563C169.065 66.0176 168.907 65.7053 168.863 65.289C168.759 64.3585 169.008 63.7498 169.207 62.914C168.415 64.0368 167.482 65.024 166.927 65.6832C166.69 65.8819 166.267 66.3109 165.757 66.3172C165.457 66.3077 165.031 66.1563 164.861 65.7684C164.277 63.9012 165.16 61.3464 165.457 60.0658C163.183 62.4156 160.398 65.3331 159.215 66.0743C158.565 66.4118 157.947 66.1879 157.868 65.4025C157.805 63.9327 157.947 62.3935 158.414 61.1351C157.988 61.7406 155.039 65.3962 155.039 65.3962C154.481 65.9986 153.982 66.1973 153.342 66.0775C152.62 65.9387 152.374 65.1407 152.323 64.4878C152.216 63.0433 152.724 61.8857 153.553 60.3308C154.667 58.2428 159.862 48.6986 159.862 48.6986H161.937C161.937 48.6986 154.071 63.1001 153.771 63.5101C153.437 64.2292 152.891 65.4688 153.449 65.7053C154.083 65.9734 154.853 64.9799 155.301 64.3648C157.963 61.0058 161.208 56.8203 163.495 55.2559C164.375 54.6535 165.179 54.357 165.577 54.7796C166.302 55.5492 165.715 57.0411 164.709 58.0662C163.795 58.9966 161.53 60.5358 160.442 60.9994C159.508 62.6995 158.767 64.2607 158.524 64.9988C158.464 65.1691 158.294 65.9576 158.849 65.8851C158.978 65.8662 159.098 65.7747 159.152 65.7274C162.817 62.3935 166.819 57.6624 169.762 55.3789C170.38 54.9405 171.276 54.3538 172.074 54.6945C172.765 54.9941 172.579 56.0539 172.487 56.4292C172.935 55.7132 173.557 54.6724 173.557 54.6724C174.345 54.6724 174.594 54.6629 175.219 54.6629C173.191 58.2586 171.323 61.6239 169.447 65.1597C169.321 65.3994 169.28 65.7873 169.611 65.8851C169.611 65.8851 169.961 65.9955 170.355 65.5255C173.206 62.1254 176.509 58.2428 178.922 54.6251C179.6 54.6251 180.029 54.6124 180.666 54.6124C179.335 57.0884 179.865 56.0917 178.546 58.4667C179.571 57.3723 180.051 56.7604 181.123 55.5524C182.091 54.5809 182.501 54.6156 182.751 54.7071C183.432 54.9531 183.441 56.2841 183.344 57.8895C184.233 56.7446 186.122 54.0479 187.195 54.7228C187.756 55.0793 187.848 57.4259 187.065 59.0471C187.065 59.0471 184.694 63.1884 183.703 65.1628C183.609 65.3521 183.476 65.7337 183.798 65.8346C184.041 65.9103 184.343 65.6643 184.485 65.4971C186.327 63.2672 191.295 57.3155 194.219 52.9944C195.162 51.5088 196.095 49.9665 196.909 48.4715L196.726 48.4115C193.922 50.8528 189.907 52.4898 185.936 52.3857C178.887 52.1365 170.954 47.1247 164.596 52.2027C167.406 49.998 170.923 48.8847 174.746 48.7175C181.697 48.9446 191.251 54.2024 197.004 47.7397C197.821 46.7115 198.628 45.4436 199.414 44.2545C199.578 44.1788 199.625 44.2419 199.593 44.3554C199.426 44.9515 198.821 45.7968 198.543 46.333L198.54 46.3172Z" fill="black"/>
<path id="Vector_56" fill-rule="evenodd" clip-rule="evenodd" d="M99.9326 60.334C99.5068 60.9239 96.2298 66.7053 94.9271 65.7149C94.0566 65.1156 94.6622 62.9078 94.8073 61.9016C93.8894 63.2232 92.5553 65.5761 91.9181 65.8127C91.5964 65.9325 91.281 65.6234 91.2242 65.2418C91.1233 64.5447 91.3662 63.5449 91.5144 62.5797C90.1929 64.5227 89.5968 65.8127 88.7231 65.8757C88.4077 65.8978 88.2247 65.696 88.1743 65.4468C88.0576 64.8854 88.1806 63.9297 88.3414 63.2768C87.5687 64.2419 85.7456 66.3457 84.8467 65.778C83.6892 65.0462 84.4398 62.6113 84.7363 61.1573C83.358 62.728 81.2984 65.8757 80.3112 65.8379C79.9232 65.9672 79.6677 65.6739 79.5763 65.349C78.5165 62.7848 81.6106 60.6589 81.1565 59.6244C80.4689 60.0155 79.8223 60.0281 79.5605 59.76C79.5605 59.76 79.3586 59.6559 79.4375 59.4131C79.57 59.0062 79.9989 58.9463 79.9989 58.9463C80.2512 58.8737 80.8884 58.8453 81.393 59.1544C82.437 58.2303 83.0994 55.5462 84.2096 54.6157C84.5029 54.3697 85.0707 54.2593 85.3577 54.4643C86.1178 55.0005 85.7835 56.2464 85.5785 56.9056C85.4239 57.3976 84.9476 58.1167 84.4304 58.1294C84.0203 58.1388 83.7649 57.8518 83.6955 57.5175C83.6576 56.2905 85.5658 55.4957 85.2788 54.805C85.1684 54.5369 84.6228 54.6441 84.3358 54.8996C83.4337 55.7039 82.7556 58.2902 81.6138 59.3342C81.9765 59.7537 82.0491 60.416 82.0427 60.886C82.0144 62.4378 80.1093 64.5794 80.0147 65.2954C80.0557 65.9168 80.696 65.3963 80.8631 65.226C83.828 62.2833 85.9223 57.5805 89.7387 54.8901C90.1803 54.581 90.7827 54.4296 91.3883 54.6473C91.9686 54.8554 91.8929 55.4736 91.8172 55.9909C92.1989 55.3853 92.5048 55.0478 92.8171 54.54H94.7757C94.5676 54.9816 90.3979 61.8827 88.6947 65.0021C88.5181 65.3301 88.7168 65.5099 88.8587 65.4468C89.5873 65.1219 91.0003 62.6649 92.0033 61.0658C92.7571 60.4507 93.6371 59.9019 94.4729 59.4131C93.5898 61.3213 92.161 63.0592 91.6816 65.1408C91.6343 65.3396 91.8929 65.4436 92.0853 65.2134C93.1041 63.9959 97.4977 56.4072 98.7404 54.54H100.519L94.9744 64.8254C94.8262 65.5351 95.3308 65.5383 95.5359 65.431C96.1541 65.2292 99.3649 60.8513 99.4974 60.3246C99.4974 60.3246 99.8759 60.2205 99.9389 60.3277L99.9326 60.334ZM91.5838 55.4799C91.3378 58.2177 89.3665 61.0942 88.6379 62.3085C88.0607 63.2642 86.8779 64.5984 85.8308 65.2323C85.5658 65.3932 85.0801 65.4405 85.0707 64.8664C85.0549 63.9518 89.0479 56.095 90.6061 55.2371C90.7417 55.0825 91.0129 54.9122 91.2369 54.9374C91.445 54.9627 91.6217 55.2623 91.587 55.4799H91.5838ZM81.0902 59.3847C80.8505 59.6338 79.8696 59.7947 79.9201 59.3563C79.9611 58.9967 80.9924 59.0377 81.0902 59.3847ZM75.5927 65.8694H73.6687C73.6687 65.8694 76.7597 61.2645 77.5924 59.7505L77.3779 60.0123C76.1793 61.4884 73.3785 64.8791 72.2872 65.7401C72.2084 65.8 72.0633 65.8726 71.9213 65.8694C71.6911 65.8663 71.4545 65.7244 71.4356 65.4973C71.3252 64.2987 71.3252 63.0308 71.7731 61.9742L75.8955 54.581L77.9992 54.5716C77.9992 54.5716 71.9592 64.6867 71.7731 65.0967C71.6753 65.3112 71.7952 65.4941 71.9781 65.4973C72.1043 65.5036 72.2241 65.4184 72.3187 65.308C74.1765 63.138 77.0751 59.8357 79.2514 56.874C82.6042 51.0327 85.8939 44.9958 89.4044 39.3248C89.6788 38.8801 90.4263 38.2871 91.0192 38.6277C91.6437 38.9873 91.7825 39.8105 91.2716 40.7346C89.4832 43.9802 87.2848 45.8758 86.039 47.6389C84.8057 49.79 76.4064 64.5479 75.5958 65.8631L75.5927 65.8694ZM90.9467 40.4382C90.0383 42.2833 88.1459 44.2357 86.7644 46.1218C87.8084 44.1474 89.7261 38.4858 90.8268 39.1576C91.1296 39.3437 91.1927 39.9335 90.9467 40.4382Z" fill="black"/>
<path id="Vector_57" fill-rule="evenodd" clip-rule="evenodd" d="M68.3956 49.44C69.1116 46.1062 71.4424 45.4564 72.0543 45.4817C74.9277 45.6047 73.7922 49.9005 73.3759 51.3419C71.291 55.458 68.1401 59.4857 66.2729 63.8163C66.0553 65.2041 66.6482 65.7497 67.4052 65.6488C69.0422 65.4311 70.3038 62.8196 70.0515 61.4917C69.9758 60.8388 69.6667 59.7791 69.6762 58.9369C69.6825 58.2146 69.919 57.6438 70.7328 57.628C71.4645 57.6154 71.7137 58.3913 71.7515 59.1009C71.8115 60.1985 71.3478 61.5769 71.0419 62.1068C70.1619 63.6302 69.1021 65.961 67.3642 65.961C66.6482 65.961 65.8376 65.7907 65.7588 63.9897C65.6516 61.6053 66.1972 60.0188 67.4305 57.8835C69.1904 54.701 71.4172 51.5974 73.1267 48.2225C73.3759 47.699 73.5714 45.7277 71.9849 45.8223C71.843 45.8318 69.837 45.9011 68.8466 49.44C68.6921 49.5031 68.5438 49.5094 68.3893 49.44H68.3956Z" fill="black"/>
<path id="Vector_58" fill-rule="evenodd" clip-rule="evenodd" d="M157.434 48.7553C154.371 54.6061 151.135 60.2488 148.186 65.8788H146.092L155.45 48.749L157.434 48.7585V48.7553Z" fill="black"/>
<path id="Vector_59" fill-rule="evenodd" clip-rule="evenodd" d="M120.493 45.5664C123.366 45.6894 122.227 49.9853 121.814 51.4267C119.729 55.5427 116.834 59.5705 114.967 63.901C114.692 65.2983 115.339 65.7651 116.099 65.6641C117.736 65.4465 119.25 62.9012 119.001 61.5765C118.925 60.9267 118.619 59.867 118.622 59.0217C118.628 58.2994 118.868 57.7317 119.679 57.7159C120.414 57.7033 120.66 58.4792 120.698 59.1888C120.757 60.2865 120.297 61.6648 119.991 62.1947C119.111 63.7181 117.796 65.9796 116.058 65.9796C115.342 65.9796 114.531 65.8786 114.452 64.0776C114.348 61.6963 114.891 60.1067 116.127 57.9714C117.887 54.7889 119.859 51.6853 121.568 48.3104C121.817 47.7869 122.013 45.8187 120.426 45.9102C120.278 45.9197 118.13 46.0206 117.159 49.9474C117.083 49.9758 117.039 50.1966 116.736 50.0862C117.304 46.2887 119.849 45.5443 120.493 45.5696V45.5664Z" fill="black"/>
<path id="Vector_60" fill-rule="evenodd" clip-rule="evenodd" d="M129.984 57.3219C129.706 59.7347 127.299 61.8669 126.028 65.0209C125.934 65.3458 126.088 65.6108 126.271 65.6108C126.754 65.6045 127.769 64.182 128.403 63.3714C130.359 60.7219 131.955 57.59 133.462 54.704H135.156C133.627 58.1861 131.289 61.5042 129.961 65.2165C129.879 65.4972 130.053 65.6644 130.248 65.6328C132.166 65.3237 133.762 61.9899 134.1 59.5802L134.355 59.5644C134.156 61.9678 132.63 65.8789 130.066 65.8789C129.621 65.8789 129.391 65.4026 129.394 64.961C129.406 63.3083 129.734 62.5639 130.028 61.5893C129.365 62.5072 127.924 64.7339 127.05 65.4436C126.833 65.6297 126.492 65.9009 126.218 65.9167C125.208 65.9798 125.495 63.8571 125.59 63.3367C126.17 60.539 128.542 58.0473 129.359 55.5997C129.387 55.4547 129.542 55.1046 129.334 54.9752C129.126 54.8491 128.845 55.2969 128.722 55.3632C126.186 58.9367 125.48 61.4064 122.745 64.8285C122.553 65.0651 121.688 66.0176 121.218 65.9892C120.417 65.9419 120.092 63.8161 121.127 61.542C122.139 59.3215 123.899 56.8771 124.94 54.7103H126.59C125.047 58.2239 122.679 61.2298 121.209 64.8412C121.133 65.144 120.935 65.6234 121.291 65.6612C122.376 65.7685 124.994 60.4097 126.829 57.877C127.609 56.7415 128.526 54.4706 129.51 54.6756C129.961 54.7702 130.034 56.8645 129.99 57.3313L129.984 57.3219Z" fill="black"/>
<path id="Vector_61" fill-rule="evenodd" clip-rule="evenodd" d="M131.463 45.6768C131.084 45.6547 129.535 45.7714 128.816 47.0961C128.056 48.4934 128.312 50.2439 129.166 51.4866C130.16 52.928 131.399 53.5778 133.188 53.6692C133.97 53.7102 134.976 53.4137 135.348 53.2024C136.134 52.7514 136.79 51.8462 136.821 50.7927C136.834 50.4174 136.828 49.6825 136.547 49.673C136.317 49.6636 136.332 49.7708 136.354 49.8496C136.783 51.4204 135.73 52.5779 135.172 52.8744C133.765 53.6093 130.901 53.5746 129.393 51.0766C128.334 49.3229 128.999 47.5598 129.255 47.1624C129.693 46.4811 130.494 45.8219 131.765 46.0206C132.251 46.0963 133.181 46.2982 133.856 47.3138C133.945 47.3832 134.235 47.3832 134.159 47.1214C134.017 46.6767 133.096 45.7683 131.466 45.6768H131.463Z" fill="black"/>
<path id="Vector_62" fill-rule="evenodd" clip-rule="evenodd" d="M111.036 62.9615C112.449 60.3278 114.067 57.4324 115.565 54.6158H113.96C112.85 56.5839 110.951 60.5612 110.14 60.5801C109.49 60.3436 111.178 58.817 110.651 58.3408C110.339 58.06 109.314 59.0914 109.314 59.0914C109.591 58.4575 110.241 57.3535 110.459 56.4073C110.591 55.4737 110.664 54.1238 109.926 54.0512C109.443 54.0039 108.91 54.6726 108.683 54.9722C108.106 55.7796 106.961 57.1832 106.406 58.0569C106.393 58.2966 106.778 58.1862 106.835 58.1168C107.093 57.8109 109.506 54.1648 109.926 54.4612C110.124 54.6032 110.074 54.7483 109.834 55.2182C108.869 56.9908 104.065 65.8821 104.065 65.8821H105.743C106.806 64.0433 108.51 60.4193 109.024 59.9146C109.304 59.5866 110.153 58.7224 110.235 58.8139C110.478 59 109.945 59.5866 109.44 60.4287C109.128 60.9712 109.027 61.3907 109.304 61.5547C109.503 61.6715 109.85 61.6967 110.777 60.5171C110.689 60.6748 109.427 62.9457 109.301 64.0748C109.08 66.0146 109.56 66.043 109.998 66.0745C110.951 66.1439 114.07 61.2141 114.07 61.2141L113.701 61.0312C113.701 61.0312 110.752 65.674 110.118 65.6897C109.73 65.6992 109.853 65.3018 110.071 64.8413C110.071 64.8413 111.011 62.9552 111.036 62.9552V62.9615Z" fill="black"/>
<path id="Vector_63" fill-rule="evenodd" clip-rule="evenodd" d="M105.676 45.554C108.549 45.677 107.414 49.9728 106.997 51.4142C104.912 55.5303 102.017 59.558 100.15 63.8886C99.8753 65.2858 100.522 65.7306 101.282 65.6265C102.919 65.4088 104.436 62.8919 104.184 61.564C104.111 60.9111 103.802 59.8545 103.808 59.0092C103.815 58.2869 104.051 57.7192 104.865 57.7034C105.6 57.6908 105.846 58.4667 105.884 59.1764C105.941 60.274 105.48 61.6523 105.174 62.1822C104.294 63.7056 102.979 65.9419 101.241 65.9419C100.525 65.9419 99.7176 65.8662 99.6356 64.0652C99.5315 61.6807 100.074 60.0942 101.31 57.9589C103.07 54.7765 105.042 51.6729 106.751 48.298C107 47.7744 107.196 45.8063 105.609 45.8978C105.464 45.9072 103.313 46.0081 102.342 49.935C102.269 49.9634 102.222 50.1841 101.919 50.0737C102.49 46.2731 105.032 45.5319 105.676 45.5571V45.554Z" fill="black"/>
<path id="Vector_64" fill-rule="evenodd" clip-rule="evenodd" d="M71.4688 21.9775H69.652V22.3592H70.0842C70.4816 22.3592 70.45 22.561 70.45 22.7408V26.4122C70.45 27.0209 70.122 27.1187 69.7561 27.1187H69.6426V27.5003H71.6549V27.1187H71.5508C71.0651 27.1187 70.8474 26.9799 70.8474 26.4122V22.52H70.8916L72.6043 27.5003H72.7998L74.3232 22.52H74.3705V26.737C74.3705 26.9168 74.3989 27.1187 74.0047 27.1187H73.5726V27.5003H76.0106V27.1187H75.5785C75.1811 27.1187 75.2127 26.9168 75.2127 26.737V22.7408C75.2127 22.561 75.1811 22.3592 75.5785 22.3592H76.0106V21.9775H74.1056L72.8723 25.9769H72.8282L71.4751 21.9775H71.4688Z" fill="black"/>
<path id="Vector_65" fill-rule="evenodd" clip-rule="evenodd" d="M80.9175 24.7371C80.9175 25.9893 81.7407 27.6136 83.3177 27.6136C84.8948 27.6136 85.7085 25.9893 85.7085 24.7371C85.7085 23.4849 84.9011 21.8606 83.3177 21.8606C81.7344 21.8606 80.9175 23.4786 80.9175 24.7371ZM81.8605 24.7371C81.8605 23.015 82.5702 22.2422 83.3177 22.2422C84.0652 22.2422 84.7686 23.015 84.7686 24.7371C84.7686 26.7526 83.8949 27.232 83.3177 27.232C82.5639 27.232 81.8605 26.4845 81.8605 24.7371Z" fill="black"/>
<path id="Vector_66" fill-rule="evenodd" clip-rule="evenodd" d="M94.628 25.5982C94.5365 26.2227 94.1644 27.232 93.1046 27.232C92.0448 27.232 91.5654 26.1691 91.5654 24.5983C91.5654 22.8447 92.2435 22.2422 93.0068 22.2422C93.8899 22.2422 94.3221 22.851 94.5397 23.9581H94.8993L94.7889 21.9741H94.4451L94.259 22.299C94.0634 22.1445 93.6629 21.8606 92.9721 21.8606C91.4708 21.8606 90.6255 23.2105 90.6255 24.6236C90.6255 26.1123 91.373 27.6136 93.0415 27.6136C93.7133 27.6136 94.7384 27.3771 95.0065 25.6076L94.6312 25.5982H94.628Z" fill="black"/>
<path id="Vector_67" fill-rule="evenodd" clip-rule="evenodd" d="M101.594 24.8191H101.714C102.663 24.8191 102.941 24.8916 103.083 25.8852C103.165 26.4781 103.256 27.6168 104.13 27.6168C104.742 27.6168 105.184 26.9733 105.108 26.0492H104.72C104.692 26.7557 104.531 26.9607 104.367 26.9607C103.603 26.9607 104.553 25.0178 102.796 24.6046C103.118 24.4028 103.326 24.0842 103.439 23.0938C103.528 22.299 103.834 22.2328 104.007 22.2328C104.036 22.2328 104.105 22.2328 104.105 22.3053C104.105 22.3463 104.067 22.3778 104.039 22.4188C103.935 22.5324 103.903 22.6712 103.903 22.8163C103.903 23.2294 104.218 23.3777 104.464 23.3777C104.71 23.3777 105.026 23.1506 105.026 22.7595C105.026 22.2958 104.666 21.8574 104.108 21.8574C103.127 21.8574 103.092 22.7753 102.995 23.466C102.881 24.3113 102.537 24.4406 101.708 24.4406H101.597V22.7406C101.597 22.5608 101.569 22.3589 101.963 22.3589H102.395V21.9773H99.9604V22.3589H100.393C100.787 22.3589 100.758 22.5608 100.758 22.7406V26.7368C100.758 26.9165 100.787 27.1184 100.393 27.1184H99.9604V27.5001H102.395V27.1184H101.963C101.569 27.1184 101.597 26.9165 101.597 26.7368V24.8191H101.594Z" fill="black"/>
<path id="Vector_68" fill-rule="evenodd" clip-rule="evenodd" d="M110.257 24.7371C110.257 25.9893 111.081 27.6136 112.654 27.6136C114.228 27.6136 115.045 25.9893 115.045 24.7371C115.045 23.4849 114.238 21.8606 112.654 21.8606C111.071 21.8606 110.257 23.4786 110.257 24.7371ZM111.197 24.7371C111.197 23.015 111.907 22.2422 112.654 22.2422C113.402 22.2422 114.105 23.015 114.105 24.7371C114.105 26.7526 113.232 27.232 112.654 27.232C111.901 27.232 111.197 26.4845 111.197 24.7371Z" fill="black"/>
<path id="Vector_69" fill-rule="evenodd" clip-rule="evenodd" d="M120.112 21.9775V22.3591H120.548C120.942 22.3591 120.913 22.561 120.913 22.7408V26.737C120.913 26.9168 120.942 27.1186 120.548 27.1186H120.112V27.5003H122.951C124.522 27.5003 124.865 26.614 124.865 26.0778C124.865 25.3145 124.304 24.7373 123.478 24.6553V24.6048C124.172 24.4187 124.553 23.8983 124.553 23.3369C124.553 22.7755 124.09 21.9712 122.61 21.9712H120.112V21.9775ZM121.749 24.4787V22.7408C121.749 22.561 121.721 22.3591 122.115 22.3591H122.601C123.131 22.3591 123.692 22.6745 123.692 23.441C123.692 24.4408 122.885 24.4818 122.585 24.4818H121.749V24.4787ZM121.749 24.8603H122.639C123.386 24.8603 123.926 25.242 123.926 26.0305C123.926 27.0776 123.005 27.1186 122.639 27.1186H122.115C121.721 27.1186 121.749 26.9168 121.749 26.737V24.8603Z" fill="black"/>
<path id="Vector_70" fill-rule="evenodd" clip-rule="evenodd" d="M133.791 25.5982C133.703 26.2227 133.327 27.232 132.267 27.232C131.208 27.232 130.728 26.1691 130.728 24.5983C130.728 22.8447 131.41 22.2422 132.17 22.2422C133.05 22.2422 133.485 22.851 133.703 23.9581H134.059L133.949 21.9741H133.605L133.419 22.299C133.223 22.1445 132.819 21.8606 132.132 21.8606C130.63 21.8606 129.785 23.2105 129.785 24.6236C129.785 26.1123 130.533 27.6136 132.201 27.6136C132.873 27.6136 133.898 27.3771 134.166 25.6076L133.791 25.5982Z" fill="black"/>
<path id="Vector_71" fill-rule="evenodd" clip-rule="evenodd" d="M140.76 24.8191H140.879C141.829 24.8191 142.106 24.8916 142.248 25.8852C142.33 26.4781 142.419 27.6168 143.292 27.6168C143.907 27.6168 144.349 26.9733 144.273 26.0492H143.885C143.857 26.7557 143.696 26.9607 143.532 26.9607C142.772 26.9607 143.721 25.0178 141.964 24.6046C142.286 24.4028 142.494 24.0842 142.608 23.0938C142.696 22.299 143.005 22.2328 143.176 22.2328C143.204 22.2328 143.273 22.2328 143.273 22.3053C143.273 22.3463 143.236 22.3778 143.207 22.4188C143.103 22.5324 143.071 22.6712 143.071 22.8163C143.071 23.2294 143.387 23.3777 143.633 23.3777C143.879 23.3777 144.194 23.1506 144.194 22.7595C144.194 22.2958 143.835 21.8574 143.273 21.8574C142.292 21.8574 142.255 22.7753 142.16 23.466C142.05 24.3113 141.706 24.4406 140.876 24.4406H140.763V22.7406C140.763 22.5608 140.734 22.3589 141.129 22.3589H141.564V21.9773H139.129V22.3589H139.564C139.958 22.3589 139.93 22.5608 139.93 22.7406V26.7368C139.93 26.9165 139.958 27.1184 139.564 27.1184H139.129V27.5001H141.564V27.1184H141.129C140.734 27.1184 140.763 26.9165 140.763 26.7368V24.8191H140.76Z" fill="black"/>
<path id="Vector_72" fill-rule="evenodd" clip-rule="evenodd" d="M150.864 26.1283V22.7408C150.864 22.561 150.835 22.3592 151.233 22.3592H151.665V21.9775H149.227V22.3592H149.659C150.056 22.3592 150.025 22.561 150.025 22.7408V26.737C150.025 26.9168 150.056 27.1187 149.659 27.1187H149.227V27.5003H151.665V27.1187H151.065C150.857 27.1187 150.864 26.9893 150.864 26.8979V26.7843L153.207 23.3464V26.7339C153.207 26.9136 153.235 27.1155 152.841 27.1155H152.409V27.4971H154.844V27.1155H154.412C154.018 27.1155 154.046 26.9136 154.046 26.7339V22.7376C154.046 22.5579 154.018 22.356 154.412 22.356H154.844V21.9744H152.4V22.356H152.892C153.071 22.356 153.207 22.397 153.207 22.5831V22.6872L150.864 26.1251V26.1283Z" fill="black"/>
<path id="Vector_73" fill-rule="evenodd" clip-rule="evenodd" d="M161.281 26.1278V22.7403C161.281 22.5606 161.253 22.3587 161.647 22.3587H162.079V21.9771H159.644V22.3587H160.079C160.474 22.3587 160.445 22.5606 160.445 22.7403V26.7365C160.445 26.9163 160.474 27.1182 160.079 27.1182H159.644V27.4998H162.079V27.1182H161.483C161.275 27.1182 161.281 26.9889 161.281 26.8974V26.7839L163.621 23.3459V26.7334C163.621 26.9132 163.65 27.115 163.255 27.115H162.82V27.4967H165.258V27.115H164.826C164.432 27.115 164.46 26.9132 164.46 26.7334V22.7372C164.46 22.5574 164.432 22.3555 164.826 22.3555H165.258V21.9739H162.814V22.3555H163.306C163.486 22.3555 163.621 22.3965 163.621 22.5826V22.6867L161.281 26.1247V26.1278ZM162.454 21.668C163.435 21.668 163.628 21.2201 163.628 20.9867C163.628 20.687 163.344 20.5388 163.123 20.5388C162.845 20.5388 162.792 20.7407 162.792 20.8227C162.792 20.9047 162.82 20.9867 162.874 21.0245C163.016 21.1475 163.076 21.0971 163.076 21.1696C163.076 21.3557 162.625 21.3967 162.454 21.3967C162.284 21.3967 161.836 21.3557 161.836 21.1696C161.836 21.0308 162.032 21.1191 162.104 20.9267C162.117 20.8952 162.117 20.8542 162.117 20.8195C162.117 20.7217 162.057 20.5356 161.789 20.5356C161.559 20.5356 161.275 20.6902 161.275 20.9835C161.275 21.3179 161.612 21.6648 162.454 21.6648V21.668Z" fill="black"/>
</g>
<defs>
<clipPath id="clip0_169_1035">
<rect width="230.559" height="98.1988" fill="white" transform="translate(0.102539)"/>
</clipPath>
</defs>
</svg>
